juliamono-italic.glyphspackage
{
glyphname = exclam;
layers = (
{
hints = (
{
horizontal = 1;
options = 4;
origin = (0,2);
stem = -1;
type = TTSnap;
}
);
layerId = "63BE41E3-0F49-4E61-A903-F52A2E952C90";
shapes = (
{
closed = 1;
nodes = (
(683,496,l),
(915,1518,l),
(627,1518,l),
(499,496,l)
);
},
{
pos = (94,34);
ref = period;
scale = (0.8528,0.8528);
}
);
width = 1200;
},
{
hints = (
{
horizontal = 1;
options = 4;
place = (-101, 155);
type = TTStem;
},
{
horizontal = 1;
options = 4;
place = (1423, 0);
stem = -1;
type = TTSnap;
}
);
layerId = "F48F13AC-C425-4574-8B52-7DBCB7751002";
shapes = (
{
closed = 1;
nodes = (
(733,464,l),
(969,1518,l),
(572,1518,l),
(437,464,l)
);
},
{
pos = (94,34);
ref = period;
scale = (0.8528,0.8528);
}
);
width = 1200;
},
{
hints = (
{
horizontal = 1;
options = 4;
place = (-68, 271.667);
type = TTStem;
},
{
horizontal = 1;
options = 4;
origin = (0,2);
stem = -1;
type = TTSnap;
},
{
horizontal = 1;
place = (1553, 23.333);
type = TTStem;
},
{
horizontal = 1;
origin = (0,3);
type = TTSnap;
},
{
horizontal = 1;
place = (79, 64);
type = TTStem;
}
);
layerId = "4FB9B80E-81B5-47C9-A539-BB7C5ADDFB58";
shapes = (
{
closed = 1;
nodes = (
(676,502,l),
(889,1518,l),
(618,1518,l),
(509,502,l)
);
},
{
alignment = -1;
pos = (93,34);
ref = period;
scale = (0.8528,0.8528);
}
);
width = 1200;
},
{
hints = (
{
horizontal = 1;
options = 4;
origin = (0,2);
stem = -1;
type = TTSnap;
}
);
layerId = "92EF81BF-A460-40B9-8F71-75F6CAA5A9CA";
shapes = (
{
closed = 1;
nodes = (
(704,480,l),
(939,1518,l),
(603,1518,l),
(472,480,l)
);
},
{
alignment = -1;
pos = (94,34);
ref = period;
scale = (0.8528,0.8528);
}
);
width = 1200;
}
);
note = exclam;
unicode = 33;
}
{
glyphname = quotedbl;
layers = (
{
layerId = "63BE41E3-0F49-4E61-A903-F52A2E952C90";
shapes = (
{
closed = 1;
nodes = (
(523,928,l),
(713,1630,l),
(451,1630,l),
(379,928,l)
);
},
{
closed = 1;
nodes = (
(935,928,l),
(1131,1630,l),
(867,1630,l),
(795,928,l)
);
}
);
width = 1200;
},
{
layerId = "F48F13AC-C425-4574-8B52-7DBCB7751002";
shapes = (
{
closed = 1;
nodes = (
(544,928,l),
(756,1630,l),
(391,1630,l),
(327,928,l)
);
},
{
closed = 1;
nodes = (
(988,928,l),
(1192,1630,l),
(829,1630,l),
(776,928,l)
);
}
);
width = 1200;
},
{
layerId = "4FB9B80E-81B5-47C9-A539-BB7C5ADDFB58";
shapes = (
{
closed = 1;
nodes = (
(512,928,l),
(687,1630,l),
(454,1630,l),
(393,928,l)
);
},
{
closed = 1;
nodes = (
(908,928,l),
(1089,1630,l),
(854,1630,l),
(793,928,l)
);
}
);
width = 1200;
},
{
layerId = "92EF81BF-A460-40B9-8F71-75F6CAA5A9CA";
shapes = (
{
closed = 1;
nodes = (
(533,928,l),
(735,1630,l),
(421,1630,l),
(353,928,l)
);
},
{
closed = 1;
nodes = (
(961,928,l),
(1161,1630,l),
(849,1630,l),
(785,928,l)
);
}
);
width = 1200;
}
);
note = quotedbl;
unicode = 34;
}
{
glyphname = numbersign;
layers = (
{
hints = (
{
horizontal = 1;
options = 4;
origin = (0,0);
target = (0,3);
type = TTStem;
},
{
horizontal = 1;
options = 4;
origin = (1,0);
target = (1,3);
type = TTStem;
},
{
options = 4;
origin = (2,0);
target = (2,1);
type = TTStem;
},
{
options = 4;
origin = (3,0);
target = (3,1);
type = TTStem;
},
{
options = 4;
origin = (2,3);
target = (2,2);
type = TTStem;
},
{
options = 4;
origin = (3,3);
target = (3,2);
type = TTStem;
}
);
layerId = "63BE41E3-0F49-4E61-A903-F52A2E952C90";
shapes = (
{
closed = 1;
nodes = (
(53,426,l),
(981,426,l),
(1031,564,l),
(104,564,l)
);
},
{
closed = 1;
nodes = (
(227,898,l),
(1149,898,l),
(1209,1036,l),
(275,1036,l)
);
},
{
closed = 1;
nodes = (
(104,0,l),
(254,0,l),
(786,1450,l),
(636,1450,l)
);
},
{
closed = 1;
nodes = (
(482,0,l),
(632,0,l),
(1164,1450,l),
(1014,1450,l)
);
}
);
width = 1200;
},
{
hints = (
{
horizontal = 1;
options = 4;
place = (153, 114);
type = TTStem;
},
{
horizontal = 1;
options = 4;
place = (669, 105);
type = TTStem;
}
);
layerId = "F48F13AC-C425-4574-8B52-7DBCB7751002";
shapes = (
{
closed = 1;
nodes = (
(4,378,l),
(1002,378,l),
(1084,598,l),
(85,598,l)
);
},
{
closed = 1;
nodes = (
(167,826,l),
(1169,826,l),
(1253,1046,l),
(251,1046,l)
);
},
{
closed = 1;
nodes = (
(29,0,l),
(271,0,l),
(817,1450,l),
(575,1450,l)
);
},
{
closed = 1;
nodes = (
(447,0,l),
(689,0,l),
(1235,1450,l),
(993,1450,l)
);
}
);
width = 1200;
},
{
hints = (
{
horizontal = 1;
options = 4;
origin = (0,0);
target = (0,3);
type = TTStem;
},
{
horizontal = 1;
options = 4;
origin = (1,0);
target = (1,3);
type = TTStem;
},
{
horizontal = 1;
origin = (1,0);
target = (1,3);
type = TTStem;
},
{
horizontal = 1;
origin = (0,0);
target = (0,3);
type = TTStem;
}
);
layerId = "4FB9B80E-81B5-47C9-A539-BB7C5ADDFB58";
shapes = (
{
closed = 1;
nodes = (
(56,416,l),
(991,416,l),
(1035,540,l),
(98,540,l)
);
},
{
closed = 1;
nodes = (
(222,892,l),
(1158,892,l),
(1196,1016,l),
(263,1016,l)
);
},
{
closed = 1;
nodes = (
(132,0,l),
(265,0,l),
(767,1450,l),
(634,1450,l)
);
},
{
closed = 1;
nodes = (
(510,0,l),
(643,0,l),
(1145,1450,l),
(1012,1450,l)
);
}
);
width = 1200;
},
{
hints = (
{
horizontal = 1;
options = 4;
origin = (0,0);
target = (0,3);
type = TTStem;
},
{
horizontal = 1;
options = 4;
origin = (1,0);
target = (1,3);
type = TTStem;
},
{
options = 4;
origin = (2,0);
target = (2,1);
type = TTStem;
},
{
options = 4;
origin = (3,0);
target = (3,1);
type = TTStem;
},
{
options = 4;
origin = (2,3);
target = (2,2);
type = TTStem;
},
{
options = 4;
origin = (3,3);
target = (3,2);
type = TTStem;
}
);
layerId = "92EF81BF-A460-40B9-8F71-75F6CAA5A9CA";
shapes = (
{
closed = 1;
nodes = (
(52,408,l),
(980,408,l),
(1044,578,l),
(114,578,l)
);
},
{
closed = 1;
nodes = (
(207,870,l),
(1146,870,l),
(1210,1040,l),
(273,1040,l)
);
},
{
closed = 1;
nodes = (
(76,0,l),
(270,0,l),
(810,1450,l),
(613,1450,l)
);
},
{
closed = 1;
nodes = (
(454,0,l),
(648,0,l),
(1188,1450,l),
(991,1450,l)
);
}
);
width = 1200;
}
);
note = numbersign;
unicode = 35;
}
{
glyphname = dollar;
layers = (
{
hints = (
{
horizontal = 1;
options = 4;
place = (1237, 75);
type = TTStem;
}
);
layerId = "63BE41E3-0F49-4E61-A903-F52A2E952C90";
shapes = (
{
closed = 1;
nodes = (
(789,-20,o),
(997,160,o),
(1033,360,cs),
(1066,550,o),
(946,717,o),
(695,783,cs),
(491,842,o),
(406,933,o),
(428,1059,cs),
(445,1159,o),
(525,1274,o),
(712,1286,c),
(899,1286,o),
(989,1226,o),
(970,1082,c),
(1141,1070,l),
(1168,1270,o),
(1038,1434,o),
(754,1434,cs),
(483,1434,o),
(292,1286,o),
(250,1049,cs),
(214,846,o),
(311,731,o),
(593,640,cs),
(680,612,ls),
(833,563,o),
(889,485,o),
(871,384,cs),
(847,247,o),
(707,122,o),
(528,122,cs),
(373,122,o),
(253,218,o),
(281,374,c),
(107,386,l),
(62,130,o),
(233,-16,o),
(522,-20,c)
);
},
{
closed = 1;
nodes = (
(698,1358,l),
(598,790,l),
(588,728,l),
(582,686,l),
(473,76,l),
(453,28,l),
(430,-106,l),
(578,-106,l),
(602,34,l),
(592,92,l),
(693,656,l),
(710,742,l),
(818,1346,l),
(848,1390,l),
(878,1572,l),
(736,1572,l)
);
}
);
width = 1200;
},
{
hints = (
{
horizontal = 1;
options = 4;
origin = (1,15);
stem = -1;
type = TTSnap;
}
);
layerId = "F48F13AC-C425-4574-8B52-7DBCB7751002";
shapes = (
{
closed = 1;
nodes = (
(825,-57,o),
(1040,140,o),
(1077,350,cs),
(1117,577,o),
(958,757,o),
(704,821,cs),
(520,878,o),
(446,945,o),
(464,1051,cs),
(484,1163,o),
(580,1240,o),
(717,1247,c),
(901,1248,o),
(960,1191,o),
(925,1049,c),
(1174,1027,l),
(1222,1301,o),
(1048,1472,o),
(749,1472,cs),
(456,1472,o),
(247,1307,o),
(203,1059,cs),
(163,833,o),
(282,688,o),
(578,595,cs),
(668,567,ls),
(807,523,o),
(848,473,o),
(834,393,cs),
(811,263,o),
(677,160,o),
(522,160,cs),
(369,160,o),
(280,266,o),
(331,407,c),
(78,429,l),
(4,138,o),
(198,-57,o),
(512,-57,cs)
);
},
{
closed = 1;
nodes = (
(646,1358,l),
(548,790,l),
(551,718,l),
(552,676,l),
(444,84,l),
(426,36,l),
(389,-184,l),
(607,-184,l),
(645,40,l),
(649,98,l),
(746,660,l),
(728,746,l),
(838,1332,l),
(885,1376,l),
(921,1600,l),
(703,1600,l)
);
}
);
width = 1200;
},
{
hints = (
{
horizontal = 1;
options = 4;
place = (1468, 87.5);
type = TTStem;
},
{
horizontal = 1;
origin = (0,38);
target = (0,31);
type = TTStem;
},
{
horizontal = 1;
origin = (0,35);
type = TTSnap;
},
{
horizontal = 1;
origin = (0,38);
target = (0,31);
type = TTStem;
},
{
horizontal = 1;
origin = (0,35);
type = TTSnap;
}
);
layerId = "4FB9B80E-81B5-47C9-A539-BB7C5ADDFB58";
shapes = (
{
closed = 1;
nodes = (
(804,-5,o),
(988,177,o),
(1016,364,cs),
(1048,553,o),
(920,707,o),
(685,768,cs),
(477,827,o),
(379,923,o),
(399,1063,cs),
(421,1192,o),
(531,1298,o),
(712,1298,cs),
(853,1298,o),
(999,1234,o),
(987,1097,c),
(1116,1087,l),
(1130,1286,o),
(977,1418,o),
(728,1418,cs),
(441,1418,o),
(289,1245,o),
(261,1061,cs),
(226,850,o),
(367,728,o),
(596,655,cs),
(684,627,ls),
(835,579,o),
(907,490,o),
(891,376,cs),
(865,227,o),
(710,112,o),
(533,112,cs),
(367,112,o),
(249,214,o),
(263,359,c),
(124,369,l),
(93,143,o),
(261,-5,o),
(518,-5,cs)
);
},
{
closed = 1;
nodes = (
(691,1350,l),
(602,790,l),
(591,730,l),
(587,688,l),
(488,74,l),
(468,26,l),
(450,-94,l),
(588,-94,l),
(607,34,l),
(588,92,l),
(679,656,l),
(701,742,l),
(797,1348,l),
(812,1392,l),
(846,1568,l),
(717,1568,l)
);
}
);
width = 1200;
},
{
hints = (
{
horizontal = 1;
options = 4;
place = (570, 37.5);
type = TTStem;
}
);
layerId = "92EF81BF-A460-40B9-8F71-75F6CAA5A9CA";
shapes = (
{
closed = 1;
nodes = (
(792,-40,o),
(1014,141,o),
(1052,356,cs),
(1088,561,o),
(955,734,o),
(700,799,cs),
(507,858,o),
(426,938,o),
(447,1056,cs),
(468,1172,o),
(567,1260,o),
(716,1268,c),
(900,1268,o),
(976,1209,o),
(949,1067,c),
(1158,1049,l),
(1196,1278,o),
(1049,1454,o),
(751,1454,cs),
(470,1454,o),
(276,1297,o),
(233,1055,cs),
(196,843,o),
(296,713,o),
(586,622,cs),
(676,595,ls),
(819,549,o),
(870,482,o),
(854,389,cs),
(830,256,o),
(692,142,o),
(526,142,cs),
(372,142,o),
(266,241,o),
(307,391,c),
(93,409,l),
(34,135,o),
(208,-36,o),
(523,-40,c)
);
},
{
closed = 1;
nodes = (
(672,1358,l),
(573,790,l),
(570,724,l),
(568,682,l),
(459,80,l),
(439,32,l),
(409,-146,l),
(593,-146,l),
(624,38,l),
(620,96,l),
(720,658,l),
(719,744,l),
(828,1340,l),
(868,1384,l),
(901,1586,l),
(720,1586,l)
);
}
);
width = 1200;
}
);
note = dollar;
unicode = 36;
}
{
glyphname = percent;
layers = (
{
hints = (
{
horizontal = 1;
options = 4;
origin = (0,3);
stem = -1;
type = TTSnap;
},
{
horizontal = 1;
options = 4;
origin = (4,5);
target = (3,5);
type = TTStem;
},
{
horizontal = 1;
options = 4;
origin = (1,11);
target = (2,11);
type = TTStem;
},
{
horizontal = 1;
options = 4;
origin = (1,5);
target = (2,5);
type = TTStem;
},
{
horizontal = 1;
options = 4;
origin = (0,2);
stem = -1;
type = TTSnap;
},
{
horizontal = 1;
options = 4;
origin = (3,11);
target = (4,11);
type = TTStem;
},
{
horizontal = 1;
place = (-73, 85);
type = TTStem;
},
{
horizontal = 1;
place = (469, 84);
type = TTStem;
},
{
horizontal = 1;
place = (775, 85);
type = TTStem;
},
{
horizontal = 1;
place = (1317, 83);
type = TTStem;
}
);
layerId = "63BE41E3-0F49-4E61-A903-F52A2E952C90";
shapes = (
{
closed = 1;
nodes = (
(200,-14,l),
(1179,1450,l),
(1017,1450,l),
(51,-14,l)
);
},
{
closed = 1;
nodes = (
(567,808,o),
(685,964,o),
(717,1144,cs),
(750,1330,o),
(692,1474,o),
(521,1474,cs),
(354,1474,o),
(253,1328,o),
(221,1148,cs),
(188,956,o),
(239,808,o),
(406,808,cs)
);
},
{
closed = 1;
nodes = (
(372,978,o),
(354,1028,o),
(373,1136,cs),
(394,1254,o),
(447,1320,o),
(512,1320,cs),
(565,1320,o),
(583,1270,o),
(566,1172,cs),
(544,1048,o),
(492,978,o),
(429,978,cs)
);
},
{
closed = 1;
nodes = (
(924,0,o),
(1026,142,o),
(1058,322,cs),
(1091,508,o),
(1033,652,o),
(862,652,cs),
(695,652,o),
(594,506,o),
(562,326,cs),
(529,134,o),
(596,0,o),
(763,0,cs)
);
},
{
closed = 1;
nodes = (
(713,156,o),
(695,206,o),
(714,314,cs),
(735,432,o),
(788,498,o),
(853,498,cs),
(906,498,o),
(924,448,o),
(907,350,cs),
(885,226,o),
(833,156,o),
(770,156,cs)
);
}
);
width = 1200;
},
{
hints = (
{
horizontal = 1;
options = 4;
origin = (0,3);
stem = -1;
type = TTSnap;
},
{
horizontal = 1;
options = 4;
origin = (4,5);
target = (3,5);
type = TTStem;
},
{
horizontal = 1;
options = 4;
origin = (2,11);
target = (1,11);
type = TTStem;
},
{
horizontal = 1;
options = 4;
origin = (0,2);
stem = -1;
type = TTSnap;
},
{
horizontal = 1;
options = 4;
origin = (1,5);
target = (2,5);
type = TTStem;
},
{
horizontal = 1;
options = 4;
origin = (3,11);
target = (4,11);
type = TTStem;
}
);
layerId = "F48F13AC-C425-4574-8B52-7DBCB7751002";
shapes = (
{
closed = 1;
nodes = (
(237,0,l),
(1198,1450,l),
(993,1450,l),
(31,0,l)
);
},
{
closed = 1;
nodes = (
(540,810,o),
(652,933,o),
(687,1134,cs),
(725,1351,o),
(643,1486,o),
(473,1486,cs),
(321,1486,o),
(207,1363,o),
(171,1158,cs),
(134,945,o),
(218,810,o),
(390,810,cs)
);
},
{
closed = 1;
nodes = (
(354,1028,o),
(347,1057,o),
(360,1126,cs),
(376,1217,o),
(419,1270,o),
(473,1270,cs),
(503,1270,o),
(510,1241,o),
(499,1178,cs),
(482,1085,o),
(438,1028,o),
(388,1028,cs)
);
},
{
closed = 1;
nodes = (
(939,10,o),
(1050,133,o),
(1086,334,cs),
(1124,551,o),
(1042,686,o),
(872,686,cs),
(720,686,o),
(606,563,o),
(570,358,cs),
(533,145,o),
(617,10,o),
(789,10,cs)
);
},
{
closed = 1;
nodes = (
(747,214,o),
(737,247,o),
(750,326,cs),
(768,425,o),
(816,484,o),
(875,484,cs),
(908,484,o),
(919,451,o),
(906,380,cs),
(888,277,o),
(841,214,o),
(785,214,cs)
);
}
);
width = 1200;
},
{
hints = (
{
horizontal = 1;
options = 4;
origin = (0,3);
stem = -1;
type = TTSnap;
},
{
horizontal = 1;
options = 4;
origin = (4,5);
target = (3,5);
type = TTStem;
},
{
horizontal = 1;
options = 4;
origin = (1,11);
target = (2,11);
type = TTStem;
},
{
horizontal = 1;
options = 4;
origin = (1,5);
target = (2,5);
type = TTStem;
},
{
horizontal = 1;
options = 4;
origin = (0,2);
stem = -1;
type = TTSnap;
},
{
horizontal = 1;
options = 4;
origin = (3,11);
target = (4,11);
type = TTStem;
},
{
horizontal = 1;
place = (563, 98);
type = TTStem;
},
{
horizontal = 1;
place = (920, 99.167);
type = TTStem;
},
{
horizontal = 1;
place = (1553, 96.833);
type = TTStem;
},
{
horizontal = 1;
origin = (3,11);
target = (4,11);
type = TTStem;
},
{
horizontal = 1;
options = 4;
origin = (0,2);
target = (0,1);
type = TTStem;
}
);
layerId = "4FB9B80E-81B5-47C9-A539-BB7C5ADDFB58";
shapes = (
{
closed = 1;
nodes = (
(194,-16,l),
(1150,1450,l),
(995,1450,l),
(53,-16,l)
);
},
{
closed = 1;
nodes = (
(555,806,o),
(669,967,o),
(695,1145,cs),
(725,1325,o),
(672,1470,o),
(500,1470,cs),
(332,1470,o),
(236,1321,o),
(209,1143,cs),
(178,955,o),
(225,806,o),
(391,806,cs)
);
},
{
closed = 1;
nodes = (
(356,968,o),
(333,1021,o),
(350,1137,cs),
(371,1259,o),
(425,1326,o),
(491,1326,cs),
(549,1326,o),
(572,1273,o),
(557,1167,cs),
(535,1039,o),
(482,968,o),
(416,968,cs)
);
},
{
closed = 1;
nodes = (
(925,0,o),
(1022,145,o),
(1049,323,cs),
(1079,503,o),
(1024,648,o),
(853,648,cs),
(684,648,o),
(589,497,o),
(563,321,cs),
(532,133,o),
(597,0,o),
(763,0,cs)
);
},
{
closed = 1;
nodes = (
(710,148,o),
(687,201,o),
(704,315,cs),
(724,435,o),
(778,502,o),
(844,502,cs),
(900,502,o),
(924,449,o),
(909,345,cs),
(887,219,o),
(834,148,o),
(770,148,cs)
);
}
);
width = 1200;
},
{
hints = (
{
horizontal = 1;
options = 4;
origin = (0,3);
stem = -1;
type = TTSnap;
},
{
horizontal = 1;
options = 4;
origin = (4,5);
target = (3,5);
type = TTStem;
},
{
horizontal = 1;
options = 4;
origin = (1,11);
target = (2,11);
type = TTStem;
},
{
horizontal = 1;
options = 4;
origin = (1,5);
target = (2,5);
type = TTStem;
},
{
horizontal = 1;
options = 4;
origin = (0,2);
stem = -1;
type = TTSnap;
},
{
horizontal = 1;
options = 4;
origin = (3,11);
target = (4,11);
type = TTStem;
},
{
horizontal = 1;
place = (-85, 42.5);
type = TTStem;
},
{
horizontal = 1;
place = (186, 42);
type = TTStem;
},
{
horizontal = 1;
place = (339, 42.5);
type = TTStem;
},
{
horizontal = 1;
place = (610, 41.5);
type = TTStem;
}
);
layerId = "92EF81BF-A460-40B9-8F71-75F6CAA5A9CA";
shapes = (
{
closed = 1;
nodes = (
(218,-8,l),
(1189,1450,l),
(1006,1450,l),
(41,-8,l)
);
},
{
closed = 1;
nodes = (
(553,810,o),
(668,949,o),
(702,1139,cs),
(738,1341,o),
(668,1480,o),
(497,1480,cs),
(338,1480,o),
(230,1347,o),
(196,1153,cs),
(161,951,o),
(229,810,o),
(399,810,cs)
);
},
{
closed = 1;
nodes = (
(364,1004,o),
(351,1043,o),
(366,1131,cs),
(385,1235,o),
(433,1296,o),
(493,1296,cs),
(535,1296,o),
(547,1257,o),
(532,1175,cs),
(513,1067,o),
(466,1004,o),
(409,1004,cs)
);
},
{
closed = 1;
nodes = (
(932,6,o),
(1039,137,o),
(1073,329,cs),
(1108,529,o),
(1038,670,o),
(868,670,cs),
(708,670,o),
(601,535,o),
(568,343,cs),
(532,141,o),
(608,6,o),
(777,6,cs)
);
},
{
closed = 1;
nodes = (
(730,186,o),
(717,227,o),
(734,321,cs),
(753,429,o),
(803,492,o),
(865,492,cs),
(907,492,o),
(922,451,o),
(907,365,cs),
(888,253,o),
(838,186,o),
(779,186,cs)
);
}
);
width = 1200;
}
);
note = percent;
unicode = 37;
}
{
glyphname = ampersand;
layers = (
{
hints = (
{
horizontal = 1;
options = 4;
origin = (0,41);
target = (1,11);
type = TTStem;
},
{
horizontal = 1;
options = 4;
origin = (2,6);
target = (0,26);
type = TTStem;
},
{
horizontal = 1;
place = (-95, 74);
type = TTStem;
},
{
horizontal = 1;
place = (609, 68);
type = TTStem;
},
{
horizontal = 1;
place = (1237, 73);
type = TTStem;
}
);
layerId = "63BE41E3-0F49-4E61-A903-F52A2E952C90";
shapes = (
{
closed = 1;
nodes = (
(551,-24,o,{
stroke = {
w = "1";
};
}),
(707,43,o,{
stroke = {
w = "1";
};
}),
(825,152,c,{
stroke = {
w = "1";
};
}),
(768,156,l,{
stroke = {
w = "1";
};
}),
(883,-10,l,{
stroke = {
w = "1";
};
}),
(1061,-10,l,{
stroke = {
w = "1";
};
}),
(873,288,l,{
stroke = {
w = "1";
};
}),
(887,205,l,{
stroke = {
w = "1";
};
}),
(947,279,o,{
stroke = {
w = "1";
};
}),
(1000,360,o,{
stroke = {
w = "1";
};
}),
(1036,450,cs,{
stroke = {
w = "1";
};
}),
(1051,494,o,{
stroke = {
w = "1";
};
}),
(1082,574,o,{
stroke = {
w = "1";
};
}),
(1099,670,c,{
stroke = {
w = "1";
};
}),
(955,682,l,{
stroke = {
w = "1";
};
}),
(935,578,o,{
stroke = {
w = "1";
};
}),
(881,417,o,{
stroke = {
w = "1";
};
}),
(812,341,c,{
stroke = {
w = "1";
};
}),
(849,310,l,{
stroke = {
w = "1";
};
}),
(553,814,l,{
stroke = {
w = "1";
};
}),
(553,731,l,{
stroke = {
w = "1";
};
}),
(809,843,o,{
stroke = {
w = "1";
};
}),
(955,931,o,{
stroke = {
w = "1";
};
}),
(989,1121,cs,{
stroke = {
w = "1";
};
}),
(1025,1325,o,{
stroke = {
w = "1";
};
}),
(907,1460,o,{
stroke = {
w = "1";
};
}),
(683,1460,cs,{
stroke = {
w = "1";
};
}),
(637,1460,o,{
stroke = {
w = "1";
};
}),
(589,1455,o,{
stroke = {
w = "1";
};
}),
(538,1440,cs,{
stroke = {
w = "1";
};
}),
(404,1388,o,{
stroke = {
w = "1";
};
}),
(308,1266,o,{
stroke = {
w = "1";
};
}),
(284,1129,cs,{
stroke = {
w = "1";
};
}),
(262,1004,o,{
stroke = {
w = "1";
};
}),
(299,884,o,{
stroke = {
w = "1";
};
}),
(356,786,c,{
stroke = {
w = "1";
};
}),
(160,679,o,{
stroke = {
w = "1";
};
}),
(57,555,o,{
stroke = {
w = "1";
};
}),
(26,382,cs,{
stroke = {
w = "1";
};
}),
(-18,132,o,{
stroke = {
w = "1";
};
}),
(119,-24,o,{
stroke = {
w = "1";
};
}),
(380,-24,cs,{
stroke = {
w = "1";
};
})
);
},
{
closed = 1;
nodes = (
(248,104,o,{
stroke = {
w = "1";
};
}),
(155,190,o,{
stroke = {
w = "1";
};
}),
(183,352,cs,{
stroke = {
w = "1";
};
}),
(211,511,o,{
stroke = {
w = "1";
};
}),
(331,627,o,{
stroke = {
w = "1";
};
}),
(495,711,c,{
stroke = {
w = "1";
};
}),
(393,750,l,{
stroke = {
w = "1";
};
}),
(749,182,l,{
stroke = {
w = "1";
};
}),
(765,263,l,{
stroke = {
w = "1";
};
}),
(670,157,o,{
stroke = {
w = "1";
};
}),
(536,104,o,{
stroke = {
w = "1";
};
}),
(410,104,cs,{
stroke = {
w = "1";
};
})
);
},
{
closed = 1;
nodes = (
(474,919,ls,{
stroke = {
w = "1";
};
}),
(444,969,o,{
stroke = {
w = "1";
};
}),
(432,1038,o,{
stroke = {
w = "1";
};
}),
(444,1103,cs,{
stroke = {
w = "1";
};
}),
(467,1235,o,{
stroke = {
w = "1";
};
}),
(572,1320,o,{
stroke = {
w = "1";
};
}),
(697,1320,cs,{
stroke = {
w = "1";
};
}),
(787,1320,o,{
stroke = {
w = "1";
};
}),
(858,1276,o,{
stroke = {
w = "1";
};
}),
(838,1165,cs,{
stroke = {
w = "1";
};
}),
(809,998,o,{
stroke = {
w = "1";
};
}),
(626,887,o,{
stroke = {
w = "1";
};
}),
(455,830,c,{
stroke = {
w = "1";
};
}),
(569,780,l,{
stroke = {
w = "1";
};
})
);
}
);
width = 1200;
},
{
hints = (
{
horizontal = 1;
options = 4;
origin = (0,41);
target = (1,11);
type = TTStem;
},
{
horizontal = 1;
options = 4;
origin = (2,6);
target = (0,26);
type = TTStem;
}
);
layerId = "F48F13AC-C425-4574-8B52-7DBCB7751002";
shapes = (
{
closed = 1;
nodes = (
(584,-16,o),
(746,36,o),
(863,146,c),
(743,150,l),
(828,-4,l),
(1084,-4,l),
(910,296,l),
(931,201,l),
(1024,315,o),
(1063,372,o),
(1097,450,cs),
(1121,522,o),
(1141,602,o),
(1157,691,c),
(919,713,l),
(900,604,o),
(858,493,o),
(788,415,c),
(895,326,l),
(627,764,l),
(646,668,l),
(911,804,o),
(1027,932,o),
(1056,1096,cs),
(1101,1347,o),
(912,1470,o),
(718,1470,cs),
(610,1470,o),
(538,1455,o),
(467,1425,cs),
(360,1353,o),
(280,1241,o),
(261,1132,cs),
(236,993,o),
(300,887,o),
(351,795,c),
(165,692,o),
(78,573,o),
(50,414,cs),
(2,140,o),
(165,-16,o),
(436,-16,c)
);
},
{
closed = 1;
nodes = (
(366,222,o),
(305,282,o),
(325,396,cs),
(346,518,o),
(426,555,o),
(538,611,c),
(409,664,l),
(711,174,l),
(687,338,l),
(647,284,o),
(594,222,o),
(486,222,c)
);
},
{
closed = 1;
nodes = (
(527,937,ls),
(499,997,o),
(507,1068,o),
(512,1097,cs),
(532,1210,o),
(618,1274,o),
(715,1274,cs),
(786,1274,o),
(835,1238,o),
(821,1157,cs),
(797,1021,o),
(650,931,o),
(501,857,c),
(612,802,l)
);
}
);
width = 1200;
},
{
hints = (
{
horizontal = 1;
options = 4;
origin = (0,41);
target = (1,11);
type = TTStem;
},
{
horizontal = 1;
options = 4;
origin = (2,6);
target = (0,26);
type = TTStem;
}
);
layerId = "4FB9B80E-81B5-47C9-A539-BB7C5ADDFB58";
shapes = (
{
closed = 1;
nodes = (
(554,-26,o,{
stroke = {
w = "1";
};
}),
(704,33,o,{
stroke = {
w = "1";
};
}),
(822,143,c,{
stroke = {
w = "1";
};
}),
(773,158,l,{
stroke = {
w = "1";
};
}),
(897,-12,l,{
stroke = {
w = "1";
};
}),
(1061,-12,l,{
stroke = {
w = "1";
};
}),
(866,286,l,{
stroke = {
w = "1";
};
}),
(886,203,l,{
stroke = {
w = "1";
};
}),
(946,280,o,{
stroke = {
w = "1";
};
}),
(989,361,o,{
stroke = {
w = "1";
};
}),
(1022,450,cs,{
stroke = {
w = "1";
};
}),
(1037,493,o,{
stroke = {
w = "1";
};
}),
(1066,571,o,{
stroke = {
w = "1";
};
}),
(1081,667,c,{
stroke = {
w = "1";
};
}),
(955,677,l,{
stroke = {
w = "1";
};
}),
(937,573,o,{
stroke = {
w = "1";
};
}),
(883,404,o,{
stroke = {
w = "1";
};
}),
(815,328,c,{
stroke = {
w = "1";
};
}),
(840,312,l,{
stroke = {
w = "1";
};
}),
(539,792,l,{
stroke = {
w = "1";
};
}),
(527,736,l,{
stroke = {
w = "1";
};
}),
(780,844,o,{
stroke = {
w = "1";
};
}),
(945,939,o,{
stroke = {
w = "1";
};
}),
(974,1133,cs,{
stroke = {
w = "1";
};
}),
(1007,1331,o,{
stroke = {
w = "1";
};
}),
(877,1458,o,{
stroke = {
w = "1";
};
}),
(661,1458,cs,{
stroke = {
w = "1";
};
}),
(623,1458,o,{
stroke = {
w = "1";
};
}),
(575,1455,o,{
stroke = {
w = "1";
};
}),
(526,1441,cs,{
stroke = {
w = "1";
};
}),
(391,1395,o,{
stroke = {
w = "1";
};
}),
(278,1274,o,{
stroke = {
w = "1";
};
}),
(257,1132,cs,{
stroke = {
w = "1";
};
}),
(235,1002,o,{
stroke = {
w = "1";
};
}),
(293,893,o,{
stroke = {
w = "1";
};
}),
(354,794,c,{
stroke = {
w = "1";
};
}),
(160,693,o,{
stroke = {
w = "1";
};
}),
(50,551,o,{
stroke = {
w = "1";
};
}),
(23,373,cs,{
stroke = {
w = "1";
};
}),
(-17,127,o,{
stroke = {
w = "1";
};
}),
(124,-26,o,{
stroke = {
w = "1";
};
}),
(388,-26,cs,{
stroke = {
w = "1";
};
})
);
},
{
closed = 1;
nodes = (
(234,101,o,{
stroke = {
w = "1";
};
}),
(130,183,o,{
stroke = {
w = "1";
};
}),
(156,354,cs,{
stroke = {
w = "1";
};
}),
(184,520,o,{
stroke = {
w = "1";
};
}),
(310,640,o,{
stroke = {
w = "1";
};
}),
(476,722,c,{
stroke = {
w = "1";
};
}),
(382,741,l,{
stroke = {
w = "1";
};
}),
(755,184,l,{
stroke = {
w = "1";
};
}),
(765,257,l,{
stroke = {
w = "1";
};
}),
(666,143,o,{
stroke = {
w = "1";
};
}),
(531,101,o,{
stroke = {
w = "1";
};
}),
(409,101,cs,{
stroke = {
w = "1";
};
})
);
},
{
closed = 1;
nodes = (
(453,917,ls,{
stroke = {
w = "1";
};
}),
(412,979,o,{
stroke = {
w = "1";
};
}),
(396,1045,o,{
stroke = {
w = "1";
};
}),
(405,1111,cs,{
stroke = {
w = "1";
};
}),
(425,1231,o,{
stroke = {
w = "1";
};
}),
(526,1328,o,{
stroke = {
w = "1";
};
}),
(658,1328,cs,{
stroke = {
w = "1";
};
}),
(753,1328,o,{
stroke = {
w = "1";
};
}),
(843,1278,o,{
stroke = {
w = "1";
};
}),
(825,1157,cs,{
stroke = {
w = "1";
};
}),
(797,988,o,{
stroke = {
w = "1";
};
}),
(596,867,o,{
stroke = {
w = "1";
};
}),
(438,832,c,{
stroke = {
w = "1";
};
}),
(525,822,l,{
stroke = {
w = "1";
};
})
);
}
);
width = 1200;
},
{
hints = (
{
horizontal = 1;
options = 4;
origin = (0,41);
target = (1,11);
type = TTStem;
},
{
horizontal = 1;
options = 4;
origin = (2,6);
target = (0,26);
type = TTStem;
},
{
horizontal = 1;
place = (-96, 37);
type = TTStem;
},
{
horizontal = 1;
place = (256, 34);
type = TTStem;
},
{
horizontal = 1;
place = (570, 36.5);
type = TTStem;
}
);
layerId = "92EF81BF-A460-40B9-8F71-75F6CAA5A9CA";
shapes = (
{
closed = 1;
nodes = (
(564,-20,o,{
stroke = {
w = "1";
};
}),
(723,37,o,{
stroke = {
w = "1";
};
}),
(844,150,c,{
stroke = {
w = "1";
};
}),
(757,154,l,{
stroke = {
w = "1";
};
}),
(857,-8,l,{
stroke = {
w = "1";
};
}),
(1073,-8,l,{
stroke = {
w = "1";
};
}),
(892,292,l,{
stroke = {
w = "1";
};
}),
(909,203,l,{
stroke = {
w = "1";
};
}),
(985,299,o,{
stroke = {
w = "1";
};
}),
(1027,356,o,{
stroke = {
w = "1";
};
}),
(1067,453,cs,{
stroke = {
w = "1";
};
}),
(1082,497,o,{
stroke = {
w = "1";
};
}),
(1112,583,o,{
stroke = {
w = "1";
};
}),
(1129,681,c,{
stroke = {
w = "1";
};
}),
(938,699,l,{
stroke = {
w = "1";
};
}),
(917,593,o,{
stroke = {
w = "1";
};
}),
(871,455,o,{
stroke = {
w = "1";
};
}),
(801,379,c,{
stroke = {
w = "1";
};
}),
(872,318,l,{
stroke = {
w = "1";
};
}),
(591,790,l,{
stroke = {
w = "1";
};
}),
(601,700,l,{
stroke = {
w = "1";
};
}),
(859,823,o,{
stroke = {
w = "1";
};
}),
(991,930,o,{
stroke = {
w = "1";
};
}),
(1023,1110,cs,{
stroke = {
w = "1";
};
}),
(1062,1332,o,{
stroke = {
w = "1";
};
}),
(922,1468,o,{
stroke = {
w = "1";
};
}),
(697,1468,cs,{
stroke = {
w = "1";
};
}),
(636,1468,o,{
stroke = {
w = "1";
};
}),
(574,1460,o,{
stroke = {
w = "1";
};
}),
(500,1432,cs,{
stroke = {
w = "1";
};
}),
(387,1371,o,{
stroke = {
w = "1";
};
}),
(296,1263,o,{
stroke = {
w = "1";
};
}),
(273,1133,cs,{
stroke = {
w = "1";
};
}),
(249,997,o,{
stroke = {
w = "1";
};
}),
(301,883,o,{
stroke = {
w = "1";
};
}),
(355,791,c,{
stroke = {
w = "1";
};
}),
(159,684,o,{
stroke = {
w = "1";
};
}),
(68,559,o,{
stroke = {
w = "1";
};
}),
(39,398,cs,{
stroke = {
w = "1";
};
}),
(-7,138,o,{
stroke = {
w = "1";
};
}),
(142,-20,o,{
stroke = {
w = "1";
};
}),
(406,-20,cs,{
stroke = {
w = "1";
};
})
);
},
{
closed = 1;
nodes = (
(307,164,o,{
stroke = {
w = "1";
};
}),
(231,238,o,{
stroke = {
w = "1";
};
}),
(255,374,cs,{
stroke = {
w = "1";
};
}),
(280,515,o,{
stroke = {
w = "1";
};
}),
(382,594,o,{
stroke = {
w = "1";
};
}),
(516,662,c,{
stroke = {
w = "1";
};
}),
(402,708,l,{
stroke = {
w = "1";
};
}),
(730,178,l,{
stroke = {
w = "1";
};
}),
(727,301,l,{
stroke = {
w = "1";
};
}),
(658,221,o,{
stroke = {
w = "1";
};
}),
(567,164,o,{
stroke = {
w = "1";
};
}),
(446,164,cs,{
stroke = {
w = "1";
};
})
);
},
{
closed = 1;
nodes = (
(501,929,ls,{
stroke = {
w = "1";
};
}),
(470,988,o,{
stroke = {
w = "1";
};
}),
(472,1060,o,{
stroke = {
w = "1";
};
}),
(479,1103,cs,{
stroke = {
w = "1";
};
}),
(501,1224,o,{
stroke = {
w = "1";
};
}),
(598,1298,o,{
stroke = {
w = "1";
};
}),
(706,1298,cs,{
stroke = {
w = "1";
};
}),
(788,1298,o,{
stroke = {
w = "1";
};
}),
(847,1257,o,{
stroke = {
w = "1";
};
}),
(830,1161,cs,{
stroke = {
w = "1";
};
}),
(802,1005,o,{
stroke = {
w = "1";
};
}),
(628,906,o,{
stroke = {
w = "1";
};
}),
(479,844,c,{
stroke = {
w = "1";
};
}),
(591,792,l,{
stroke = {
w = "1";
};
})
);
}
);
width = 1200;
}
);
note = ampersand;
unicode = 38;
}
{
glyphname = quotesingle;
layers = (
{
layerId = "63BE41E3-0F49-4E61-A903-F52A2E952C90";
shapes = (
{
closed = 1;
nodes = (
(767,928,l),
(929,1630,l),
(655,1630,l),
(573,928,l)
);
}
);
width = 1200;
},
{
hints = (
{
horizontal = 1;
origin = (0,3);
type = TTSnap;
},
{
horizontal = 1;
origin = (0,2);
type = TTSnap;
}
);
layerId = "F48F13AC-C425-4574-8B52-7DBCB7751002";
shapes = (
{
closed = 1;
nodes = (
(792,928,l),
(991,1630,l),
(594,1630,l),
(550,928,l)
);
}
);
width = 1200;
},
{
layerId = "4FB9B80E-81B5-47C9-A539-BB7C5ADDFB58";
shapes = (
{
closed = 1;
nodes = (
(755,928,l),
(898,1630,l),
(645,1630,l),
(570,928,l)
);
}
);
width = 1200;
},
{
layerId = "92EF81BF-A460-40B9-8F71-75F6CAA5A9CA";
shapes = (
{
closed = 1;
nodes = (
(779,928,l),
(961,1630,l),
(625,1630,l),
(561,928,l)
);
}
);
width = 1200;
}
);
note = quotesingle;
unicode = 39;
}
{
glyphname = parenleft;
layers = (
{
background = {
hints = (
{
horizontal = 1;
options = 4;
origin = (0,13);
type = TTSnap;
},
{
options = 4;
origin = (0,10);
target = (0,3);
type = TTStem;
}
);
shapes = (
{
closed = 1;
nodes = (
(764,-491,l),
(599,-177,o),
(514,232,o),
(570,552,cs),
(637,928,o),
(848,1317,o),
(1151,1671,c),
(1002,1671,l),
(678,1327,o),
(436,904,o),
(371,534,cs),
(304,156,o),
(438,-155,o),
(625,-491,c)
);
}
);
};
hints = (
{
horizontal = 1;
options = 4;
origin = (0,13);
type = TTSnap;
},
{
options = 4;
origin = (0,10);
target = (0,3);
type = TTStem;
}
);
layerId = "63BE41E3-0F49-4E61-A903-F52A2E952C90";
shapes = (
{
closed = 1;
nodes = (
(764,-491,l),
(599,-177,o),
(514,232,o),
(570,552,cs),
(637,928,o),
(848,1317,o),
(1151,1671,c),
(1002,1671,l),
(678,1327,o),
(436,904,o),
(371,534,cs),
(304,156,o),
(438,-155,o),
(625,-491,c)
);
}
);
width = 1200;
},
{
background = {
hints = (
{
horizontal = 1;
options = 4;
origin = (0,13);
stem = -1;
type = TTSnap;
}
);
shapes = (
{
closed = 1;
nodes = (
(850,-495,l),
(685,-181,o),
(603,227,o),
(659,542,c),
(726,923,o),
(940,1313,o),
(1243,1667,c),
(990,1667,l),
(665,1323,o),
(427,901,o),
(363,536,c),
(295,153,o),
(432,-159,o),
(619,-495,c)
);
}
);
};
hints = (
{
horizontal = 1;
options = 4;
origin = (0,13);
stem = -1;
type = TTSnap;
}
);
layerId = "F48F13AC-C425-4574-8B52-7DBCB7751002";
shapes = (
{
closed = 1;
nodes = (
(850,-495,l),
(685,-181,o),
(603,227,o),
(659,542,cs),
(726,923,o),
(940,1313,o),
(1243,1667,c),
(990,1667,l),
(665,1323,o),
(427,901,o),
(363,536,cs),
(295,153,o),
(432,-159,o),
(619,-495,c)
);
}
);
width = 1200;
},
{
background = {
hints = (
{
horizontal = 1;
options = 4;
origin = (0,13);
stem = -1;
type = TTSnap;
}
);
shapes = (
{
closed = 1;
nodes = (
(705,-489,l),
(534,-175,o),
(437,233,o),
(487,555,cs),
(548,929,o),
(756,1318,o),
(1052,1672,c),
(938,1672,l),
(620,1328,o),
(386,905,o),
(329,533,cs),
(268,157,o),
(406,-153,o),
(599,-489,c)
);
}
);
};
hints = (
{
horizontal = 1;
options = 4;
origin = (0,13);
stem = -1;
type = TTSnap;
}
);
layerId = "4FB9B80E-81B5-47C9-A539-BB7C5ADDFB58";
shapes = (
{
closed = 1;
nodes = (
(705,-489,l),
(534,-175,o),
(437,233,o),
(487,555,cs),
(548,929,o),
(756,1318,o),
(1052,1672,c),
(938,1672,l),
(620,1328,o),
(386,905,o),
(329,533,cs),
(268,157,o),
(406,-153,o),
(599,-489,c)
);
}
);
width = 1200;
},
{
background = {
hints = (
{
horizontal = 1;
options = 4;
origin = (0,13);
type = TTSnap;
},
{
options = 4;
origin = (0,10);
target = (0,3);
type = TTStem;
}
);
shapes = (
{
closed = 1;
nodes = (
(808,-493,l),
(643,-179,o),
(559,229,o),
(615,547,cs),
(682,925,o),
(895,1315,o),
(1198,1669,c),
(997,1669,l),
(672,1325,o),
(433,903,o),
(368,535,cs),
(301,155,o),
(436,-157,o),
(623,-493,c)
);
}
);
};
hints = (
{
horizontal = 1;
options = 4;
origin = (0,13);
type = TTSnap;
},
{
options = 4;
origin = (0,10);
target = (0,3);
type = TTStem;
}
);
layerId = "92EF81BF-A460-40B9-8F71-75F6CAA5A9CA";
shapes = (
{
closed = 1;
nodes = (
(808,-493,l),
(643,-179,o),
(559,229,o),
(615,547,cs),
(682,925,o),
(895,1315,o),
(1198,1669,c),
(997,1669,l),
(672,1325,o),
(433,903,o),
(368,535,cs),
(301,155,o),
(436,-157,o),
(623,-493,c)
);
}
);
width = 1200;
}
);
note = parenleft;
unicode = 40;
}
{
glyphname = parenright;
layers = (
{
hints = (
{
horizontal = 1;
options = 4;
origin = (0,13);
type = TTSnap;
},
{
options = 4;
origin = (0,2);
target = (0,9);
type = TTStem;
}
);
layerId = "63BE41E3-0F49-4E61-A903-F52A2E952C90";
shapes = (
{
closed = 1;
nodes = (
(582,-145,o),
(819,154,o),
(881,521,cs),
(950,902,o),
(853,1336,o),
(650,1680,c),
(515,1680,l),
(693,1326,o),
(762,940,o),
(701,575,cs),
(640,244,o),
(404,-167,o),
(128,-481,c),
(276,-481,l)
);
}
);
width = 1200;
},
{
hints = (
{
horizontal = 1;
options = 4;
origin = (0,13);
stem = -1;
type = TTSnap;
}
);
layerId = "F48F13AC-C425-4574-8B52-7DBCB7751002";
shapes = (
{
closed = 1;
nodes = (
(552,-140,o),
(786,169,o),
(845,530,cs),
(918,917,o),
(818,1341,o),
(615,1685,c),
(390,1685,l),
(568,1331,o),
(635,945,o),
(575,586,cs),
(513,249,o),
(274,-162,o),
(-2,-476,c),
(247,-476,l)
);
}
);
width = 1200;
},
{
hints = (
{
horizontal = 1;
options = 4;
origin = (0,13);
stem = -1;
type = TTSnap;
}
);
layerId = "4FB9B80E-81B5-47C9-A539-BB7C5ADDFB58";
shapes = (
{
closed = 1;
nodes = (
(587,-148,o),
(831,162,o),
(903,523,cs),
(991,910,o),
(906,1331,o),
(716,1675,c),
(623,1683,l),
(788,1329,o),
(846,944,o),
(776,585,cs),
(700,248,o),
(443,-162,o),
(155,-476,c),
(269,-484,l)
);
}
);
width = 1200;
},
{
hints = (
{
horizontal = 1;
options = 4;
origin = (0,13);
type = TTSnap;
},
{
options = 4;
origin = (0,2);
target = (0,9);
type = TTStem;
}
);
layerId = "92EF81BF-A460-40B9-8F71-75F6CAA5A9CA";
shapes = (
{
closed = 1;
nodes = (
(566,-142,o),
(801,168,o),
(862,530,cs),
(933,916,o),
(835,1339,o),
(631,1683,c),
(451,1683,l),
(630,1329,o),
(698,942,o),
(638,582,cs),
(576,246,o),
(338,-164,o),
(62,-478,c),
(260,-478,l)
);
}
);
width = 1200;
}
);
note = parenright;
unicode = 41;
}
{
glyphname = asterisk;
layers = (
{
hints = (
{
horizontal = 1;
options = 4;
place = (648, 100);
type = TTStem;
}
);
layerId = "63BE41E3-0F49-4E61-A903-F52A2E952C90";
shapes = (
{
closed = 1;
nodes = (
(630,431,l),
(571,431,l),
(784,24,l),
(966,129,l),
(713,489,l),
(765,466,l),
(1142,466,l),
(1142,635,l),
(766,635,l),
(713,613,l),
(966,972,l),
(784,1077,l),
(571,671,l),
(630,671,l),
(417,1077,l),
(235,972,l),
(488,613,l),
(435,635,l),
(59,635,l),
(59,466,l),
(435,466,l),
(488,489,l),
(235,129,l),
(417,24,l)
);
}
);
width = 1200;
},
{
hints = (
{
horizontal = 1;
options = 4;
place = (422, 128);
type = TTStem;
},
{
horizontal = 1;
options = 4;
place = (1080, 0);
stem = -1;
type = TTSnap;
}
);
layerId = "F48F13AC-C425-4574-8B52-7DBCB7751002";
shapes = (
{
closed = 1;
nodes = (
(636,430,l),
(565,430,l),
(779,-13,l),
(1013,119,l),
(749,473,l),
(802,432,l),
(1146,432,l),
(1146,670,l),
(804,670,l),
(749,629,l),
(1013,982,l),
(779,1114,l),
(565,671,l),
(636,671,l),
(421,1114,l),
(188,982,l),
(452,629,l),
(396,670,l),
(54,670,l),
(54,432,l),
(398,432,l),
(452,473,l),
(188,119,l),
(421,-13,l)
);
}
);
width = 1200;
},
{
hints = (
{
horizontal = 1;
options = 4;
place = (464, 180);
type = TTStem;
}
);
layerId = "4FB9B80E-81B5-47C9-A539-BB7C5ADDFB58";
shapes = (
{
closed = 1;
nodes = (
(620,461,l),
(581,461,l),
(792,23,l),
(962,121,l),
(699,494,l),
(751,463,l),
(1153,463,l),
(1153,637,l),
(751,637,l),
(698,608,l),
(962,980,l),
(792,1078,l),
(581,641,l),
(620,641,l),
(409,1078,l),
(239,980,l),
(503,608,l),
(450,637,l),
(48,637,l),
(48,463,l),
(448,463,l),
(502,494,l),
(239,121,l),
(409,23,l)
);
}
);
width = 1200;
},
{
hints = (
{
horizontal = 1;
options = 4;
place = (660, 110);
type = TTStem;
}
);
layerId = "92EF81BF-A460-40B9-8F71-75F6CAA5A9CA";
shapes = (
{
closed = 1;
nodes = (
(636,425,l),
(564,425,l),
(783,0,l),
(986,118,l),
(733,481,l),
(799,451,l),
(1155,451,l),
(1155,650,l),
(800,650,l),
(733,621,l),
(986,983,l),
(783,1101,l),
(564,676,l),
(636,676,l),
(417,1101,l),
(214,983,l),
(467,621,l),
(400,650,l),
(45,650,l),
(45,451,l),
(401,451,l),
(467,481,l),
(214,118,l),
(417,0,l)
);
}
);
width = 1200;
}
);
note = asterisk;
unicode = 42;
}
{
glyphname = plus;
layers = (
{
hints = (
{
horizontal = 1;
options = 4;
origin = (0,8);
target = (0,9);
type = TTStem;
},
{
options = 4;
origin = (0,11);
target = (0,0);
type = TTStem;
}
);
layerId = "63BE41E3-0F49-4E61-A903-F52A2E952C90";
shapes = (
{
closed = 1;
nodes = (
(622,72,l),
(689,452,l),
(1047,452,l),
(1081,644,l),
(723,644,l),
(790,1026,l),
(576,1026,l),
(509,644,l),
(151,644,l),
(117,452,l),
(475,452,l),
(408,72,l)
);
}
);
width = 1200;
},
{
hints = (
{
horizontal = 1;
options = 4;
origin = (0,9);
target = (0,8);
type = TTStem;
}
);
layerId = "F48F13AC-C425-4574-8B52-7DBCB7751002";
shapes = (
{
closed = 1;
nodes = (
(647,24,l),
(716,416,l),
(1088,416,l),
(1135,680,l),
(763,680,l),
(833,1080,l),
(551,1080,l),
(481,680,l),
(109,680,l),
(62,416,l),
(434,416,l),
(365,24,l)
);
}
);
width = 1200;
},
{
hints = (
{
horizontal = 1;
options = 4;
origin = (0,9);
target = (0,8);
type = TTStem;
},
{
horizontal = 1;
options = 4;
origin = (0,6);
stem = -1;
type = TTSnap;
}
);
layerId = "4FB9B80E-81B5-47C9-A539-BB7C5ADDFB58";
shapes = (
{
closed = 1;
nodes = (
(620,80,l),
(680,460,l),
(1042,460,l),
(1071,640,l),
(709,640,l),
(769,1018,l),
(580,1018,l),
(520,640,l),
(158,640,l),
(129,460,l),
(491,460,l),
(431,80,l)
);
}
);
width = 1200;
},
{
hints = (
{
horizontal = 1;
options = 4;
origin = (0,8);
target = (0,9);
type = TTStem;
},
{
options = 4;
origin = (0,11);
target = (0,0);
type = TTStem;
}
);
layerId = "92EF81BF-A460-40B9-8F71-75F6CAA5A9CA";
shapes = (
{
closed = 1;
nodes = (
(635,48,l),
(703,432,l),
(1067,432,l),
(1108,664,l),
(744,664,l),
(813,1054,l),
(565,1054,l),
(496,664,l),
(130,664,l),
(89,432,l),
(455,432,l),
(387,48,l)
);
}
);
width = 1200;
}
);
note = plus;
unicode = 43;
}
{
glyphname = comma;
layers = (
{
hints = (
{
horizontal = 1;
options = 4;
place = (-373, 42);
type = TTStem;
},
{
horizontal = 1;
options = 4;
origin = (0,2);
target = (0,30);
type = TTStem;
},
{
horizontal = 1;
origin = (0,20);
target = (0,14);
type = TTStem;
},
{
horizontal = 1;
origin = (0,29);
type = TTSnap;
}
);
layerId = "63BE41E3-0F49-4E61-A903-F52A2E952C90";
shapes = (
{
closed = 1;
nodes = (
(258,-390,o),
(325,-381,o),
(383,-363,cs),
(442,-345,o),
(496,-319,o),
(542,-281,cs),
(589,-242,o),
(622,-196,o),
(652,-129,cs),
(687,-51,o),
(713,47,o),
(726,140,cs),
(748,294,o),
(721,346,o),
(553,346,cs),
(457,346,o),
(373,330,o),
(355,170,cs),
(339,29,o),
(401,27,o),
(459,-21,cs),
(492,-48,o),
(506,-75,o),
(495,-123,cs),
(484,-172,o),
(458,-197,o),
(417,-220,cs),
(376,-243,o),
(311,-269,o),
(237,-279,c),
(228,-390,l)
);
}
);
width = 1200;
},
{
associatedMasterId = "63BE41E3-0F49-4E61-A903-F52A2E952C90";
layerId = "21E2753D-042D-4D19-89C8-430560CC5AF5";
name = "new Layer";
shapes = (
{
closed = 1;
nodes = (
(418,-382,l),
(560,-346,l),
(828,30,l),
(828,470,ls),
(828,498,o),
(818,506,o),
(790,506,cs),
(360,506,ls),
(328,506,o),
(318,496,o),
(318,474,cs),
(318,72,ls),
(318,38,o),
(332,28,o),
(356,28,cs),
(744,28,l),
(690,236,l),
(412,-264,l),
(276,-264,ls),
(256,-264,o),
(242,-278,o),
(242,-298,cs),
(242,-346,ls),
(242,-368,o),
(256,-382,o),
(276,-382,cs)
);
}
);
width = 1200;
},
{
hints = (
{
horizontal = 1;
options = 4;
place = (-373, 54);
type = TTStem;
},
{
horizontal = 1;
options = 4;
place = (-91, 173);
type = TTStem;
}
);
layerId = "F48F13AC-C425-4574-8B52-7DBCB7751002";
shapes = (
{
closed = 1;
nodes = (
(255,-390,o),
(326,-384,o),
(398,-365,cs),
(462,-348,o),
(523,-323,o),
(574,-287,cs),
(627,-250,o),
(662,-206,o),
(692,-143,cs),
(729,-65,o),
(758,27,o),
(770,119,cs),
(791,278,o),
(750,346,o),
(552,346,cs),
(384,346,o),
(332,305,o),
(317,180,cs),
(295,-2,o),
(415,-5,o),
(444,-20,cs),
(473,-34,o),
(475,-75,o),
(471,-103,cs),
(465,-145,o),
(442,-173,o),
(391,-200,cs),
(338,-228,o),
(251,-262,o),
(190,-264,c),
(190,-390,l)
);
}
);
width = 1200;
},
{
hints = (
{
horizontal = 1;
options = 4;
place = (-356, 40);
type = TTStem;
},
{
horizontal = 1;
options = 4;
origin = (0,2);
target = (0,30);
type = TTStem;
}
);
layerId = "4FB9B80E-81B5-47C9-A539-BB7C5ADDFB58";
shapes = (
{
closed = 1;
nodes = (
(296,-390,o),
(349,-385,o),
(411,-363,cs),
(470,-342,o),
(513,-315,o),
(551,-279,cs),
(587,-244,o),
(618,-205,o),
(649,-128,cs),
(678,-55,o),
(700,33,o),
(714,144,cs),
(732,283,o),
(721,346,o),
(574,346,cs),
(436,346,o),
(395,289,o),
(378,166,cs),
(358,21,o),
(423,29,o),
(482,-21,cs),
(522,-55,o),
(528,-88,o),
(521,-129,cs),
(512,-180,o),
(491,-201,o),
(446,-225,cs),
(397,-252,o),
(343,-270,o),
(283,-281,c),
(275,-390,l)
);
}
);
width = 1200;
},
{
hints = (
{
horizontal = 1;
options = 4;
place = (-373, 48);
type = TTStem;
},
{
horizontal = 1;
options = 4;
origin = (0,2);
target = (0,30);
type = TTStem;
},
{
horizontal = 1;
origin = (0,20);
target = (0,14);
type = TTStem;
},
{
horizontal = 1;
origin = (0,29);
type = TTSnap;
}
);
layerId = "92EF81BF-A460-40B9-8F71-75F6CAA5A9CA";
shapes = (
{
closed = 1;
nodes = (
(260,-390,o),
(328,-378,o),
(394,-364,cs),
(460,-350,o),
(510,-326,o),
(561,-285,cs),
(609,-247,o),
(649,-183,o),
(672,-135,cs),
(703,-70,o),
(734,23,o),
(749,135,cs),
(768,281,o),
(747,346,o),
(549,346,cs),
(413,346,o),
(354,315,o),
(336,176,cs),
(315,14,o),
(393,24,o),
(451,-18,cs),
(487,-44,o),
(491,-73,o),
(484,-109,cs),
(474,-161,o),
(450,-182,o),
(406,-207,cs),
(362,-232,o),
(282,-266,o),
(214,-271,c),
(208,-390,l)
);
}
);
width = 1200;
}
);
note = comma;
unicode = 44;
}
{
glyphname = hyphen;
layers = (
{
hints = (
{
horizontal = 1;
options = 4;
origin = (0,2);
target = (0,3);
type = TTStem;
},
{
options = 4;
origin = (0,3);
target = (0,0);
type = TTStem;
}
);
layerId = "63BE41E3-0F49-4E61-A903-F52A2E952C90";
shapes = (
{
closed = 1;
nodes = (
(985,452,l),
(1020,652,l),
(218,652,l),
(183,452,l)
);
}
);
width = 1200;
},
{
associatedMasterId = "63BE41E3-0F49-4E61-A903-F52A2E952C90";
layerId = "21E2753D-042D-4D19-89C8-430560CC5AF5";
name = "new Layer";
shapes = (
{
closed = 1;
nodes = (
(1084,356,l),
(1084,714,l),
(118,714,l),
(118,356,l)
);
}
);
width = 1200;
},
{
hints = (
{
horizontal = 1;
options = 4;
origin = (0,3);
target = (0,2);
type = TTStem;
}
);
layerId = "F48F13AC-C425-4574-8B52-7DBCB7751002";
shapes = (
{
closed = 1;
nodes = (
(979,432,l),
(1021,670,l),
(221,670,l),
(179,432,l)
);
}
);
width = 1200;
},
{
hints = (
{
horizontal = 1;
options = 4;
origin = (0,3);
target = (0,2);
type = TTStem;
}
);
layerId = "4FB9B80E-81B5-47C9-A539-BB7C5ADDFB58";
shapes = (
{
closed = 1;
nodes = (
(986,464,l),
(1014,644,l),
(215,644,l),
(187,464,l)
);
}
);
width = 1200;
},
{
hints = (
{
horizontal = 1;
options = 4;
origin = (0,2);
target = (0,3);
type = TTStem;
},
{
options = 4;
origin = (0,3);
target = (0,0);
type = TTStem;
}
);
layerId = "92EF81BF-A460-40B9-8F71-75F6CAA5A9CA";
shapes = (
{
closed = 1;
nodes = (
(983,442,l),
(1022,662,l),
(220,662,l),
(181,442,l)
);
}
);
width = 1200;
}
);
note = hyphen;
unicode = 45;
}
{
glyphname = period;
layers = (
{
hints = (
{
horizontal = 1;
options = 4;
origin = (0,11);
target = (0,5);
type = TTStem;
},
{
horizontal = 1;
origin = (0,11);
target = (0,5);
type = TTStem;
}
);
layerId = "63BE41E3-0F49-4E61-A903-F52A2E952C90";
shapes = (
{
closed = 1;
nodes = (
(615,-40,o),
(691,24,o),
(710,132,cs),
(731,252,o),
(670,328,o),
(551,328,cs),
(442,328,o),
(366,264,o),
(346,156,cs),
(325,36,o),
(387,-40,o),
(506,-40,cs)
);
}
);
width = 1200;
},
{
associatedMasterId = "63BE41E3-0F49-4E61-A903-F52A2E952C90";
layerId = "21E2753D-042D-4D19-89C8-430560CC5AF5";
name = "new Layer";
shapes = (
{
closed = 1;
nodes = (
(732,-98,ls),
(744,-98,o),
(758,-84,o),
(758,-62,cs),
(758,256,ls),
(758,282,o),
(744,296,o),
(714,296,cs),
(380,296,ls),
(356,296,o),
(342,282,o),
(342,254,cs),
(342,-62,ls),
(342,-84,o),
(356,-98,o),
(376,-98,cs)
);
}
);
width = 1200;
},
{
hints = (
{
horizontal = 1;
options = 4;
place = (-85, 185);
type = TTStem;
}
);
layerId = "F48F13AC-C425-4574-8B52-7DBCB7751002";
shapes = (
{
closed = 1;
nodes = (
(653,-56,o),
(716,-3,o),
(741,136,cs),
(769,297,o),
(708,370,o),
(548,370,cs),
(408,370,o),
(343,319,o),
(319,180,cs),
(290,19,o),
(353,-56,o),
(513,-56,cs)
);
}
);
width = 1200;
},
{
hints = (
{
horizontal = 1;
options = 4;
origin = (0,11);
target = (0,5);
type = TTStem;
}
);
layerId = "4FB9B80E-81B5-47C9-A539-BB7C5ADDFB58";
shapes = (
{
closed = 1;
nodes = (
(613,-28,o),
(686,35,o),
(700,133,cs),
(718,239,o),
(659,312,o),
(553,312,cs),
(455,312,o),
(385,249,o),
(371,151,cs),
(353,45,o),
(409,-28,o),
(515,-28,cs)
);
}
);
width = 1200;
},
{
hints = (
{
horizontal = 1;
options = 4;
origin = (0,11);
target = (0,5);
type = TTStem;
},
{
horizontal = 1;
origin = (0,11);
target = (0,5);
type = TTStem;
}
);
layerId = "92EF81BF-A460-40B9-8F71-75F6CAA5A9CA";
shapes = (
{
closed = 1;
nodes = (
(634,-48,o),
(705,11,o),
(727,135,cs),
(752,275,o),
(689,350,o),
(550,350,cs),
(425,350,o),
(355,293,o),
(333,169,cs),
(308,29,o),
(370,-48,o),
(510,-48,cs)
);
}
);
width = 1200;
}
);
note = period;
unicode = 46;
}
{
glyphname = slash;
layers = (
{
layerId = "63BE41E3-0F49-4E61-A903-F52A2E952C90";
shapes = (
{
closed = 1;
nodes = (
(30,-380,l),
(218,-380,l),
(1260,1550,l),
(1073,1550,l)
);
}
);
width = 1200;
},
{
hints = (
{
horizontal = 1;
options = 4;
place = (1503, 0);
stem = -1;
type = TTSnap;
}
);
layerId = "F48F13AC-C425-4574-8B52-7DBCB7751002";
shapes = (
{
closed = 1;
nodes = (
(7,-380,l),
(263,-380,l),
(1305,1550,l),
(1049,1550,l)
);
}
);
width = 1200;
},
{
hints = (
{
horizontal = 1;
options = 4;
place = (1513, 0);
stem = -1;
type = TTSnap;
}
);
layerId = "4FB9B80E-81B5-47C9-A539-BB7C5ADDFB58";
shapes = (
{
closed = 1;
nodes = (
(52,-380,l),
(206,-380,l),
(1214,1550,l),
(1059,1550,l)
);
}
);
width = 1200;
},
{
layerId = "92EF81BF-A460-40B9-8F71-75F6CAA5A9CA";
shapes = (
{
closed = 1;
nodes = (
(20,-380,l),
(242,-380,l),
(1285,1550,l),
(1062,1550,l)
);
}
);
width = 1200;
}
);
note = slash;
unicode = 47;
}
{
glyphname = zero;
layers = (
{
hints = (
{
horizontal = 1;
options = 4;
origin = (0,11);
target = (2,11);
type = TTStem;
},
{
horizontal = 1;
options = 4;
origin = (0,5);
target = (2,5);
type = TTStem;
},
{
horizontal = 1;
origin = (0,5);
target = (2,5);
type = TTStem;
},
{
horizontal = 1;
origin = (0,11);
target = (2,11);
type = TTStem;
},
{
horizontal = 1;
origin = (1,3);
target = (1,1);
type = TTStem;
}
);
layerId = "63BE41E3-0F49-4E61-A903-F52A2E952C90";
shapes = (
{
closed = 1;
nodes = (
(935,-20,o),
(1033,270,o),
(1112,720,cs),
(1190,1164,o),
(1177,1470,o),
(754,1470,cs),
(341,1470,o),
(232,1174,o),
(156,744,cs),
(75,282,o),
(79,-20,o),
(512,-20,cs)
);
},
{
closed = 1;
nodes = (
(758,732,l),
(655,874,l),
(510,732,l),
(615,604,l)
);
},
{
closed = 1;
nodes = (
(246,124,o),
(259,372,o),
(320,720,cs),
(383,1078,o),
(460,1326,o),
(749,1326,cs),
(1028,1326,o),
(1009,1090,o),
(948,744,cs),
(885,384,o),
(798,124,o),
(517,124,cs)
);
}
);
width = 1200;
},
{
associatedMasterId = "63BE41E3-0F49-4E61-A903-F52A2E952C90";
layerId = "21E2753D-042D-4D19-89C8-430560CC5AF5";
name = "new Layer";
shapes = (
{
closed = 1;
nodes = (
(918,-28,o),
(1012,400,o),
(1012,730,cs),
(1012,1058,o),
(926,1458,o),
(554,1458,cs),
(190,1458,o),
(88,1060,o),
(88,738,cs),
(88,404,o),
(160,-28,o),
(542,-28,cs)
);
},
{
closed = 1;
nodes = (
(690,712,l),
(542,874,l),
(406,712,l),
(540,564,l)
);
},
{
closed = 1;
nodes = (
(358,326,o),
(330,528,o),
(330,696,cs),
(330,850,o),
(356,1162,o),
(550,1162,cs),
(748,1162,o),
(758,842,o),
(758,696,cs),
(758,544,o),
(728,326,o),
(538,326,cs)
);
}
);
width = 1200;
},
{
hints = (
{
horizontal = 1;
options = 4;
origin = (0,11);
target = (2,11);
type = TTStem;
},
{
horizontal = 1;
options = 4;
origin = (0,5);
target = (2,5);
type = TTStem;
}
);
layerId = "F48F13AC-C425-4574-8B52-7DBCB7751002";
shapes = (
{
closed = 1;
nodes = (
(963,-24,o),
(1067,261,o),
(1145,706,cs),
(1236,1219,o),
(1212,1470,o),
(742,1470,cs),
(292,1470,o),
(204,1241,o),
(117,750,cs),
(35,283,o),
(55,-24,o),
(519,-24,cs)
);
},
{
closed = 1;
nodes = (
(779,728,l),
(654,900,l),
(483,728,l),
(611,572,l)
);
},
{
closed = 1;
nodes = (
(331,228,o),
(329,307,o),
(399,706,cs),
(458,1037,o),
(522,1216,o),
(738,1216,cs),
(934,1216,o),
(918,1059,o),
(863,750,cs),
(789,329,o),
(747,228,o),
(523,228,cs)
);
}
);
width = 1200;
},
{
hints = (
{
horizontal = 1;
options = 4;
origin = (0,11);
target = (2,11);
type = TTStem;
},
{
horizontal = 1;
options = 4;
origin = (0,5);
target = (2,5);
type = TTStem;
}
);
layerId = "4FB9B80E-81B5-47C9-A539-BB7C5ADDFB58";
shapes = (
{
closed = 1;
nodes = (
(917,-20,o),
(1034,287,o),
(1101,721,cs),
(1171,1155,o),
(1153,1470,o),
(737,1470,cs),
(331,1470,o),
(222,1163,o),
(156,739,cs),
(84,297,o),
(99,-20,o),
(517,-20,cs)
);
},
{
closed = 1;
nodes = (
(762,730,l),
(648,880,l),
(493,730,l),
(609,594,l)
);
},
{
closed = 1;
nodes = (
(232,112,o),
(236,387,o),
(287,721,cs),
(345,1079,o),
(424,1336,o),
(732,1336,cs),
(1034,1336,o),
(1024,1089,o),
(970,739,cs),
(914,397,o),
(818,112,o),
(522,112,cs)
);
}
);
width = 1200;
},
{
hints = (
{
horizontal = 1;
options = 4;
origin = (0,11);
target = (2,11);
type = TTStem;
},
{
horizontal = 1;
options = 4;
origin = (0,5);
target = (2,5);
type = TTStem;
},
{
horizontal = 1;
origin = (0,5);
target = (2,5);
type = TTStem;
},
{
horizontal = 1;
origin = (0,11);
target = (2,11);
type = TTStem;
},
{
horizontal = 1;
origin = (1,3);
target = (1,1);
type = TTStem;
}
);
layerId = "92EF81BF-A460-40B9-8F71-75F6CAA5A9CA";
shapes = (
{
closed = 1;
nodes = (
(949,-20,o),
(1050,265,o),
(1129,713,cs),
(1213,1193,o),
(1195,1470,o),
(749,1470,cs),
(317,1470,o),
(219,1211,o),
(137,747,cs),
(55,283,o),
(67,-20,o),
(517,-20,cs)
);
},
{
closed = 1;
nodes = (
(770,730,l),
(656,886,l),
(498,730,l),
(614,588,l)
);
},
{
closed = 1;
nodes = (
(288,176,o),
(295,339,o),
(361,713,cs),
(422,1059,o),
(491,1272,o),
(745,1272,cs),
(981,1272,o),
(965,1077,o),
(907,747,cs),
(838,357,o),
(772,176,o),
(521,176,cs)
);
}
);
width = 1200;
}
);
note = zero;
unicode = 48;
}
{
glyphname = one;
layers = (
{
hints = (
{
horizontal = 1;
options = 4;
origin = (0,14);
target = (0,13);
type = TTStem;
},
{
horizontal = 1;
place = (-97, 81);
type = TTStem;
},
{
horizontal = 1;
place = (1345, 42);
type = TTStem;
},
{
horizontal = 1;
origin = (0,7);
target = (0,8);
type = TTStem;
},
{
horizontal = 1;
origin = (0,11);
type = TTSnap;
},
{
horizontal = 1;
origin = (0,11);
type = TTSnap;
},
{
horizontal = 1;
origin = (0,14);
target = (0,13);
type = TTStem;
}
);
layerId = "63BE41E3-0F49-4E61-A903-F52A2E952C90";
shapes = (
{
closed = 1;
nodes = (
(945,0,l),
(971,148,l),
(643,148,l),
(873,1450,l),
(724,1455,l),
(626,1353,o),
(412,1164,o),
(253,1102,c),
(232,928,l),
(355,960,o),
(549,1090,o),
(662,1186,c),
(475,148,l),
(121,148,l),
(95,0,l)
);
}
);
width = 1200;
},
{
associatedMasterId = "63BE41E3-0F49-4E61-A903-F52A2E952C90";
layerId = "21E2753D-042D-4D19-89C8-430560CC5AF5";
name = "new Layer";
shapes = (
{
closed = 1;
nodes = (
(984,0,l),
(984,240,l),
(712,240,l),
(712,1436,l),
(468,1436,l),
(368,1334,o),
(258,1230,o),
(84,1168,c),
(84,900,l),
(240,948,o),
(304,990,o),
(438,1076,c),
(438,240,l),
(130,240,l),
(130,0,l)
);
}
);
width = 1200;
},
{
hints = (
{
horizontal = 1;
options = 4;
origin = (0,14);
target = (0,13);
type = TTStem;
}
);
layerId = "F48F13AC-C425-4574-8B52-7DBCB7751002";
shapes = (
{
closed = 1;
nodes = (
(971,0,l),
(1015,250,l),
(713,250,l),
(925,1450,l),
(670,1459,l),
(551,1329,o),
(411,1196,o),
(224,1126,c),
(194,847,l),
(359,897,o),
(435,944,o),
(584,1060,c),
(433,250,l),
(103,250,l),
(59,0,l)
);
}
);
width = 1200;
},
{
hints = (
{
horizontal = 1;
options = 4;
origin = (0,14);
target = (0,13);
type = TTStem;
},
{
horizontal = 1;
options = 4;
origin = (0,13);
target = (0,14);
type = TTStem;
},
{
horizontal = 1;
options = 4;
origin = (0,8);
target = (0,7);
type = TTStem;
}
);
layerId = "4FB9B80E-81B5-47C9-A539-BB7C5ADDFB58";
shapes = (
{
closed = 1;
nodes = (
(949,0,l),
(970,128,l),
(636,128,l),
(845,1450,l),
(717,1454,l),
(625,1356,o),
(400,1160,o),
(246,1098,c),
(230,943,l),
(345,971,o),
(557,1115,o),
(661,1207,c),
(489,128,l),
(131,128,l),
(111,0,l)
);
}
);
width = 1200;
},
{
hints = (
{
horizontal = 1;
options = 4;
origin = (0,14);
target = (0,13);
type = TTStem;
},
{
horizontal = 1;
place = (-97, 40.5);
type = TTStem;
},
{
horizontal = 1;
place = (624, 21);
type = TTStem;
},
{
horizontal = 1;
origin = (0,7);
target = (0,8);
type = TTStem;
},
{
horizontal = 1;
origin = (0,11);
type = TTSnap;
},
{
horizontal = 1;
origin = (0,11);
type = TTSnap;
},
{
horizontal = 1;
origin = (0,14);
target = (0,13);
type = TTStem;
}
);
layerId = "92EF81BF-A460-40B9-8F71-75F6CAA5A9CA";
shapes = (
{
closed = 1;
nodes = (
(959,0,l),
(994,200,l),
(678,200,l),
(899,1450,l),
(697,1457,l),
(589,1341,o),
(412,1181,o),
(239,1115,c),
(213,887,l),
(358,929,o),
(492,1018,o),
(623,1124,c),
(454,200,l),
(112,200,l),
(77,0,l)
);
}
);
width = 1200;
}
);
note = one;
unicode = 49;
}
{
glyphname = two;
layers = (
{
hints = (
{
horizontal = 1;
options = 4;
origin = (0,22);
target = (0,2);
type = TTStem;
},
{
horizontal = 1;
options = 4;
origin = (0,8);
target = (0,15);
type = TTStem;
},
{
options = 4;
origin = (0,11);
target = (0,12);
type = TTStem;
},
{
options = 4;
origin = (0,18);
target = (0,5);
type = TTStem;
}
);
layerId = "63BE41E3-0F49-4E61-A903-F52A2E952C90";
shapes = (
{
closed = 1;
nodes = (
(937,-10,l),
(963,138,l),
(286,134,l),
(556,362,o),
(1060,752,o),
(1116,1070,cs),
(1163,1340,o),
(983,1470,o),
(760,1470,cs),
(525,1470,o),
(309,1330,o),
(254,1050,c),
(428,1038,l),
(458,1206,o),
(591,1322,o),
(748,1322,cs),
(881,1322,o),
(960,1230,o),
(933,1080,cs),
(879,774,o),
(320,358,o),
(84,172,c),
(55,-10,l)
);
}
);
width = 1200;
},
{
associatedMasterId = "63BE41E3-0F49-4E61-A903-F52A2E952C90";
background = {
shapes = (
{
closed = 1;
nodes = (
(58,0,l),
(1016,0,l),
(1016,276,l),
(458,276,l),
(580,380,o),
(784,562,o),
(930,742,o),
(1014,928,o),
(1014,1036,qs),
(1014,1096,o),
(986,1210,o),
(950,1260,qs),
(830,1430,o),
(566,1430,qs),
(530,1430,o),
(422,1420,o),
(310,1386,o),
(202,1324,o),
(166,1270,qs),
(134,1226,o),
(102,1144,o),
(84,1074,o),
(80,1018,o),
(80,1002,q),
(410,1002,l),
(412,1016,o),
(418,1070,o),
(448,1124,o),
(502,1164,o),
(550,1164,qs),
(564,1164,o),
(608,1156,o),
(650,1126,o),
(676,1070,o),
(676,1024,qs),
(676,976,o),
(652,898,o),
(634,866,qs),
(606,810,o),
(488,682,o),
(338,536,o),
(156,374,o),
(58,288,q),
(58,288,l)
);
}
);
};
layerId = "21E2753D-042D-4D19-89C8-430560CC5AF5";
name = "new Layer";
shapes = (
{
closed = 1;
nodes = (
(1018,0,l),
(1018,240,l),
(404,240,l),
(708,502,o),
(1014,772,o),
(1014,1036,cs),
(1014,1346,o),
(782,1430,o),
(566,1430,cs),
(282,1430,o),
(78,1334,o),
(78,980,c),
(404,980,l),
(404,1076,o),
(480,1164,o),
(560,1164,cs),
(640,1164,o),
(696,1108,o),
(696,1024,cs),
(696,810,o),
(452,636,o),
(58,288,c),
(58,0,l)
);
}
);
width = 1200;
},
{
hints = (
{
horizontal = 1;
options = 4;
origin = (0,22);
target = (0,2);
type = TTStem;
},
{
horizontal = 1;
options = 4;
origin = (0,15);
target = (0,8);
type = TTStem;
}
);
layerId = "F48F13AC-C425-4574-8B52-7DBCB7751002";
shapes = (
{
closed = 1;
nodes = (
(979,0,l),
(1021,250,l),
(415,243,l),
(681,447,o),
(1110,723,o),
(1167,1044,cs),
(1222,1355,o),
(992,1470,o),
(766,1470,cs),
(492,1470,o),
(277,1349,o),
(219,1021,c),
(515,999,l),
(532,1097,o),
(633,1192,o),
(736,1195,cs),
(807,1199,o),
(864,1151,o),
(851,1076,cs),
(810,845,o),
(529,701,o),
(72,345,c),
(19,0,l)
);
}
);
width = 1200;
},
{
hints = (
{
horizontal = 1;
options = 4;
origin = (0,22);
target = (0,2);
type = TTStem;
},
{
horizontal = 1;
options = 4;
origin = (0,8);
target = (0,15);
type = TTStem;
}
);
layerId = "4FB9B80E-81B5-47C9-A539-BB7C5ADDFB58";
shapes = (
{
closed = 1;
nodes = (
(945,-12,l),
(966,116,l),
(276,113,l),
(543,345,o),
(1048,757,o),
(1097,1075,cs),
(1139,1331,o),
(970,1468,o),
(748,1468,cs),
(518,1468,o),
(301,1325,o),
(258,1053,c),
(404,1043,l),
(432,1223,o),
(574,1342,o),
(742,1342,cs),
(886,1342,o),
(969,1233,o),
(946,1079,cs),
(894,761,o),
(295,301,o),
(98,143,c),
(77,-12,l)
);
}
);
width = 1200;
},
{
hints = (
{
horizontal = 1;
options = 4;
origin = (0,22);
target = (0,2);
type = TTStem;
},
{
horizontal = 1;
options = 4;
origin = (0,8);
target = (0,15);
type = TTStem;
},
{
options = 4;
origin = (0,11);
target = (0,12);
type = TTStem;
},
{
options = 4;
origin = (0,18);
target = (0,5);
type = TTStem;
}
);
layerId = "92EF81BF-A460-40B9-8F71-75F6CAA5A9CA";
shapes = (
{
closed = 1;
nodes = (
(958,-6,l),
(993,194,l),
(352,188,l),
(620,404,o),
(1085,737,o),
(1141,1057,cs),
(1193,1347,o),
(989,1470,o),
(763,1470,cs),
(509,1470,o),
(293,1341,o),
(238,1037,c),
(473,1019,l),
(496,1151,o),
(612,1258,o),
(742,1260,cs),
(845,1262,o),
(913,1191,o),
(893,1079,cs),
(846,811,o),
(425,530,o),
(79,260,c),
(38,-6,l)
);
}
);
width = 1200;
}
);
note = two;
unicode = 50;
}
{
glyphname = three;
layers = (
{
hints = (
{
horizontal = 1;
options = 4;
origin = (0,2);
target = (0,22);
type = TTStem;
},
{
horizontal = 1;
options = 4;
origin = (0,13);
target = (0,12);
type = TTStem;
},
{
options = 4;
origin = (0,26);
target = (0,25);
type = TTStem;
},
{
options = 4;
origin = (0,19);
target = (0,5);
type = TTStem;
},
{
horizontal = 1;
options = 4;
origin = (0,12);
target = (0,13);
type = TTStem;
}
);
layerId = "63BE41E3-0F49-4E61-A903-F52A2E952C90";
shapes = (
{
closed = 1;
nodes = (
(56,120,o),
(260,-22,o),
(493,-22,cs),
(720,-22,o),
(993,116,o),
(1042,392,cs),
(1086,640,o),
(989,880,o),
(577,902,c),
(630,826,l),
(1172,1280,l),
(1201,1450,l),
(325,1450,l),
(298,1300,l),
(962,1300,l),
(492,914,l),
(473,764,l),
(739,764,o),
(910,642,o),
(870,416,cs),
(839,236,o),
(668,124,o),
(509,124,cs),
(370,124,o),
(250,220,o),
(281,398,c),
(107,410,l)
);
}
);
width = 1200;
},
{
associatedMasterId = "63BE41E3-0F49-4E61-A903-F52A2E952C90";
background = {
shapes = (
{
closed = 1;
nodes = (
(64,400,l),
(66,376,o),
(70,314,o),
(86,246,o),
(122,172,o),
(150,134,qs),
(212,48,o),
(404,-26,o),
(546,-26,qs),
(630,-26,o),
(752,-4,o),
(836,32,o),
(894,74,o),
(916,92,qs),
(988,152,o),
(1034,310,o),
(1034,386,qs),
(1034,498,o),
(962,630,o),
(866,698,o),
(772,720,o),
(750,724,q),
(750,734,l),
(808,742,o),
(904,800,o),
(972,888,o),
(1012,1000,o),
(1012,1064,qs),
(1012,1142,o),
(954,1278,o),
(838,1376,o),
(670,1432,o),
(560,1432,qs),
(466,1432,o),
(296,1384,o),
(168,1282,o),
(96,1124,o),
(92,1016,q),
(404,1016,l),
(408,1066,o),
(438,1130,o),
(480,1164,o),
(530,1176,o),
(550,1176,qs),
(618,1176,o),
(702,1092,o),
(702,1020,qs),
(702,1014,o),
(698,964,o),
(672,906,o),
(616,852,o),
(564,844,qs),
(514,836,o),
(424,836,o),
(392,838,q),
(392,590,l),
(408,592,o),
(454,594,o),
(480,594,qs),
(504,594,o),
(584,588,o),
(664,556,o),
(720,482,o),
(720,416,qs),
(720,384,o),
(702,318,o),
(662,266,o),
(594,232,o),
(544,232,qs),
(452,232,o),
(382,332,o),
(378,400,q),
(378,400,l)
);
}
);
};
layerId = "21E2753D-042D-4D19-89C8-430560CC5AF5";
name = "new Layer";
shapes = (
{
closed = 1;
nodes = (
(64,72,o),
(318,-26,o),
(546,-26,cs),
(778,-26,o),
(1052,114,o),
(1052,390,cs),
(1052,630,o),
(886,738,o),
(756,760,c),
(756,780,l),
(1046,1092,l),
(1046,1438,l),
(130,1438,l),
(130,1198,l),
(736,1198,l),
(342,826,l),
(342,610,l),
(588,610,o),
(720,522,o),
(720,416,cs),
(720,248,o),
(594,232,o),
(544,232,cs),
(494,232,o),
(378,246,o),
(378,400,c),
(64,400,l)
);
}
);
width = 1200;
},
{
hints = (
{
horizontal = 1;
options = 4;
origin = (0,2);
target = (0,22);
type = TTStem;
},
{
horizontal = 1;
options = 4;
origin = (0,13);
target = (0,12);
type = TTStem;
}
);
layerId = "F48F13AC-C425-4574-8B52-7DBCB7751002";
shapes = (
{
closed = 1;
nodes = (
(25,91,o),
(269,-22,o),
(507,-22,cs),
(729,-22,o),
(1017,113,o),
(1066,392,cs),
(1108,631,o),
(961,796,o),
(835,818,c),
(856,840,l),
(1189,1102,l),
(1247,1450,l),
(331,1450,l),
(288,1208,l),
(891,1208,l),
(440,886,l),
(418,686,l),
(732,686,o),
(761,543,o),
(742,436,cs),
(712,269,o),
(571,238,o),
(511,238,cs),
(471,238,o),
(366,245,o),
(394,403,c),
(84,425,l)
);
}
);
width = 1200;
},
{
hints = (
{
horizontal = 1;
options = 4;
origin = (0,2);
target = (0,22);
type = TTStem;
},
{
horizontal = 1;
options = 4;
origin = (0,13);
target = (0,12);
type = TTStem;
}
);
layerId = "4FB9B80E-81B5-47C9-A539-BB7C5ADDFB58";
shapes = (
{
closed = 1;
nodes = (
(69,125,o),
(268,-22,o),
(500,-22,cs),
(728,-22,o),
(995,117,o),
(1037,393,cs),
(1078,641,o),
(987,894,o),
(527,916,c),
(588,824,l),
(1154,1310,l),
(1175,1450,l),
(308,1450,l),
(287,1316,l),
(961,1316,l),
(494,918,l),
(478,778,l),
(735,778,o),
(934,659,o),
(896,411,cs),
(866,231,o),
(691,106,o),
(517,106,cs),
(361,106,o),
(235,217,o),
(263,397,c),
(114,407,l)
);
}
);
width = 1200;
},
{
hints = (
{
horizontal = 1;
options = 4;
origin = (0,2);
target = (0,22);
type = TTStem;
},
{
horizontal = 1;
options = 4;
origin = (0,13);
target = (0,12);
type = TTStem;
},
{
options = 4;
origin = (0,26);
target = (0,25);
type = TTStem;
},
{
options = 4;
origin = (0,19);
target = (0,5);
type = TTStem;
},
{
horizontal = 1;
options = 4;
origin = (0,12);
target = (0,13);
type = TTStem;
}
);
layerId = "92EF81BF-A460-40B9-8F71-75F6CAA5A9CA";
shapes = (
{
closed = 1;
nodes = (
(42,107,o),
(265,-22,o),
(500,-22,cs),
(725,-22,o),
(1005,115,o),
(1054,393,cs),
(1097,635,o),
(975,839,o),
(707,861,c),
(743,834,l),
(1182,1192,l),
(1225,1450,l),
(329,1450,l),
(294,1254,l),
(928,1254,l),
(467,900,l),
(447,726,l),
(737,726,o),
(836,593,o),
(806,427,cs),
(776,253,o),
(620,182,o),
(510,182,cs),
(422,182,o),
(308,233,o),
(338,401,c),
(97,419,l)
);
}
);
width = 1200;
}
);
note = three;
unicode = 51;
}
{
glyphname = four;
layers = (
{
hints = (
{
horizontal = 1;
origin = (0,10);
type = TTSnap;
},
{
horizontal = 1;
origin = (0,8);
target = (1,2);
type = TTStem;
},
{
options = 4;
origin = (0,10);
target = (0,0);
type = TTStem;
},
{
horizontal = 1;
options = 4;
origin = (0,2);
target = (0,3);
type = TTStem;
}
);
layerId = "63BE41E3-0F49-4E61-A903-F52A2E952C90";
shapes = (
{
closed = 1;
nodes = (
(791,0,l),
(846,312,l),
(1052,312,l),
(1078,460,l),
(872,460,l),
(1047,1450,l),
(815,1450,l),
(64,472,l),
(38,312,l),
(672,312,l),
(617,0,l)
);
},
{
closed = 1;
nodes = (
(840,1244,l),
(700,460,l),
(250,460,l)
);
}
);
width = 1200;
},
{
associatedMasterId = "63BE41E3-0F49-4E61-A903-F52A2E952C90";
background = {
shapes = (
{
closed = 1;
nodes = (
(258,530,l),
(588,1100,l),
(588,530,l),
(588,530,l)
);
},
{
closed = 1;
nodes = (
(582,0,l),
(866,0,l),
(866,276,l),
(1042,276,l),
(1042,530,l),
(866,530,l),
(866,1394,l),
(518,1394,l),
(56,602,l),
(56,276,l),
(582,276,l),
(582,276,l)
);
}
);
};
layerId = "21E2753D-042D-4D19-89C8-430560CC5AF5";
name = "new Layer";
shapes = (
{
closed = 1;
nodes = (
(868,0,l),
(868,280,l),
(1072,280,l),
(1072,526,l),
(868,526,l),
(868,1438,l),
(548,1438,l),
(58,602,l),
(58,280,l),
(584,280,l),
(584,0,l)
);
},
{
closed = 1;
nodes = (
(588,1028,l),
(588,526,l),
(290,526,l)
);
}
);
width = 1200;
},
{
background = {
shapes = (
{
closed = 1;
nodes = (
(258,530,l),
(588,1100,l),
(588,530,l),
(588,530,l)
);
},
{
closed = 1;
nodes = (
(582,0,l),
(866,0,l),
(866,276,l),
(1042,276,l),
(1042,530,l),
(866,530,l),
(866,1394,l),
(518,1394,l),
(56,602,l),
(56,276,l),
(582,276,l),
(582,276,l)
);
}
);
};
hints = (
{
horizontal = 1;
options = 4;
origin = (0,10);
stem = -1;
type = TTSnap;
},
{
horizontal = 1;
options = 4;
origin = (0,8);
target = (1,2);
type = TTStem;
}
);
layerId = "F48F13AC-C425-4574-8B52-7DBCB7751002";
shapes = (
{
closed = 1;
nodes = (
(827,0,l),
(877,282,l),
(1081,282,l),
(1124,530,l),
(920,530,l),
(1083,1450,l),
(749,1450,l),
(81,608,l),
(27,282,l),
(593,282,l),
(543,0,l)
);
},
{
closed = 1;
nodes = (
(733,1036,l),
(640,530,l),
(346,530,l)
);
}
);
width = 1200;
},
{
hints = (
{
horizontal = 1;
options = 4;
origin = (0,10);
stem = -1;
type = TTSnap;
},
{
horizontal = 1;
options = 4;
origin = (0,8);
target = (1,2);
type = TTStem;
}
);
layerId = "4FB9B80E-81B5-47C9-A539-BB7C5ADDFB58";
shapes = (
{
closed = 1;
nodes = (
(808,0,l),
(859,320,l),
(1065,320,l),
(1085,448,l),
(879,448,l),
(1038,1450,l),
(829,1450,l),
(81,450,l),
(62,320,l),
(710,320,l),
(660,0,l)
);
},
{
closed = 1;
nodes = (
(866,1282,l),
(732,448,l),
(255,448,l)
);
}
);
width = 1200;
},
{
hints = (
{
horizontal = 1;
origin = (0,10);
type = TTSnap;
},
{
horizontal = 1;
origin = (0,8);
target = (1,2);
type = TTStem;
},
{
options = 4;
origin = (0,10);
target = (0,0);
type = TTStem;
},
{
horizontal = 1;
options = 4;
origin = (0,2);
target = (0,3);
type = TTStem;
}
);
layerId = "92EF81BF-A460-40B9-8F71-75F6CAA5A9CA";
shapes = (
{
closed = 1;
nodes = (
(803,0,l),
(856,298,l),
(1062,298,l),
(1096,496,l),
(890,496,l),
(1059,1450,l),
(776,1450,l),
(77,540,l),
(38,298,l),
(628,298,l),
(575,0,l)
);
},
{
closed = 1;
nodes = (
(781,1140,l),
(664,496,l),
(293,496,l)
);
}
);
width = 1200;
}
);
note = four;
unicode = 52;
}
{
glyphname = five;
layers = (
{
hints = (
{
horizontal = 1;
options = 4;
origin = (0,30);
target = (0,23);
type = TTStem;
},
{
horizontal = 1;
options = 4;
origin = (0,17);
target = (0,5);
type = TTStem;
},
{
horizontal = 1;
origin = (0,30);
target = (0,23);
type = TTStem;
},
{
horizontal = 1;
origin = (0,17);
target = (0,5);
type = TTStem;
},
{
horizontal = 1;
origin = (0,11);
target = (0,10);
type = TTStem;
},
{
horizontal = 1;
origin = (0,30);
target = (0,23);
type = TTStem;
},
{
horizontal = 1;
origin = (0,17);
target = (0,5);
type = TTStem;
},
{
horizontal = 1;
origin = (0,11);
target = (0,10);
type = TTStem;
},
{
options = 4;
origin = (0,20);
target = (0,2);
type = TTStem;
},
{
options = 4;
origin = (0,27);
target = (0,26);
type = TTStem;
},
{
options = 4;
origin = (0,13);
target = (0,14);
type = TTStem;
}
);
layerId = "63BE41E3-0F49-4E61-A903-F52A2E952C90";
shapes = (
{
closed = 1;
nodes = (
(765,-18,o),
(980,178,o),
(1032,470,cs),
(1081,750,o),
(970,978,o),
(705,978,cs),
(596,978,o),
(507,921,o),
(424,835,c),
(576,1296,l),
(1138,1296,l),
(1165,1450,l),
(442,1450,l),
(190,610,l),
(367,604,l),
(420,736,o),
(541,822,o),
(666,822,cs),
(837,822,o),
(889,670,o),
(859,498,cs),
(824,300,o),
(698,126,o),
(503,126,cs),
(372,126,o),
(275,190,o),
(302,348,c),
(128,360,l),
(82,98,o),
(267,-18,o),
(500,-18,cs)
);
}
);
width = 1200;
},
{
associatedMasterId = "63BE41E3-0F49-4E61-A903-F52A2E952C90";
background = {
shapes = (
{
closed = 1;
nodes = (
(38,396,l),
(38,372,o),
(44,312,o),
(60,242,o),
(94,166,o),
(126,128,qs),
(170,78,o),
(284,14,o),
(398,-20,o),
(510,-30,o),
(546,-30,qs),
(584,-30,o),
(680,-20,o),
(774,8,o),
(866,60,o),
(908,102,qs),
(952,148,o),
(1006,256,o),
(1032,362,o),
(1042,456,o),
(1042,488,qs),
(1042,614,o),
(972,788,o),
(862,898,o),
(728,946,o),
(662,946,qs),
(618,946,o),
(536,926,o),
(496,904,qs),
(436,872,o),
(384,802,o),
(368,774,q),
(390,1114,l),
(968,1114,l),
(968,1386,l),
(82,1386,l),
(56,572,l),
(398,568,l),
(404,614,o),
(474,690,o),
(538,690,qs),
(582,690,o),
(644,654,o),
(682,594,o),
(696,516,o),
(696,474,qs),
(696,446,o),
(686,364,o),
(670,328,qs),
(656,298,o),
(594,238,o),
(528,238,qs),
(464,238,o),
(380,316,o),
(376,396,q),
(376,396,l)
);
}
);
};
layerId = "21E2753D-042D-4D19-89C8-430560CC5AF5";
name = "new Layer";
shapes = (
{
closed = 1;
nodes = (
(854,-30,o),
(1050,172,o),
(1050,470,cs),
(1050,744,o),
(902,946,o),
(642,946,cs),
(528,946,o),
(430,898,o),
(354,804,c),
(376,1132,l),
(982,1132,l),
(982,1438,l),
(100,1438,l),
(70,568,l),
(360,568,l),
(372,624,o),
(416,690,o),
(514,690,cs),
(612,690,o),
(696,652,o),
(696,474,cs),
(696,282,o),
(568,238,o),
(504,238,cs),
(440,238,o),
(354,278,o),
(354,396,c),
(66,396,l),
(66,102,o),
(310,-30,o),
(584,-30,cs)
);
}
);
width = 1200;
},
{
hints = (
{
horizontal = 1;
options = 4;
origin = (0,30);
target = (0,23);
type = TTStem;
},
{
horizontal = 1;
options = 4;
origin = (0,17);
target = (0,5);
type = TTStem;
},
{
horizontal = 1;
options = 4;
origin = (0,9);
target = (0,12);
type = TTStem;
}
);
layerId = "F48F13AC-C425-4574-8B52-7DBCB7751002";
shapes = (
{
closed = 1;
nodes = (
(819,-20,o),
(1026,178,o),
(1076,461,cs),
(1127,747,o),
(996,969,o),
(739,969,cs),
(621,969,o),
(521,923,o),
(448,828,c),
(578,1194,l),
(1138,1194,l),
(1183,1450,l),
(374,1450,l),
(117,586,l),
(410,576,l),
(448,644,o),
(530,704,o),
(634,704,cs),
(718,704,o),
(794,665,o),
(767,510,cs),
(731,308,o),
(589,252,o),
(506,252,cs),
(447,252,o),
(367,281,o),
(368,399,c),
(85,421,l),
(33,127,o),
(271,-20,o),
(526,-20,cs)
);
}
);
width = 1200;
},
{
hints = (
{
horizontal = 1;
options = 4;
origin = (0,30);
target = (0,23);
type = TTStem;
},
{
horizontal = 1;
options = 4;
origin = (0,17);
target = (0,5);
type = TTStem;
},
{
horizontal = 1;
options = 4;
origin = (0,9);
target = (0,12);
type = TTStem;
}
);
layerId = "4FB9B80E-81B5-47C9-A539-BB7C5ADDFB58";
shapes = (
{
closed = 1;
nodes = (
(763,-18,o),
(973,179,o),
(1018,473,cs),
(1063,751,o),
(951,980,o),
(687,980,cs),
(577,980,o),
(496,933,o),
(416,847,c),
(558,1324,l),
(1121,1324,l),
(1142,1454,l),
(436,1454,l),
(199,614,l),
(350,609,l),
(407,753,o),
(533,842,o),
(661,842,cs),
(845,842,o),
(899,669,o),
(873,495,cs),
(841,299,o),
(721,106,o),
(507,106,cs),
(363,106,o),
(262,175,o),
(288,339,c),
(137,349,l),
(96,93,o),
(273,-18,o),
(497,-18,cs)
);
}
);
width = 1200;
},
{
hints = (
{
horizontal = 1;
options = 4;
origin = (0,30);
target = (0,23);
type = TTStem;
},
{
horizontal = 1;
options = 4;
origin = (0,17);
target = (0,5);
type = TTStem;
},
{
horizontal = 1;
origin = (0,30);
target = (0,23);
type = TTStem;
},
{
horizontal = 1;
origin = (0,17);
target = (0,5);
type = TTStem;
},
{
horizontal = 1;
origin = (0,11);
target = (0,10);
type = TTStem;
},
{
horizontal = 1;
origin = (0,30);
target = (0,23);
type = TTStem;
},
{
horizontal = 1;
origin = (0,17);
target = (0,5);
type = TTStem;
},
{
horizontal = 1;
origin = (0,11);
target = (0,10);
type = TTStem;
},
{
options = 4;
origin = (0,20);
target = (0,2);
type = TTStem;
},
{
options = 4;
origin = (0,27);
target = (0,26);
type = TTStem;
},
{
options = 4;
origin = (0,13);
target = (0,14);
type = TTStem;
}
);
layerId = "92EF81BF-A460-40B9-8F71-75F6CAA5A9CA";
shapes = (
{
closed = 1;
nodes = (
(785,-20,o),
(1004,177,o),
(1055,467,cs),
(1105,749,o),
(988,970,o),
(721,970,cs),
(614,970,o),
(525,926,o),
(437,836,c),
(574,1246,l),
(1139,1246,l),
(1175,1450,l),
(408,1450,l),
(154,598,l),
(389,590,l),
(435,690,o),
(535,764,o),
(653,764,cs),
(777,764,o),
(843,669,o),
(814,505,cs),
(779,305,o),
(645,190,o),
(505,190,cs),
(411,190,o),
(322,235,o),
(336,373,c),
(108,391,l),
(59,113,o),
(265,-20,o),
(523,-20,cs)
);
}
);
width = 1200;
}
);
note = five;
unicode = 53;
}
{
glyphname = six;
layers = (
{
hints = (
{
horizontal = 1;
options = 4;
origin = (0,24);
target = (1,11);
type = TTStem;
},
{
horizontal = 1;
options = 4;
origin = (1,5);
target = (0,5);
type = TTStem;
},
{
horizontal = 1;
options = 4;
origin = (0,18);
target = (0,11);
type = TTStem;
},
{
horizontal = 1;
origin = (1,5);
target = (0,5);
type = TTStem;
},
{
options = 4;
origin = (1,8);
target = (0,2);
type = TTStem;
},
{
horizontal = 1;
options = 4;
origin = (1,11);
target = (0,24);
type = TTStem;
}
);
layerId = "63BE41E3-0F49-4E61-A903-F52A2E952C90";
shapes = (
{
closed = 1;
nodes = (
(790,-24,o),
(996,164,o),
(1044,434,cs),
(1092,708,o),
(960,952,o),
(699,952,cs),
(552,952,o),
(433,861,o),
(335,703,c),
(382,932,o),
(483,1322,o),
(768,1322,cs),
(869,1322,o),
(928,1290,o),
(961,1240,c),
(1089,1338,l),
(1029,1406,o),
(939,1470,o),
(778,1470,cs),
(405,1470,o),
(236,1108,o),
(167,716,cs),
(96,312,o),
(136,-24,o),
(529,-24,cs)
);
},
{
closed = 1;
nodes = (
(360,124,o),
(283,250,o),
(314,426,cs),
(348,620,o),
(488,784,o),
(675,784,cs),
(852,784,o),
(902,630,o),
(871,454,cs),
(837,262,o),
(718,124,o),
(531,124,cs)
);
}
);
width = 1200;
},
{
associatedMasterId = "63BE41E3-0F49-4E61-A903-F52A2E952C90";
background = {
shapes = (
{
closed = 1;
nodes = (
(754,358,o),
(658,230,o),
(568,230,qs),
(536,230,o),
(472,252,o),
(420,304,o),
(388,392,o),
(388,458,qs),
(388,566,o),
(484,698,o),
(574,698,qs),
(638,698,o),
(708,638,o),
(744,560,o),
(754,482,o),
(754,464,q),
(754,464,l)
);
},
{
closed = 1;
nodes = (
(996,1044,l),
(992,1166,o),
(902,1316,o),
(776,1398,o),
(636,1426,o),
(576,1426,qs),
(426,1426,o),
(226,1300,o),
(108,1094,o),
(58,832,o),
(58,696,qs),
(58,528,o),
(118,288,o),
(170,196,qs),
(206,130,o),
(302,42,o),
(408,-8,o),
(518,-28,o),
(570,-28,qs),
(650,-28,o),
(816,22,o),
(956,142,o),
(1048,338,o),
(1048,482,qs),
(1048,584,o),
(994,752,o),
(892,872,o),
(750,936,o),
(660,936,qs),
(586,936,o),
(482,896,o),
(414,840,o),
(374,780,o),
(364,762,q),
(364,818,o),
(374,968,o),
(390,1032,qs),
(398,1060,o),
(426,1116,o),
(466,1162,o),
(520,1190,o),
(558,1190,qs),
(570,1190,o),
(612,1182,o),
(632,1166,qs),
(654,1150,o),
(686,1092,o),
(690,1044,q),
(690,1044,l)
);
}
);
};
layerId = "21E2753D-042D-4D19-89C8-430560CC5AF5";
name = "new Layer";
shapes = (
{
closed = 1;
nodes = (
(828,-28,o),
(1052,204,o),
(1052,480,cs),
(1052,748,o),
(892,936,o),
(660,936,cs),
(524,936,o),
(428,892,o),
(364,762,c),
(364,1014,o),
(406,1190,o),
(558,1190,cs),
(636,1190,o),
(690,1124,o),
(690,1044,c),
(996,1044,l),
(978,1248,o),
(820,1446,o),
(582,1446,cs),
(186,1446,o),
(58,1048,o),
(58,696,cs),
(58,344,o),
(184,-28,o),
(570,-28,cs)
);
},
{
closed = 1;
nodes = (
(458,230,o),
(388,336,o),
(388,460,cs),
(388,588,o),
(460,698,o),
(580,698,cs),
(700,698,o),
(756,586,o),
(756,462,cs),
(756,336,o),
(696,230,o),
(574,230,cs)
);
}
);
width = 1200;
},
{
hints = (
{
horizontal = 1;
options = 4;
origin = (0,24);
target = (1,11);
type = TTStem;
},
{
horizontal = 1;
options = 4;
origin = (1,5);
target = (0,5);
type = TTStem;
},
{
horizontal = 1;
options = 4;
origin = (0,11);
target = (0,18);
type = TTStem;
}
);
layerId = "F48F13AC-C425-4574-8B52-7DBCB7751002";
shapes = (
{
closed = 1;
nodes = (
(820,-20,o),
(1032,187,o),
(1081,463,cs),
(1127,728,o),
(1010,940,o),
(738,940,cs),
(637,940,o),
(530,914,o),
(443,771,c),
(490,1016,o),
(585,1212,o),
(769,1212,cs),
(851,1212,o),
(932,1170,o),
(961,1116,c),
(1155,1248,l),
(1102,1384,o),
(938,1470,o),
(767,1470,cs),
(402,1470,o),
(194,1069,o),
(130,710,cs),
(68,358,o),
(138,-20,o),
(533,-20,cs)
);
},
{
closed = 1;
nodes = (
(436,240,o),
(392,323,o),
(412,438,cs),
(437,577,o),
(541,700,o),
(671,700,cs),
(781,700,o),
(808,597,o),
(788,484,cs),
(764,345,o),
(675,240,o),
(546,240,cs)
);
}
);
width = 1200;
},
{
hints = (
{
horizontal = 1;
options = 4;
origin = (0,24);
target = (1,11);
type = TTStem;
},
{
horizontal = 1;
options = 4;
origin = (1,5);
target = (0,5);
type = TTStem;
},
{
horizontal = 1;
options = 4;
origin = (0,18);
target = (0,11);
type = TTStem;
},
{
options = 4;
origin = (0,21);
target = (1,2);
type = TTStem;
}
);
layerId = "4FB9B80E-81B5-47C9-A539-BB7C5ADDFB58";
shapes = (
{
closed = 1;
nodes = (
(776,-12,o),
(989,169,o),
(1032,447,cs),
(1075,711,o),
(947,956,o),
(681,956,cs),
(539,956,o),
(422,878,o),
(327,726,c),
(379,949,o),
(490,1340,o),
(782,1340,cs),
(892,1340,o),
(964,1303,o),
(998,1249,c),
(1114,1333,l),
(1055,1399,o),
(968,1464,o),
(786,1464,cs),
(429,1464,o),
(240,1117,o),
(163,617,cs),
(105,261,o),
(150,-12,o),
(524,-12,cs)
);
},
{
closed = 1;
nodes = (
(344,114,o),
(266,247,o),
(293,429,cs),
(327,637,o),
(473,802,o),
(667,802,cs),
(849,802,o),
(913,653,o),
(886,471,cs),
(851,263,o),
(724,114,o),
(530,114,cs)
);
}
);
width = 1200;
},
{
hints = (
{
horizontal = 1;
options = 4;
origin = (0,24);
target = (1,11);
type = TTStem;
},
{
horizontal = 1;
options = 4;
origin = (1,5);
target = (0,5);
type = TTStem;
},
{
horizontal = 1;
options = 4;
origin = (0,18);
target = (0,11);
type = TTStem;
},
{
horizontal = 1;
origin = (1,5);
target = (0,5);
type = TTStem;
},
{
options = 4;
origin = (1,8);
target = (0,2);
type = TTStem;
},
{
horizontal = 1;
options = 4;
origin = (1,11);
target = (0,24);
type = TTStem;
}
);
layerId = "92EF81BF-A460-40B9-8F71-75F6CAA5A9CA";
shapes = (
{
closed = 1;
nodes = (
(801,-22,o),
(1014,177,o),
(1062,447,cs),
(1111,723,o),
(978,946,o),
(727,946,cs),
(590,946,o),
(482,888,o),
(390,737,c),
(437,975,o),
(534,1268,o),
(770,1268,cs),
(860,1268,o),
(933,1233,o),
(964,1181,c),
(1123,1293,l),
(1067,1395,o),
(939,1470,o),
(773,1470,cs),
(404,1470,o),
(215,1087,o),
(150,719,cs),
(82,333,o),
(137,-22,o),
(532,-22,cs)
);
},
{
closed = 1;
nodes = (
(400,182,o),
(338,287,o),
(363,433,cs),
(393,599,o),
(515,742,o),
(673,742,cs),
(817,742,o),
(855,615,o),
(830,469,cs),
(801,305,o),
(698,182,o),
(538,182,cs)
);
}
);
width = 1200;
}
);
note = six;
unicode = 54;
}
{
glyphname = seven;
layers = (
{
hints = (
{
horizontal = 1;
options = 4;
origin = (0,6);
type = TTSnap;
},
{
horizontal = 1;
options = 4;
origin = (0,4);
target = (0,3);
type = TTStem;
}
);
layerId = "63BE41E3-0F49-4E61-A903-F52A2E952C90";
shapes = (
{
closed = 1;
nodes = (
(373,0,l),
(1186,1288,l),
(1213,1450,l),
(337,1450,l),
(308,1286,l),
(988,1286,l),
(175,0,l)
);
}
);
width = 1200;
},
{
associatedMasterId = "63BE41E3-0F49-4E61-A903-F52A2E952C90";
background = {
shapes = (
{
closed = 1;
nodes = (
(56,1100,l),
(684,1100,l),
(174,0,l),
(570,0,l),
(1034,1102,l),
(1034,1382,l),
(56,1382,l),
(56,1382,l)
);
}
);
};
layerId = "21E2753D-042D-4D19-89C8-430560CC5AF5";
name = "new Layer";
shapes = (
{
closed = 1;
nodes = (
(534,0,l),
(1034,1102,l),
(1042,1428,l),
(46,1428,l),
(38,1110,l),
(700,1110,l),
(166,0,l)
);
}
);
width = 1200;
},
{
hints = (
{
horizontal = 1;
options = 4;
origin = (0,6);
stem = -1;
type = TTSnap;
},
{
horizontal = 1;
options = 4;
origin = (0,4);
target = (0,3);
type = TTStem;
}
);
layerId = "F48F13AC-C425-4574-8B52-7DBCB7751002";
shapes = (
{
closed = 1;
nodes = (
(494,0,l),
(1212,1190,l),
(1255,1450,l),
(255,1450,l),
(210,1194,l),
(892,1194,l),
(168,0,l)
);
}
);
width = 1200;
},
{
hints = (
{
horizontal = 1;
options = 4;
origin = (0,6);
stem = -1;
type = TTSnap;
},
{
horizontal = 1;
options = 4;
origin = (0,4);
target = (0,3);
type = TTStem;
}
);
layerId = "4FB9B80E-81B5-47C9-A539-BB7C5ADDFB58";
shapes = (
{
closed = 1;
nodes = (
(342,0,l),
(1149,1310,l),
(1170,1450,l),
(315,1450,l),
(293,1312,l),
(981,1312,l),
(180,0,l)
);
}
);
width = 1200;
},
{
hints = (
{
horizontal = 1;
options = 4;
origin = (0,6);
type = TTSnap;
},
{
horizontal = 1;
options = 4;
origin = (0,4);
target = (0,3);
type = TTStem;
}
);
layerId = "92EF81BF-A460-40B9-8F71-75F6CAA5A9CA";
shapes = (
{
closed = 1;
nodes = (
(434,0,l),
(1200,1240,l),
(1235,1450,l),
(297,1450,l),
(260,1240,l),
(957,1240,l),
(188,0,l)
);
}
);
width = 1200;
}
);
note = seven;
unicode = 55;
}
{
glyphname = eight;
layers = (
{
hints = (
{
horizontal = 1;
options = 4;
origin = (0,25);
target = (1,11);
type = TTStem;
},
{
horizontal = 1;
options = 4;
origin = (1,5);
target = (2,11);
type = TTStem;
},
{
horizontal = 1;
options = 4;
origin = (2,5);
target = (0,12);
type = TTStem;
},
{
horizontal = 1;
origin = (1,5);
target = (2,11);
type = TTStem;
},
{
horizontal = 1;
origin = (0,25);
target = (1,11);
type = TTStem;
},
{
options = 4;
origin = (0,22);
target = (1,2);
type = TTStem;
},
{
options = 4;
origin = (1,8);
target = (0,2);
type = TTStem;
},
{
options = 4;
origin = (0,15);
target = (2,2);
type = TTStem;
},
{
options = 4;
origin = (2,8);
target = (0,9);
type = TTStem;
}
);
layerId = "63BE41E3-0F49-4E61-A903-F52A2E952C90";
shapes = (
{
closed = 1;
nodes = (
(746,-14,o),
(996,96,o),
(1050,402,cs),
(1088,618,o),
(945,757,o),
(775,797,c),
(774,735,l),
(946,769,o),
(1078,900,o),
(1112,1094,cs),
(1157,1352,o),
(971,1470,o),
(754,1470,cs),
(561,1470,o),
(332,1358,o),
(288,1104,cs),
(250,890,o),
(349,778,o),
(501,730,c),
(501,793,l),
(317,767,o),
(140,630,o),
(101,408,cs),
(48,108,o),
(268,-14,o),
(513,-14,cs)
);
},
{
closed = 1;
nodes = (
(361,130,o),
(244,220,o),
(275,398,cs),
(309,590,o),
(470,692,o),
(637,692,cs),
(790,692,o),
(911,612,o),
(878,426,cs),
(844,232,o),
(677,130,o),
(518,130,cs)
);
},
{
closed = 1;
nodes = (
(489,866,o),
(419,944,o),
(442,1074,cs),
(471,1234,o),
(585,1334,o),
(750,1334,cs),
(909,1334,o),
(979,1246,o),
(953,1102,cs),
(928,958,o),
(811,866,o),
(648,866,cs)
);
}
);
width = 1200;
},
{
associatedMasterId = "63BE41E3-0F49-4E61-A903-F52A2E952C90";
background = {
shapes = (
{
closed = 1;
nodes = (
(490,222,o),
(416,262,o),
(376,322,o),
(360,390,o),
(360,416,qs),
(360,448,o),
(378,518,o),
(422,576,o),
(494,612,o),
(546,612,qs),
(650,612,o),
(744,492,o),
(744,414,qs),
(744,384,o),
(726,316,o),
(682,258,o),
(606,222,o),
(550,222,q),
(550,222,l)
);
},
{
closed = 1;
nodes = (
(466,852,o),
(394,954,o),
(394,1024,qs),
(394,1110,o),
(488,1192,o),
(550,1192,qs),
(596,1192,o),
(656,1158,o),
(692,1106,o),
(708,1046,o),
(708,1022,qs),
(708,1010,o),
(700,952,o),
(670,896,o),
(606,852,o),
(552,852,q),
(552,852,l)
);
},
{
closed = 1;
nodes = (
(360,730,l),
(200,698,o),
(56,504,o),
(56,376,qs),
(56,300,o),
(106,156,o),
(226,42,o),
(420,-28,o),
(564,-28,qs),
(690,-28,o),
(872,36,o),
(988,148,o),
(1042,298,o),
(1042,386,qs),
(1042,526,o),
(892,706,o),
(750,724,q),
(750,734,l),
(824,750,o),
(920,822,o),
(978,914,o),
(1000,1014,o),
(1000,1058,qs),
(1000,1166,o),
(950,1246,qs),
(916,1300,o),
(830,1368,o),
(728,1408,o),
(616,1424,o),
(558,1424,qs),
(480,1424,o),
(370,1404,o),
(290,1374,o),
(234,1338,o),
(216,1322,qs),
(174,1288,o),
(102,1154,o),
(102,1052,qs),
(102,980,o),
(142,868,o),
(212,788,o),
(306,742,o),
(360,736,q),
(360,736,l)
);
}
);
};
layerId = "21E2753D-042D-4D19-89C8-430560CC5AF5";
name = "new Layer";
shapes = (
{
closed = 1;
nodes = (
(784,-6,o),
(1052,128,o),
(1052,408,cs),
(1052,634,o),
(856,724,o),
(780,766,c),
(780,740,l),
(844,770,o),
(1000,838,o),
(1000,1056,cs),
(1000,1308,o),
(768,1428,o),
(558,1428,cs),
(354,1428,o),
(102,1316,o),
(102,1056,cs),
(102,846,o),
(266,776,o),
(324,732,c),
(324,760,l),
(246,732,o),
(54,612,o),
(54,390,cs),
(54,106,o),
(322,-6,o),
(556,-6,cs)
);
},
{
closed = 1;
nodes = (
(452,222,o),
(366,292,o),
(366,418,cs),
(366,546,o),
(454,610,o),
(552,610,cs),
(650,610,o),
(742,552,o),
(742,420,cs),
(742,292,o),
(648,222,o),
(550,222,cs)
);
},
{
closed = 1;
nodes = (
(466,852,o),
(394,902,o),
(394,1018,cs),
(394,1144,o),
(466,1192,o),
(550,1192,cs),
(632,1192,o),
(708,1144,o),
(708,1022,cs),
(708,902,o),
(634,852,o),
(550,852,cs)
);
}
);
width = 1200;
},
{
hints = (
{
horizontal = 1;
options = 4;
origin = (0,25);
target = (1,11);
type = TTStem;
},
{
horizontal = 1;
options = 4;
origin = (1,5);
target = (2,11);
type = TTStem;
},
{
horizontal = 1;
options = 4;
origin = (2,5);
target = (0,12);
type = TTStem;
}
);
layerId = "F48F13AC-C425-4574-8B52-7DBCB7751002";
shapes = (
{
closed = 1;
nodes = (
(746,-20,o),
(1029,101,o),
(1080,394,cs),
(1123,633,o),
(935,741,o),
(864,781,c),
(879,749,l),
(948,783,o),
(1093,873,o),
(1128,1070,cs),
(1176,1345,o),
(962,1470,o),
(750,1470,cs),
(564,1470,o),
(312,1367,o),
(268,1114,cs),
(229,895,o),
(365,802,o),
(417,760,c),
(402,790,l),
(319,758,o),
(117,655,o),
(78,438,cs),
(23,123,o),
(280,-20,o),
(526,-20,cs)
);
},
{
closed = 1;
nodes = (
(426,220,o),
(357,285,o),
(376,394,cs),
(404,553,o),
(520,626,o),
(636,626,cs),
(732,626,o),
(810,575,o),
(786,438,cs),
(763,307,o),
(638,220,o),
(522,220,cs)
);
},
{
closed = 1;
nodes = (
(573,920,o),
(521,955,o),
(542,1070,cs),
(564,1199,o),
(653,1256,o),
(745,1256,cs),
(813,1256,o),
(870,1221,o),
(852,1114,cs),
(827,977,o),
(735,920,o),
(645,920,cs)
);
}
);
width = 1200;
},
{
hints = (
{
horizontal = 1;
options = 4;
origin = (0,25);
target = (1,11);
type = TTStem;
},
{
horizontal = 1;
options = 4;
origin = (1,5);
target = (2,11);
type = TTStem;
},
{
horizontal = 1;
options = 4;
origin = (2,5);
target = (0,12);
type = TTStem;
}
);
layerId = "4FB9B80E-81B5-47C9-A539-BB7C5ADDFB58";
shapes = (
{
closed = 1;
nodes = (
(754,-16,o),
(996,93,o),
(1044,403,cs),
(1078,613,o),
(943,757,o),
(755,797,c),
(753,729,l),
(940,763,o),
(1067,905,o),
(1096,1099,cs),
(1138,1353,o),
(956,1470,o),
(740,1470,cs),
(544,1470,o),
(323,1355,o),
(284,1097,cs),
(249,885,o),
(341,771,o),
(512,723,c),
(514,793,l),
(312,767,o),
(144,627,o),
(110,403,cs),
(61,103,o),
(274,-16,o),
(520,-16,cs)
);
},
{
closed = 1;
nodes = (
(359,112,o),
(230,209,o),
(259,397,cs),
(292,595,o),
(458,702,o),
(634,702,cs),
(796,702,o),
(928,615,o),
(898,419,cs),
(865,219,o),
(691,112,o),
(525,112,cs)
);
},
{
closed = 1;
nodes = (
(468,856,o),
(394,941,o),
(414,1075,cs),
(442,1239,o),
(560,1346,o),
(736,1346,cs),
(910,1346,o),
(986,1249,o),
(964,1097,cs),
(939,951,o),
(818,856,o),
(642,856,cs)
);
}
);
width = 1200;
},
{
hints = (
{
horizontal = 1;
options = 4;
origin = (0,25);
target = (1,11);
type = TTStem;
},
{
horizontal = 1;
options = 4;
origin = (1,5);
target = (2,11);
type = TTStem;
},
{
horizontal = 1;
options = 4;
origin = (2,5);
target = (0,12);
type = TTStem;
},
{
horizontal = 1;
origin = (1,5);
target = (2,11);
type = TTStem;
},
{
horizontal = 1;
origin = (0,25);
target = (1,11);
type = TTStem;
},
{
options = 4;
origin = (0,22);
target = (1,2);
type = TTStem;
},
{
options = 4;
origin = (1,8);
target = (0,2);
type = TTStem;
},
{
options = 4;
origin = (0,15);
target = (2,2);
type = TTStem;
},
{
options = 4;
origin = (2,8);
target = (0,9);
type = TTStem;
}
);
layerId = "92EF81BF-A460-40B9-8F71-75F6CAA5A9CA";
shapes = (
{
closed = 1;
nodes = (
(746,-16,o),
(1013,99,o),
(1065,399,cs),
(1105,625,o),
(940,749,o),
(819,791,c),
(827,744,l),
(947,778,o),
(1085,887,o),
(1120,1083,cs),
(1167,1347,o),
(967,1470,o),
(753,1470,cs),
(563,1470,o),
(323,1361,o),
(279,1109,cs),
(240,893,o),
(357,789,o),
(459,745,c),
(452,792,l),
(318,762,o),
(128,643,o),
(90,423,cs),
(36,117,o),
(274,-16,o),
(519,-16,cs)
);
},
{
closed = 1;
nodes = (
(394,174,o),
(302,253,o),
(327,397,cs),
(358,573,o),
(495,660,o),
(637,660,cs),
(761,660,o),
(862,595,o),
(833,433,cs),
(805,271,o),
(658,174,o),
(520,174,cs)
);
},
{
closed = 1;
nodes = (
(531,892,o),
(470,949,o),
(492,1073,cs),
(518,1217,o),
(619,1296,o),
(749,1296,cs),
(861,1296,o),
(925,1235,o),
(903,1109,cs),
(877,967,o),
(773,892,o),
(647,892,cs)
);
}
);
width = 1200;
}
);
note = eight;
unicode = 56;
}
{
glyphname = nine;
layers = (
{
hints = (
{
horizontal = 1;
options = 4;
origin = (0,24);
target = (0,17);
type = TTStem;
},
{
horizontal = 1;
options = 4;
origin = (0,11);
target = (1,11);
type = TTStem;
},
{
horizontal = 1;
options = 4;
origin = (1,5);
target = (0,5);
type = TTStem;
},
{
horizontal = 1;
origin = (0,11);
target = (1,11);
type = TTStem;
},
{
horizontal = 1;
origin = (0,24);
target = (0,17);
type = TTStem;
},
{
options = 4;
origin = (0,8);
target = (1,2);
type = TTStem;
}
);
layerId = "63BE41E3-0F49-4E61-A903-F52A2E952C90";
shapes = (
{
closed = 1;
nodes = (
(901,-18,o),
(1040,400,o),
(1106,778,cs),
(1175,1170,o),
(1141,1470,o),
(750,1470,cs),
(493,1470,o),
(264,1296,o),
(217,1030,cs),
(169,760,o),
(316,556,o),
(567,556,cs),
(712,556,o),
(847,621,o),
(942,765,c),
(894,538,o),
(808,126,o),
(491,126,cs),
(356,126,o),
(281,176,o),
(261,312,c),
(111,270,l),
(112,90,o),
(267,-18,o),
(486,-18,cs)
);
},
{
closed = 1;
nodes = (
(426,694,o),
(357,828,o),
(387,1000,cs),
(421,1192,o),
(562,1328,o),
(741,1328,cs),
(906,1328,o),
(989,1204,o),
(958,1028,cs),
(924,834,o),
(792,694,o),
(597,694,cs)
);
}
);
width = 1200;
},
{
associatedMasterId = "63BE41E3-0F49-4E61-A903-F52A2E952C90";
background = {
shapes = (
{
closed = 1;
nodes = (
(526,738,o),
(452,778,o),
(406,840,o),
(386,918,o),
(386,958,qs),
(386,1048,o),
(482,1174,o),
(586,1174,qs),
(644,1174,o),
(722,1132,o),
(766,1066,o),
(786,988,o),
(786,954,qs),
(786,860,o),
(686,738,o),
(582,738,q),
(582,738,l)
);
},
{
closed = 1;
nodes = (
(62,356,l),
(62,334,o),
(70,278,o),
(84,218,o),
(116,154,o),
(140,124,qs),
(218,32,o),
(440,-32,o),
(562,-32,qs),
(624,-32,o),
(744,-16,o),
(856,28,o),
(964,104,o),
(1008,166,qs),
(1050,224,o),
(1106,356,o),
(1138,494,o),
(1148,630,o),
(1148,690,qs),
(1148,798,o),
(1116,1010,o),
(1078,1110,qs),
(1062,1154,o),
(998,1264,o),
(886,1362,o),
(714,1428,o),
(588,1428,qs),
(466,1428,o),
(270,1356,o),
(128,1228,o),
(52,1052,o),
(52,946,qs),
(52,850,o),
(114,688,o),
(168,626,qs),
(218,568,o),
(366,500,o),
(496,500,qs),
(554,500,o),
(644,522,o),
(716,562,o),
(772,612,o),
(796,642,q),
(794,548,o),
(780,394,o),
(732,280,o),
(646,218,o),
(572,218,qs),
(494,218,o),
(404,298,o),
(402,356,q),
(402,356,l)
);
}
);
};
layerId = "21E2753D-042D-4D19-89C8-430560CC5AF5";
name = "new Layer";
shapes = (
{
closed = 1;
nodes = (
(966,-32,o),
(1148,212,o),
(1148,798,cs),
(1148,1170,o),
(964,1426,o),
(548,1426,cs),
(292,1426,o),
(52,1208,o),
(52,946,cs),
(52,690,o),
(206,500,o),
(496,500,cs),
(642,500,o),
(728,540,o),
(796,642,c),
(796,238,o),
(668,218,o),
(572,218,cs),
(490,218,o),
(374,234,o),
(336,372,c),
(78,246,l),
(146,70,o),
(292,-32,o),
(556,-32,cs)
);
},
{
closed = 1;
nodes = (
(456,738,o),
(386,834,o),
(386,958,cs),
(386,1084,o),
(466,1178,o),
(590,1178,cs),
(710,1178,o),
(786,1078,o),
(786,954,cs),
(786,824,o),
(716,738,o),
(582,738,cs)
);
}
);
width = 1200;
},
{
hints = (
{
horizontal = 1;
options = 4;
origin = (0,24);
target = (0,17);
type = TTStem;
},
{
horizontal = 1;
options = 4;
origin = (0,11);
target = (1,11);
type = TTStem;
},
{
horizontal = 1;
options = 4;
origin = (1,5);
target = (0,5);
type = TTStem;
}
);
layerId = "F48F13AC-C425-4574-8B52-7DBCB7751002";
shapes = (
{
closed = 1;
nodes = (
(870,-20,o),
(1070,223,o),
(1173,808,cs),
(1245,1211,o),
(1118,1470,o),
(710,1470,cs),
(476,1470,o),
(209,1279,o),
(161,1010,cs),
(113,739,o),
(234,526,o),
(520,526,cs),
(650,526,o),
(739,559,o),
(825,674,c),
(781,457,o),
(721,228,o),
(507,228,cs),
(429,228,o),
(345,258,o),
(319,386,c),
(60,278,l),
(94,100,o),
(218,-20,o),
(494,-20,cs)
);
},
{
closed = 1;
nodes = (
(494,768,o),
(454,855,o),
(474,970,cs),
(499,1109,o),
(604,1216,o),
(732,1216,cs),
(838,1216,o),
(883,1125,o),
(863,1010,cs),
(838,867,o),
(742,768,o),
(604,768,cs)
);
}
);
width = 1200;
},
{
hints = (
{
horizontal = 1;
options = 4;
origin = (0,24);
target = (0,17);
type = TTStem;
},
{
horizontal = 1;
options = 4;
origin = (0,11);
target = (1,11);
type = TTStem;
},
{
horizontal = 1;
options = 4;
origin = (1,5);
target = (0,5);
type = TTStem;
}
);
layerId = "4FB9B80E-81B5-47C9-A539-BB7C5ADDFB58";
shapes = (
{
closed = 1;
nodes = (
(918,-20,o),
(1037,425,o),
(1090,773,cs),
(1154,1163,o),
(1134,1470,o),
(746,1470,cs),
(484,1470,o),
(261,1289,o),
(220,1025,cs),
(175,751,o),
(331,558,o),
(575,558,cs),
(723,558,o),
(863,630,o),
(960,774,c),
(920,581,o),
(852,108,o),
(498,108,cs),
(352,108,o),
(277,160,o),
(255,298,c),
(129,267,l),
(126,85,o),
(288,-20,o),
(496,-20,cs)
);
},
{
closed = 1;
nodes = (
(415,682,o),
(336,823,o),
(363,1007,cs),
(396,1205,o),
(542,1348,o),
(730,1348,cs),
(906,1348,o),
(999,1215,o),
(971,1029,cs),
(938,829,o),
(801,682,o),
(597,682,cs)
);
}
);
width = 1200;
},
{
hints = (
{
horizontal = 1;
options = 4;
origin = (0,24);
target = (0,17);
type = TTStem;
},
{
horizontal = 1;
options = 4;
origin = (0,11);
target = (1,11);
type = TTStem;
},
{
horizontal = 1;
options = 4;
origin = (1,5);
target = (0,5);
type = TTStem;
},
{
horizontal = 1;
origin = (0,11);
target = (1,11);
type = TTStem;
},
{
horizontal = 1;
origin = (0,24);
target = (0,17);
type = TTStem;
},
{
options = 4;
origin = (0,8);
target = (1,2);
type = TTStem;
}
);
layerId = "92EF81BF-A460-40B9-8F71-75F6CAA5A9CA";
shapes = (
{
closed = 1;
nodes = (
(886,-16,o),
(1057,317,o),
(1142,799,cs),
(1211,1193,o),
(1123,1470,o),
(723,1470,cs),
(479,1470,o),
(235,1283,o),
(188,1017,cs),
(141,747,o),
(277,546,o),
(545,546,cs),
(683,546,o),
(794,594,o),
(884,723,c),
(840,505,o),
(757,180,o),
(500,180,cs),
(393,180,o),
(314,224,o),
(291,354,c),
(88,282,l),
(105,102,o),
(244,-16,o),
(491,-16,cs)
);
},
{
closed = 1;
nodes = (
(461,736,o),
(406,847,o),
(431,989,cs),
(461,1155,o),
(584,1276,o),
(737,1276,cs),
(874,1276,o),
(937,1169,o),
(911,1023,cs),
(882,857,o),
(769,736,o),
(602,736,cs)
);
}
);
width = 1200;
}
);
note = nine;
unicode = 57;
}
{
glyphname = semicolon;
layers = (
{
hints = (
{
horizontal = 1;
options = 4;
origin = (0,2);
target = (0,30);
type = TTStem;
},
{
horizontal = 1;
origin = (0,20);
target = (0,14);
type = TTStem;
},
{
horizontal = 1;
origin = (0,29);
type = TTSnap;
}
);
layerId = "63BE41E3-0F49-4E61-A903-F52A2E952C90";
shapes = (
{
closed = 1;
nodes = (
(290,-308,o),
(332,-304,o),
(360,-300,cs),
(378,-292,o),
(483,-258,o),
(549,-212,cs),
(609,-158,o),
(652,-94,o),
(685,-14,cs),
(722,90,o),
(741,180,o),
(759,282,cs),
(786,434,o),
(726,498,o),
(591,498,cs),
(466,498,o),
(398,448,o),
(374,310,cs),
(355,206,o),
(369,120,o),
(463,92,cs),
(507,74,o),
(518,50,o),
(508,-8,cs),
(496,-76,o),
(460,-110,o),
(399,-148,cs),
(350,-190,o),
(313,-208,o),
(261,-224,c),
(256,-308,l)
);
},
{
pos = (131,790);
ref = period;
}
);
width = 1200;
},
{
hints = (
{
horizontal = 1;
options = 4;
place = (-213, 54);
type = TTStem;
},
{
horizontal = 1;
options = 4;
place = (69, 173);
type = TTStem;
}
);
layerId = "F48F13AC-C425-4574-8B52-7DBCB7751002";
shapes = (
{
closed = 1;
nodes = (
(267,-352,o),
(298,-354,o),
(347,-349,cs),
(377,-341,o),
(489,-304,o),
(561,-258,cs),
(623,-195,o),
(682,-115,o),
(714,-34,cs),
(746,65,o),
(767,159,o),
(783,250,cs),
(815,429,o),
(742,518,o),
(580,518,cs),
(436,518,o),
(357,455,o),
(330,300,cs),
(306,165,o),
(360,86,o),
(480,50,cs),
(499,35,o),
(504,19,o),
(501,-2,cs),
(490,-61,o),
(453,-113,o),
(379,-150,cs),
(318,-200,o),
(265,-227,o),
(203,-241,c),
(204,-352,l)
);
},
{
pos = (133,756);
ref = period;
}
);
width = 1200;
},
{
hints = (
{
horizontal = 1;
options = 4;
place = (-244, 40);
type = TTStem;
},
{
horizontal = 1;
options = 4;
origin = (0,2);
target = (0,30);
type = TTStem;
}
);
layerId = "4FB9B80E-81B5-47C9-A539-BB7C5ADDFB58";
shapes = (
{
closed = 1;
nodes = (
(303,-300,o),
(348,-296,o),
(370,-292,cs),
(387,-284,o),
(489,-252,o),
(553,-205,cs),
(613,-152,o),
(650,-91,o),
(680,-10,cs),
(719,95,o),
(736,183,o),
(751,289,cs),
(776,435,o),
(719,494,o),
(587,494,cs),
(465,494,o),
(403,447,o),
(384,312,cs),
(366,213,o),
(373,125,o),
(463,99,cs),
(510,82,o),
(515,55,o),
(506,-10,cs),
(494,-79,o),
(455,-121,o),
(400,-157,cs),
(352,-198,o),
(328,-210,o),
(277,-228,c),
(274,-300,l)
);
},
{
alignment = -1;
pos = (110,796);
ref = period;
}
);
width = 1200;
},
{
hints = (
{
horizontal = 1;
options = 4;
origin = (0,2);
target = (0,30);
type = TTStem;
},
{
horizontal = 1;
origin = (0,20);
target = (0,14);
type = TTStem;
},
{
horizontal = 1;
origin = (0,29);
type = TTSnap;
}
);
layerId = "92EF81BF-A460-40B9-8F71-75F6CAA5A9CA";
shapes = (
{
closed = 1;
nodes = (
(278,-330,o),
(316,-330,o),
(354,-325,cs),
(378,-317,o),
(487,-282,o),
(556,-237,cs),
(617,-177,o),
(668,-105,o),
(699,-25,cs),
(734,77,o),
(755,169,o),
(772,267,cs),
(801,431,o),
(735,508,o),
(585,508,cs),
(451,508,o),
(379,453,o),
(353,305,cs),
(332,187,o),
(364,103,o),
(472,71,cs),
(503,54,o),
(511,35,o),
(504,-5,cs),
(493,-69,o),
(457,-113,o),
(389,-149,cs),
(335,-196,o),
(289,-218,o),
(233,-234,c),
(231,-330,l)
);
},
{
alignment = -1;
pos = (132,774);
ref = period;
}
);
width = 1200;
}
);
note = semicolon;
unicode = 59;
}
{
glyphname = less;
layers = (
{
guides = (
{
locked = 1;
name = "subscript cap top";
pos = (-97,400);
},
{
locked = 1;
name = "subscript lc  top";
pos = (-158,280);
},
{
locked = 1;
name = "subscript bottom";
pos = (-341,-79);
},
{
locked = 1;
name = "superscript bottom + ";
pos = (-135,384);
},
{
locked = 1;
name = "top lower fraction";
pos = (-206,342);
},
{
locked = 1;
name = "superscript lc top";
pos = (60,766);
},
{
locked = 1;
name = "superscript cap top";
pos = (110,863);
},
{
locked = 1;
name = "midpoint lowercase";
pos = (-151,275);
}
);
hints = (
{
horizontal = 1;
origin = (0,2);
target = (0,3);
type = TTStem;
},
{
horizontal = 1;
origin = (0,6);
target = (0,0);
type = TTStem;
},
{
horizontal = 1;
origin = (0,5);
target = (0,4);
type = TTStem;
}
);
layerId = "63BE41E3-0F49-4E61-A903-F52A2E952C90";
shapes = (
{
closed = 1;
nodes = (
(964,269,l),
(362,550,l),
(1064,831,l),
(1099,1039,l),
(149,659,l),
(112,441,l),
(928,61,l)
);
}
);
width = 1200;
},
{
hints = (
{
horizontal = 1;
options = 4;
origin = (0,3);
stem = -1;
type = TTSnap;
}
);
layerId = "F48F13AC-C425-4574-8B52-7DBCB7751002";
shapes = (
{
closed = 1;
nodes = (
(1032,308,l),
(469,550,l),
(1120,792,l),
(1164,1056,l),
(147,644,l),
(119,468,l),
(988,44,l)
);
}
);
width = 1200;
},
{
layerId = "4FB9B80E-81B5-47C9-A539-BB7C5ADDFB58";
shapes = (
{
closed = 1;
nodes = (
(977,244,l),
(373,548,l),
(1076,829,l),
(1109,1042,l),
(181,666,l),
(146,436,l),
(947,51,l)
);
}
);
width = 1200;
},
{
hints = (
{
horizontal = 1;
origin = (0,2);
target = (0,3);
type = TTStem;
},
{
horizontal = 1;
origin = (0,6);
target = (0,0);
type = TTStem;
},
{
horizontal = 1;
origin = (0,5);
target = (0,4);
type = TTStem;
}
);
layerId = "92EF81BF-A460-40B9-8F71-75F6CAA5A9CA";
shapes = (
{
closed = 1;
nodes = (
(1000,293,l),
(424,550,l),
(1093,809,l),
(1133,1051,l),
(149,655,l),
(116,452,l),
(959,50,l)
);
}
);
width = 1200;
}
);
note = less;
unicode = 60;
}
{
glyphname = equal;
layers = (
{
hints = (
{
options = 4;
origin = (0,2);
target = (0,1);
type = TTStem;
}
);
layerId = "63BE41E3-0F49-4E61-A903-F52A2E952C90";
shapes = (
{
closed = 1;
nodes = (
(1079,658,l),
(1113,848,l),
(195,848,l),
(161,658,l)
);
},
{
closed = 1;
nodes = (
(1008,256,l),
(1042,446,l),
(124,446,l),
(90,256,l)
);
}
);
width = 1200;
},
{
layerId = "F48F13AC-C425-4574-8B52-7DBCB7751002";
shapes = (
{
closed = 1;
nodes = (
(1124,688,l),
(1168,938,l),
(174,938,l),
(130,688,l)
);
},
{
closed = 1;
nodes = (
(1032,162,l),
(1076,412,l),
(82,412,l),
(38,162,l)
);
}
);
width = 1200;
},
{
hints = (
{
horizontal = 1;
options = 4;
origin = (1,3);
target = (1,2);
type = TTStem;
},
{
horizontal = 1;
options = 4;
origin = (0,3);
target = (0,2);
type = TTStem;
}
);
layerId = "4FB9B80E-81B5-47C9-A539-BB7C5ADDFB58";
shapes = (
{
closed = 1;
nodes = (
(1070,658,l),
(1098,838,l),
(193,838,l),
(165,658,l)
);
},
{
closed = 1;
nodes = (
(1007,264,l),
(1036,446,l),
(131,446,l),
(102,264,l)
);
}
);
width = 1200;
},
{
hints = (
{
options = 4;
origin = (0,2);
target = (0,1);
type = TTStem;
}
);
layerId = "92EF81BF-A460-40B9-8F71-75F6CAA5A9CA";
shapes = (
{
closed = 1;
nodes = (
(1102,674,l),
(1141,894,l),
(185,894,l),
(146,674,l)
);
},
{
closed = 1;
nodes = (
(1020,210,l),
(1059,430,l),
(103,430,l),
(64,210,l)
);
}
);
width = 1200;
}
);
note = equal;
unicode = 61;
}
{
glyphname = question;
layers = (
{
hints = (
{
horizontal = 1;
options = 4;
origin = (0,10);
target = (0,17);
type = TTStem;
},
{
horizontal = 1;
options = 4;
origin = (1,11);
target = (1,5);
type = TTStem;
},
{
options = 4;
origin = (0,27);
target = (0,0);
type = TTStem;
},
{
options = 4;
origin = (0,13);
target = (0,14);
type = TTStem;
},
{
options = 4;
origin = (1,8);
target = (1,2);
type = TTStem;
},
{
horizontal = 1;
options = 1;
origin = (0,27);
type = TTSnap;
},
{
options = 4;
origin = (1,8);
target = (1,2);
type = TTStem;
}
);
layerId = "63BE41E3-0F49-4E61-A903-F52A2E952C90";
shapes = (
{
closed = 1;
nodes = (
(673,398,l),
(696,528,ls),
(708,598,o),
(741,622,o),
(810,668,c),
(976,824,o),
(1132,926,o),
(1170,1140,cs),
(1212,1376,o),
(1076,1518,o),
(755,1518,cs),
(679,1518,o),
(358,1514,o),
(288,1118,c),
(478,1117,l),
(501,1278,o),
(627,1334,o),
(764,1334,cs),
(903,1334,o),
(987,1268,o),
(964,1140,cs),
(927,930,o),
(676,842,o),
(560,697,cs),
(524,643,o),
(521,611,o),
(508,540,cs),
(483,398,l)
);
},
{
closed = 1;
nodes = (
(614,-2,o),
(657,34,o),
(674,132,cs),
(694,242,o),
(655,290,o),
(546,290,cs),
(447,290,o),
(404,254,o),
(386,156,cs),
(367,46,o),
(406,-2,o),
(515,-2,cs)
);
}
);
width = 1200;
},
{
hints = (
{
horizontal = 1;
options = 4;
place = (-67, 148);
type = TTStem;
},
{
horizontal = 1;
options = 4;
place = (1247, 106);
type = TTStem;
}
);
layerId = "F48F13AC-C425-4574-8B52-7DBCB7751002";
shapes = (
{
closed = 1;
nodes = (
(693,407,l),
(711,500,ls),
(725,570,o),
(810,661,o),
(894,731,cs),
(987,809,o),
(1134,933,o),
(1173,1155,cs),
(1212,1377,o),
(1111,1518,o),
(813,1518,cs),
(442,1518,o),
(329,1321,o),
(250,1056,c),
(508,1059,l),
(529,1180,o),
(614,1276,o),
(746,1276,cs),
(862,1276,o),
(899,1203,o),
(883,1113,cs),
(857,964,o),
(714,895,o),
(632,824,cs),
(530,736,o),
(474,594,o),
(461,527,cs),
(438,407,l)
);
},
{
closed = 1;
nodes = (
(630,-5,o),
(682,38,o),
(701,147,cs),
(724,276,o),
(671,343,o),
(543,343,cs),
(435,343,o),
(384,298,o),
(365,191,cs),
(342,60,o),
(394,-5,o),
(522,-5,cs)
);
}
);
width = 1200;
},
{
hints = (
{
horizontal = 1;
options = 4;
place = (-48, 212.167);
type = TTStem;
},
{
horizontal = 1;
options = 4;
origin = (0,10);
target = (0,17);
type = TTStem;
},
{
horizontal = 1;
options = 4;
origin = (1,11);
target = (1,5);
type = TTStem;
}
);
layerId = "4FB9B80E-81B5-47C9-A539-BB7C5ADDFB58";
shapes = (
{
closed = 1;
nodes = (
(633,396,l),
(650,514,ls),
(662,597,o),
(700,634,o),
(757,682,cs),
(914,814,o),
(1087,909,o),
(1121,1157,cs),
(1152,1382,o),
(1040,1518,o),
(773,1518,cs),
(595,1518,o),
(329,1457,o),
(268,1135,c),
(429,1134,l),
(449,1264,o),
(581,1365,o),
(724,1365,cs),
(865,1365,o),
(948,1267,o),
(932,1146,cs),
(910,984,o),
(724,881,o),
(622,792,cs),
(529,710,o),
(495,629,o),
(483,549,cs),
(460,396,l)
);
},
{
closed = 1;
nodes = (
(601,0,o),
(638,31,o),
(652,126,cs),
(667,226,o),
(639,268,o),
(533,268,cs),
(442,268,o),
(406,237,o),
(392,142,cs),
(377,41,o),
(406,0,o),
(510,0,cs)
);
}
);
width = 1200;
},
{
hints = (
{
horizontal = 1;
options = 4;
origin = (0,10);
target = (0,17);
type = TTStem;
},
{
horizontal = 1;
options = 4;
origin = (1,11);
target = (1,5);
type = TTStem;
},
{
options = 4;
origin = (0,27);
target = (0,0);
type = TTStem;
},
{
options = 4;
origin = (0,13);
target = (0,14);
type = TTStem;
},
{
options = 4;
origin = (1,8);
target = (1,2);
type = TTStem;
},
{
horizontal = 1;
options = 1;
origin = (0,27);
type = TTSnap;
},
{
options = 4;
origin = (1,8);
target = (1,2);
type = TTStem;
}
);
layerId = "92EF81BF-A460-40B9-8F71-75F6CAA5A9CA";
shapes = (
{
closed = 1;
nodes = (
(677,399,l),
(693,487,ls),
(704,546,o),
(753,608,o),
(842,683,cs),
(909,738,o),
(1121,907,o),
(1168,1145,cs),
(1220,1405,o),
(1029,1518,o),
(805,1518,cs),
(580,1518,o),
(314,1405,o),
(261,1087,c),
(483,1087,l),
(509,1242,o),
(623,1300,o),
(747,1300,cs),
(881,1300,o),
(944,1233,o),
(908,1110,cs),
(862,950,o),
(688,841,o),
(597,750,cs),
(506,659,o),
(477,573,o),
(465,507,cs),
(446,399,l)
);
},
{
closed = 1;
nodes = (
(622,-4,o),
(670,37,o),
(688,140,cs),
(709,259,o),
(664,318,o),
(543,318,cs),
(442,318,o),
(394,277,o),
(376,174,cs),
(355,55,o),
(400,-4,o),
(519,-4,cs)
);
}
);
width = 1200;
}
);
note = question;
unicode = 63;
}
{
glyphname = at;
layers = (
{
guides = (
{
pos = (286,359);
}
);
hints = (
{
horizontal = 1;
options = 4;
origin = (0,39);
target = (0,2);
type = TTStem;
},
{
horizontal = 1;
options = 4;
origin = (0,21);
target = (1,12);
type = TTStem;
},
{
horizontal = 1;
options = 4;
origin = (0,15);
target = (1,5);
type = TTStem;
},
{
horizontal = 1;
options = 4;
origin = (0,8);
target = (0,33);
type = TTStem;
},
{
horizontal = 1;
options = 4;
origin = (0,25);
target = (1,12);
type = TTStem;
},
{
horizontal = 1;
place = (1349, 70);
type = TTStem;
},
{
horizontal = 1;
origin = (1,5);
target = (0,15);
type = TTStem;
},
{
horizontal = 1;
origin = (0,21);
target = (1,12);
type = TTStem;
},
{
horizontal = 1;
origin = (0,0);
target = (0,1);
type = TTStem;
}
);
layerId = "63BE41E3-0F49-4E61-A903-F52A2E952C90";
shapes = (
{
closed = 1;
nodes = (
(959,-374,l,{
stroke = {
w = "1";
};
}),
(989,-202,l,{
stroke = {
w = "1";
};
}),
(644,-202,ls,{
stroke = {
w = "1";
};
}),
(211,-202,o,{
stroke = {
w = "1";
};
}),
(141,-70,o,{
stroke = {
w = "1";
};
}),
(242,505,cs,{
stroke = {
w = "1";
};
}),
(340,1062,o,{
stroke = {
w = "1";
};
}),
(489,1373,o,{
stroke = {
w = "1";
};
}),
(799,1373,cs,{
stroke = {
w = "1";
};
}),
(1080,1373,o,{
stroke = {
w = "1";
};
}),
(1029,1111,o,{
stroke = {
w = "1";
};
}),
(1017,1042,cs,{
stroke = {
w = "1";
};
}),
(1002,977,l,{
stroke = {
w = "1";
};
}),
(962,1028,o,{
stroke = {
w = "1";
};
}),
(884,1060,o,{
stroke = {
w = "1";
};
}),
(791,1060,cs,{
stroke = {
w = "1";
};
}),
(578,1060,o,{
stroke = {
w = "1";
};
}),
(454,851,o,{
stroke = {
w = "1";
};
}),
(403,561,cs,{
stroke = {
w = "1";
};
}),
(351,269,o,{
stroke = {
w = "1";
};
}),
(393,-12,o,{
stroke = {
w = "1";
};
}),
(627,-12,cs,{
stroke = {
w = "1";
};
}),
(719,-12,o,{
stroke = {
w = "1";
};
}),
(823,31,o,{
stroke = {
w = "1";
};
}),
(863,104,c,{
stroke = {
w = "1";
};
}),
(864,0,l,{
stroke = {
w = "1";
};
}),
(1019,-6,l,{
stroke = {
w = "1";
};
}),
(1016,46,o),
(1022,178,o),
(1034,244,cs),
(1163,976,ls,{
stroke = {
w = "1";
};
}),
(1231,1360,o,{
stroke = {
w = "1";
};
}),
(1134,1534,o,{
stroke = {
w = "1";
};
}),
(801,1534,cs,{
stroke = {
w = "1";
};
}),
(357,1534,o,{
stroke = {
w = "1";
};
}),
(188,1226,o,{
stroke = {
w = "1";
};
}),
(75,585,cs,{
stroke = {
w = "1";
};
}),
(-41,-74,o,{
stroke = {
w = "1";
};
}),
(33,-374,o,{
stroke = {
w = "1";
};
}),
(520,-374,cs,{
stroke = {
w = "1";
};
})
);
},
{
closed = 1;
nodes = (
(560,122,o,{
stroke = {
w = "1";
};
}),
(517,219,o,{
stroke = {
w = "1";
};
}),
(572,531,cs,{
stroke = {
w = "1";
};
}),
(624,828,o,{
stroke = {
w = "1";
};
}),
(703,936,o,{
stroke = {
w = "1";
};
}),
(838,936,cs,{
stroke = {
w = "1";
};
}),
(939,936,o,{
stroke = {
w = "1";
};
}),
(987,875,o,{
stroke = {
w = "1";
};
}),
(966,753,cs,{
stroke = {
w = "1";
};
}),
(892,332,ls,{
stroke = {
w = "1";
};
}),
(879,261,o,{
stroke = {
w = "1";
};
}),
(808,122,o,{
stroke = {
w = "1";
};
}),
(671,122,cs,{
stroke = {
w = "1";
};
})
);
}
);
width = 1200;
},
{
hints = (
{
horizontal = 1;
options = 4;
origin = (0,39);
target = (0,2);
type = TTStem;
},
{
horizontal = 1;
options = 4;
origin = (0,25);
target = (1,12);
type = TTStem;
},
{
horizontal = 1;
options = 4;
origin = (0,12);
stem = -1;
type = TTSnap;
},
{
horizontal = 1;
options = 4;
origin = (0,33);
target = (0,8);
type = TTStem;
},
{
horizontal = 1;
options = 4;
origin = (0,21);
target = (1,12);
type = TTStem;
},
{
horizontal = 1;
options = 4;
origin = (0,15);
target = (1,5);
type = TTStem;
}
);
layerId = "F48F13AC-C425-4574-8B52-7DBCB7751002";
shapes = (
{
closed = 1;
nodes = (
(1007,-400,l),
(1052,-147,l),
(571,-147,ls),
(297,-147,o),
(203,47,o),
(290,541,cs),
(381,1054,o),
(566,1273,o),
(807,1273,cs),
(1018,1273,o),
(1017,1094,o),
(1004,1023,cs),
(989,986,l),
(932,1024,o),
(862,1044,o),
(800,1044,cs),
(657,1044,o),
(487,931,o),
(420,552,cs),
(354,175,o),
(475,7,o),
(678,7,cs),
(751,7,o),
(817,28,o),
(864,74,c),
(866,-1,l),
(1075,-12,l),
(1075,52,o),
(1082,95,o),
(1095,171,cs),
(1231,940,ls),
(1294,1298,o),
(1151,1526,o),
(800,1526,cs),
(407,1526,o),
(146,1234,o),
(31,582,cs),
(-88,-91,o),
(88,-400,o),
(554,-400,cs)
);
},
{
closed = 1;
nodes = (
(670,231,o),
(609,264,o),
(651,505,cs),
(676,647,o),
(740,833,o),
(873,833,cs),
(921,833,o),
(960,804,o),
(944,716,cs),
(884,375,ls),
(868,286,o),
(802,231,o),
(726,231,cs)
);
}
);
width = 1200;
},
{
background = {
shapes = (
{
closed = 1;
nodes = (
(911,-227,o),
(1038,14,o),
(1038,581,cs),
(1038,1149,o),
(911,1390,o),
(613,1390,cs),
(315,1390,o),
(188,1149,o),
(188,581,cs),
(188,14,o),
(315,-227,o),
(613,-227,cs)
);
}
);
};
hints = (
{
horizontal = 1;
options = 4;
origin = (0,39);
target = (0,2);
type = TTStem;
},
{
horizontal = 1;
options = 4;
origin = (0,21);
target = (1,12);
type = TTStem;
},
{
horizontal = 1;
options = 4;
origin = (0,15);
target = (1,5);
type = TTStem;
},
{
horizontal = 1;
options = 4;
origin = (0,8);
target = (0,33);
type = TTStem;
},
{
horizontal = 1;
options = 4;
origin = (0,25);
target = (1,12);
type = TTStem;
}
);
layerId = "4FB9B80E-81B5-47C9-A539-BB7C5ADDFB58";
shapes = (
{
closed = 1;
nodes = (
(974,-366,l,{
stroke = {
w = "1";
};
}),
(998,-218,l,{
stroke = {
w = "1";
};
}),
(577,-218,ls,{
stroke = {
w = "1";
};
}),
(182,-218,o,{
stroke = {
w = "1";
};
}),
(135,-14,o,{
stroke = {
w = "1";
};
}),
(220,529,cs,{
stroke = {
w = "1";
};
}),
(303,1045,o,{
stroke = {
w = "1";
};
}),
(436,1394,o,{
stroke = {
w = "1";
};
}),
(783,1394,cs,{
stroke = {
w = "1";
};
}),
(986,1394,o,{
stroke = {
w = "1";
};
}),
(1054,1273,o,{
stroke = {
w = "1";
};
}),
(1017,1041,cs,{
stroke = {
w = "1";
};
}),
(1001,964,l,{
stroke = {
w = "1";
};
}),
(990,1007,o,{
stroke = {
w = "1";
};
}),
(930,1060,o,{
stroke = {
w = "1";
};
}),
(813,1060,cs,{
stroke = {
w = "1";
};
}),
(571,1060,o,{
stroke = {
w = "1";
};
}),
(456,833,o,{
stroke = {
w = "1";
};
}),
(414,555,cs,{
stroke = {
w = "1";
};
}),
(365,259,o,{
stroke = {
w = "1";
};
}),
(415,-10,o,{
stroke = {
w = "1";
};
}),
(643,-10,cs,{
stroke = {
w = "1";
};
}),
(740,-10,o,{
stroke = {
w = "1";
};
}),
(831,40,o,{
stroke = {
w = "1";
};
}),
(877,116,c,{
stroke = {
w = "1";
};
}),
(876,0,l,{
stroke = {
w = "1";
};
}),
(1028,-4,l,{
stroke = {
w = "1";
};
}),
(1023,46,o),
(1033,193,o),
(1043,257,cs),
(1156,975,ls,{
stroke = {
w = "1";
};
}),
(1218,1363,o,{
stroke = {
w = "1";
};
}),
(1089,1528,o,{
stroke = {
w = "1";
};
}),
(785,1528,cs,{
stroke = {
w = "1";
};
}),
(322,1528,o,{
stroke = {
w = "1";
};
}),
(167,1144,o,{
stroke = {
w = "1";
};
}),
(71,533,cs,{
stroke = {
w = "1";
};
}),
(-34,-125,o,{
stroke = {
w = "1";
};
}),
(43,-366,o,{
stroke = {
w = "1";
};
}),
(554,-366,cs,{
stroke = {
w = "1";
};
})
);
},
{
closed = 1;
nodes = (
(627,118,o,{
stroke = {
w = "1";
};
}),
(497,144,o,{
stroke = {
w = "1";
};
}),
(558,537,cs,{
stroke = {
w = "1";
};
}),
(606,831,o,{
stroke = {
w = "1";
};
}),
(701,938,o,{
stroke = {
w = "1";
};
}),
(833,938,cs,{
stroke = {
w = "1";
};
}),
(931,938,o,{
stroke = {
w = "1";
};
}),
(994,879,o,{
stroke = {
w = "1";
};
}),
(973,751,cs,{
stroke = {
w = "1";
};
}),
(908,334,ls,{
stroke = {
w = "1";
};
}),
(889,218,o,{
stroke = {
w = "1";
};
}),
(802,118,o,{
stroke = {
w = "1";
};
}),
(687,118,cs,{
stroke = {
w = "1";
};
})
);
}
);
width = 1200;
},
{
hints = (
{
horizontal = 1;
options = 4;
origin = (0,39);
target = (0,2);
type = TTStem;
},
{
horizontal = 1;
options = 4;
origin = (0,21);
target = (1,12);
type = TTStem;
},
{
horizontal = 1;
options = 4;
origin = (0,15);
target = (1,5);
type = TTStem;
},
{
horizontal = 1;
options = 4;
origin = (0,8);
target = (0,33);
type = TTStem;
},
{
horizontal = 1;
options = 4;
origin = (0,25);
target = (1,12);
type = TTStem;
},
{
horizontal = 1;
place = (626, 35);
type = TTStem;
},
{
horizontal = 1;
origin = (1,5);
target = (0,15);
type = TTStem;
},
{
horizontal = 1;
origin = (0,21);
target = (1,12);
type = TTStem;
},
{
horizontal = 1;
origin = (0,0);
target = (0,1);
type = TTStem;
}
);
layerId = "92EF81BF-A460-40B9-8F71-75F6CAA5A9CA";
shapes = (
{
closed = 1;
nodes = (
(976,-398,l,{
stroke = {
w = "1";
};
}),
(1013,-190,l,{
stroke = {
w = "1";
};
}),
(646,-190,ls,{
stroke = {
w = "1";
};
}),
(203,-190,o,{
stroke = {
w = "1";
};
}),
(175,-6,o,{
stroke = {
w = "1";
};
}),
(265,505,cs,{
stroke = {
w = "1";
};
}),
(357,1025,o,{
stroke = {
w = "1";
};
}),
(491,1358,o,{
stroke = {
w = "1";
};
}),
(807,1358,cs,{
stroke = {
w = "1";
};
}),
(993,1358,o,{
stroke = {
w = "1";
};
}),
(1034,1205,o,{
stroke = {
w = "1";
};
}),
(1006,1043,cs,{
stroke = {
w = "1";
};
}),
(991,988,l,{
stroke = {
w = "1";
};
}),
(957,1032,o,{
stroke = {
w = "1";
};
}),
(862,1062,o,{
stroke = {
w = "1";
};
}),
(780,1062,cs,{
stroke = {
w = "1";
};
}),
(578,1062,o,{
stroke = {
w = "1";
};
}),
(456,881,o,{
stroke = {
w = "1";
};
}),
(397,545,cs,{
stroke = {
w = "1";
};
}),
(346,254,o,{
stroke = {
w = "1";
};
}),
(392,-18,o,{
stroke = {
w = "1";
};
}),
(642,-18,cs,{
stroke = {
w = "1";
};
}),
(714,-18,o,{
stroke = {
w = "1";
};
}),
(804,12,o,{
stroke = {
w = "1";
};
}),
(849,74,c,{
stroke = {
w = "1";
};
}),
(840,-16,l,{
stroke = {
w = "1";
};
}),
(1038,-25,l,{
stroke = {
w = "1";
};
}),
(1036,33,o),
(1037,121,o),
(1050,193,cs),
(1187,967,ls,{
stroke = {
w = "1";
};
}),
(1209,1093,o,{
stroke = {
w = "1";
};
}),
(1282,1550,o,{
stroke = {
w = "1";
};
}),
(822,1550,cs,{
stroke = {
w = "1";
};
}),
(341,1550,o,{
stroke = {
w = "1";
};
}),
(173,1208,o,{
stroke = {
w = "1";
};
}),
(58,554,cs,{
stroke = {
w = "1";
};
}),
(-60,-116,o,{
stroke = {
w = "1";
};
}),
(12,-398,o,{
stroke = {
w = "1";
};
}),
(527,-398,cs,{
stroke = {
w = "1";
};
})
);
},
{
closed = 1;
nodes = (
(600,162,o,{
stroke = {
w = "1";
};
}),
(557,255,o,{
stroke = {
w = "1";
};
}),
(604,523,cs,{
stroke = {
w = "1";
};
}),
(648,773,o,{
stroke = {
w = "1";
};
}),
(728,894,o,{
stroke = {
w = "1";
};
}),
(858,894,cs,{
stroke = {
w = "1";
};
}),
(926,894,o,{
stroke = {
w = "1";
};
}),
(970,861,o,{
stroke = {
w = "1";
};
}),
(951,755,cs,{
stroke = {
w = "1";
};
}),
(877,333,ls,{
stroke = {
w = "1";
};
}),
(860,241,o,{
stroke = {
w = "1";
};
}),
(778,162,o,{
stroke = {
w = "1";
};
}),
(690,162,cs,{
stroke = {
w = "1";
};
})
);
}
);
width = 1200;
}
);
note = at;
unicode = 64;
}
{
glyphname = A;
layers = (
{
anchors = (
{
name = bottom;
pos = (499,0);
},
{
name = ogonek;
pos = (929,0);
},
{
name = top;
pos = (761,1450);
},
{
name = topleft;
pos = (605,1454);
}
);
guides = (
{
name = "superscript bottom + ";
pos = (-135,384);
}
);
layerId = "63BE41E3-0F49-4E61-A903-F52A2E952C90";
shapes = (
{
closed = 1;
nodes = (
(180,0,l),
(356,406,l),
(792,406,l),
(828,0,l),
(1016,0,l),
(857,1450,l),
(657,1450,l),
(-8,0,l)
);
},
{
closed = 1;
nodes = (
(723,1266,l),
(731,1266,l),
(781,550,l),
(423,550,l)
);
}
);
width = 1200;
},
{
anchors = (
{
name = bottom;
pos = (550,0);
},
{
name = ogonek;
pos = (990,20);
},
{
name = top;
pos = (550,1400);
}
);
associatedMasterId = "63BE41E3-0F49-4E61-A903-F52A2E952C90";
layerId = "21E2753D-042D-4D19-89C8-430560CC5AF5";
name = "new Layer";
shapes = (
{
closed = 1;
nodes = (
(274,0,l),
(338,290,l),
(726,290,l),
(792,0,l),
(1094,0,l),
(808,1450,l),
(292,1450,l),
(6,0,l)
);
},
{
closed = 1;
nodes = (
(518,1162,l),
(558,1162,l),
(664,556,l),
(402,556,l)
);
}
);
width = 1200;
},
{
anchors = (
{
name = bottom;
pos = (503,0);
},
{
name = ogonek;
pos = (877,0);
},
{
name = top;
pos = (759,1450);
},
{
name = topleft;
pos = (553,1450);
}
);
layerId = "F48F13AC-C425-4574-8B52-7DBCB7751002";
shapes = (
{
closed = 1;
nodes = (
(273,0,l),
(374,282,l),
(721,282,l),
(729,0,l),
(1027,0,l),
(1011,1450,l),
(509,1450,l),
(-25,0,l)
);
},
{
closed = 1;
nodes = (
(672,1140,l),
(724,1140,l),
(724,554,l),
(468,554,l)
);
}
);
width = 1200;
},
{
anchors = (
{
name = bottom;
pos = (505,0);
},
{
name = ogonek;
pos = (935,0);
},
{
name = top;
pos = (739,1450);
},
{
name = topleft;
pos = (625,1450);
}
);
layerId = "4FB9B80E-81B5-47C9-A539-BB7C5ADDFB58";
shapes = (
{
closed = 1;
nodes = (
(172,0,l),
(346,420,l),
(809,420,l),
(855,0,l),
(1011,0,l),
(801,1450,l),
(674,1450,l),
(12,0,l)
);
},
{
closed = 1;
nodes = (
(703,1234,l),
(716,1234,l),
(793,546,l),
(406,546,l)
);
}
);
width = 1200;
},
{
anchors = (
{
name = bottom;
pos = (501,0);
},
{
name = ogonek;
pos = (897,0);
},
{
name = top;
pos = (761,1450);
},
{
name = topleft;
pos = (579,1452);
}
);
layerId = "92EF81BF-A460-40B9-8F71-75F6CAA5A9CA";
shapes = (
{
closed = 1;
nodes = (
(223,0,l),
(363,342,l),
(745,342,l),
(769,0,l),
(1021,0,l),
(935,1450,l),
(583,1450,l),
(-17,0,l)
);
},
{
closed = 1;
nodes = (
(705,1204,l),
(729,1204,l),
(747,550,l),
(457,550,l)
);
}
);
width = 1200;
}
);
note = A;
unicode = 65;
}
{
glyphname = B;
layers = (
{
anchors = (
{
name = bottom;
pos = (491,0);
},
{
name = top;
pos = (747,1450);
}
);
hints = (
{
horizontal = 1;
options = 4;
origin = (0,14);
target = (1,8);
type = TTStem;
},
{
horizontal = 1;
options = 4;
origin = (1,0);
target = (2,8);
type = TTStem;
},
{
horizontal = 1;
options = 4;
origin = (0,13);
target = (2,0);
type = TTStem;
}
);
layerId = "63BE41E3-0F49-4E61-A903-F52A2E952C90";
shapes = (
{
closed = 1;
nodes = (
(482,0,ls),
(728,0,o),
(995,70,o),
(1052,390,cs),
(1092,620,o),
(981,721,o),
(808,754,c),
(937,815,o),
(1005,884,o),
(1038,1072,cs),
(1088,1354,o),
(908,1450,o),
(698,1450,cs),
(325,1450,l),
(69,0,l)
);
},
{
closed = 1;
nodes = (
(357,678,l),
(604,678,ls),
(780,678,o),
(918,630,o),
(881,422,cs),
(837,170,o),
(626,148,o),
(448,148,cs),
(263,148,l)
);
},
{
closed = 1;
nodes = (
(466,1298,l),
(641,1298,ls),
(783,1298,o),
(897,1258,o),
(865,1080,cs),
(829,872,o),
(679,820,o),
(523,820,cs),
(382,820,l)
);
}
);
width = 1200;
},
{
anchors = (
{
name = bottom;
pos = (550,0);
},
{
name = top;
pos = (520,1444);
}
);
associatedMasterId = "63BE41E3-0F49-4E61-A903-F52A2E952C90";
layerId = "21E2753D-042D-4D19-89C8-430560CC5AF5";
name = "new Layer";
shapes = (
{
closed = 1;
nodes = (
(570,0,ls),
(854,0,o),
(1060,84,o),
(1060,388,cs),
(1060,652,o),
(892,720,o),
(770,746,c),
(944,800,o),
(1026,908,o),
(1026,1078,cs),
(1026,1366,o),
(812,1444,o),
(522,1444,cs),
(40,1444,l),
(40,0,l)
);
},
{
closed = 1;
nodes = (
(364,606,l),
(538,606,ls),
(614,606,o),
(720,586,o),
(720,432,cs),
(720,284,o),
(618,264,o),
(548,264,cs),
(364,264,l)
);
},
{
closed = 1;
nodes = (
(362,1182,l),
(544,1182,ls),
(648,1182,o),
(696,1122,o),
(696,1020,cs),
(696,894,o),
(638,862,o),
(520,862,cs),
(362,862,l)
);
}
);
width = 1200;
},
{
anchors = (
{
name = bottom;
pos = (483,0);
},
{
name = top;
pos = (728,1444);
}
);
guides = (
{
name = "subscript cap top";
pos = (-46,400);
},
{
name = "subscript lc  top";
pos = (-68,280);
},
{
name = "subscript bottom";
pos = (-131,-79);
},
{
name = "superscript bottom + ";
pos = (-79,384);
},
{
name = "top lower fraction";
pos = (-137,342);
},
{
name = "superscript lc top";
pos = (-12,766);
},
{
name = "superscript cap top";
pos = (5,863);
},
{
name = "midpoint lowercase";
pos = (-58,275);
},
{
name = "subscript cap top";
pos = (-46,400);
},
{
name = "subscript lc  top";
pos = (-68,280);
},
{
name = "subscript bottom";
pos = (-131,-79);
},
{
name = "superscript bottom + ";
pos = (-79,384);
},
{
name = "top lower fraction";
pos = (-137,342);
},
{
name = "superscript lc top";
pos = (-12,766);
},
{
name = "superscript cap top";
pos = (5,863);
},
{
name = "midpoint lowercase";
pos = (-58,275);
}
);
hints = (
{
horizontal = 1;
options = 4;
origin = (0,14);
target = (1,8);
type = TTStem;
},
{
horizontal = 1;
options = 4;
origin = (1,0);
target = (2,8);
type = TTStem;
},
{
horizontal = 1;
options = 4;
origin = (2,0);
target = (0,13);
type = TTStem;
}
);
layerId = "F48F13AC-C425-4574-8B52-7DBCB7751002";
shapes = (
{
closed = 1;
nodes = (
(514,0,ls),
(788,0,o),
(1037,97,o),
(1084,366,cs),
(1136,657,o),
(963,757,o),
(853,764,c),
(988,797,o),
(1068,871,o),
(1097,1036,cs),
(1142,1291,o),
(982,1450,o),
(666,1450,cs),
(254,1450,l),
(-2,0,l)
);
},
{
closed = 1;
nodes = (
(445,604,l),
(601,604,ls),
(671,604,o),
(758,587,o),
(732,444,cs),
(704,285,o),
(592,250,o),
(526,250,cs),
(382,250,l)
);
},
{
closed = 1;
nodes = (
(545,1188,l),
(670,1188,ls),
(768,1188,o),
(792,1135,o),
(776,1044,cs),
(752,907,o),
(677,856,o),
(567,856,cs),
(487,856,l)
);
}
);
width = 1200;
},
{
anchors = (
{
name = bottom;
pos = (472,0);
},
{
name = top;
pos = (708,1452);
}
);
hints = (
{
horizontal = 1;
options = 4;
origin = (0,14);
target = (1,8);
type = TTStem;
},
{
horizontal = 1;
options = 4;
origin = (1,0);
target = (2,8);
type = TTStem;
},
{
horizontal = 1;
options = 4;
origin = (0,13);
target = (2,0);
type = TTStem;
}
);
layerId = "4FB9B80E-81B5-47C9-A539-BB7C5ADDFB58";
shapes = (
{
closed = 1;
nodes = (
(456,0,ls),
(696,0,o),
(975,65,o),
(1025,395,cs),
(1062,615,o),
(955,729,o),
(770,767,c),
(897,832,o),
(965,887,o),
(994,1079,cs),
(1041,1365,o),
(848,1450,o),
(658,1450,cs),
(290,1450,l),
(60,0,l)
);
},
{
closed = 1;
nodes = (
(317,690,l),
(575,690,ls),
(769,690,o),
(918,637,o),
(885,417,cs),
(841,151,o),
(612,128,o),
(416,128,cs),
(228,128,l)
);
},
{
closed = 1;
nodes = (
(416,1316,l),
(596,1316,ls),
(744,1316,o),
(878,1279,o),
(849,1085,cs),
(813,867,o),
(649,814,o),
(485,814,cs),
(336,814,l)
);
}
);
width = 1200;
},
{
anchors = (
{
name = bottom;
pos = (501,0);
},
{
name = top;
pos = (752,1448);
}
);
hints = (
{
horizontal = 1;
options = 4;
origin = (0,14);
target = (1,8);
type = TTStem;
},
{
horizontal = 1;
options = 4;
origin = (1,0);
target = (2,8);
type = TTStem;
},
{
horizontal = 1;
options = 4;
origin = (0,13);
target = (2,0);
type = TTStem;
}
);
layerId = "92EF81BF-A460-40B9-8F71-75F6CAA5A9CA";
shapes = (
{
closed = 1;
nodes = (
(485,0,ls),
(751,0,o),
(1008,83,o),
(1060,379,cs),
(1106,639,o),
(964,739,o),
(823,760,c),
(954,807,o),
(1028,877,o),
(1059,1055,cs),
(1106,1323,o),
(937,1450,o),
(669,1450,cs),
(277,1450,l),
(21,0,l)
);
},
{
closed = 1;
nodes = (
(388,642,l),
(590,642,ls),
(712,642,o),
(824,609,o),
(793,433,cs),
(757,229,o),
(597,200,o),
(475,200,cs),
(310,200,l)
);
},
{
closed = 1;
nodes = (
(492,1244,l),
(642,1244,ls),
(762,1244,o),
(832,1197,o),
(809,1063,cs),
(778,891,o),
(665,838,o),
(531,838,cs),
(421,838,l)
);
}
);
width = 1200;
}
);
note = B;
unicode = 66;
}
{
glyphname = C;
layers = (
{
anchors = (
{
name = bottom;
pos = (503,0);
},
{
name = top;
pos = (759,1450);
}
);
hints = (
{
horizontal = 1;
options = 4;
origin = (0,25);
target = (0,6);
type = TTStem;
},
{
horizontal = 1;
options = 4;
origin = (0,19);
target = (0,12);
type = TTStem;
},
{
horizontal = 1;
origin = (0,25);
target = (0,6);
type = TTStem;
},
{
horizontal = 1;
origin = (0,14);
target = (0,11);
type = TTStem;
},
{
horizontal = 1;
origin = (0,12);
target = (0,13);
type = TTStem;
},
{
horizontal = 1;
origin = (0,18);
target = (0,19);
type = TTStem;
}
);
layerId = "63BE41E3-0F49-4E61-A903-F52A2E952C90";
shapes = (
{
closed = 1;
nodes = (
(734,-36,o),
(897,19,o),
(1011,165,c),
(915,273,l),
(822,159,o),
(710,116,o),
(575,116,cs),
(314,116,o),
(286,346,o),
(349,702,cs),
(415,1076,o),
(552,1324,o),
(815,1324,cs),
(910,1324,o),
(998,1312,o),
(1084,1198,c),
(1202,1271,l),
(1144,1417,o),
(985,1468,o),
(826,1468,cs),
(485,1468,o),
(249,1204,o),
(163,716,cs),
(77,226,o),
(208,-36,o),
(567,-36,cs)
);
}
);
width = 1200;
},
{
anchors = (
{
name = bottom;
pos = (550,0);
},
{
name = top;
pos = (582,1400);
}
);
associatedMasterId = "63BE41E3-0F49-4E61-A903-F52A2E952C90";
layerId = "21E2753D-042D-4D19-89C8-430560CC5AF5";
name = "new Layer";
shapes = (
{
closed = 1;
nodes = (
(822,-48,o),
(1008,48,o),
(1066,282,c),
(762,398,l),
(746,314,o),
(708,232,o),
(588,232,cs),
(414,232,o),
(352,426,o),
(352,684,cs),
(352,948,o),
(408,1170,o),
(590,1170,cs),
(666,1170,o),
(734,1128,o),
(758,1016,c),
(1060,1120,l),
(1004,1346,o),
(816,1454,o),
(590,1454,cs),
(234,1454,o),
(40,1162,o),
(40,692,cs),
(40,224,o),
(228,-48,o),
(594,-48,cs)
);
}
);
width = 1200;
},
{
anchors = (
{
name = bottom;
pos = (501,-24);
},
{
name = top;
pos = (759,1450);
}
);
hints = (
{
horizontal = 1;
options = 4;
origin = (0,25);
target = (0,6);
type = TTStem;
},
{
horizontal = 1;
options = 4;
origin = (0,19);
target = (0,12);
type = TTStem;
}
);
layerId = "F48F13AC-C425-4574-8B52-7DBCB7751002";
shapes = (
{
closed = 1;
nodes = (
(800,-34,o),
(948,51,o),
(1098,185,c),
(932,397,l),
(850,313,o),
(717,261,o),
(619,261,cs),
(424,261,o),
(377,475,o),
(415,692,cs),
(454,913,o),
(608,1160,o),
(840,1160,cs),
(944,1160,o),
(1015,1139,o),
(1077,1051,c),
(1280,1242,l),
(1163,1386,o),
(1040,1470,o),
(828,1470,cs),
(374,1470,o),
(152,1127,o),
(85,746,cs),
(14,343,o),
(148,-34,o),
(544,-34,cs)
);
}
);
width = 1200;
},
{
anchors = (
{
name = bottom;
pos = (506,0);
},
{
name = top;
pos = (763,1456);
}
);
hints = (
{
horizontal = 1;
options = 4;
origin = (0,25);
target = (0,6);
type = TTStem;
},
{
horizontal = 1;
options = 4;
origin = (0,19);
target = (0,12);
type = TTStem;
}
);
layerId = "4FB9B80E-81B5-47C9-A539-BB7C5ADDFB58";
shapes = (
{
closed = 1;
nodes = (
(724,-34,o),
(884,22,o),
(991,164,c),
(903,244,l),
(809,132,o),
(696,84,o),
(568,84,cs),
(306,84,o),
(253,335,o),
(318,704,cs),
(386,1089,o),
(539,1350,o),
(813,1350,cs),
(901,1350,o),
(1003,1352,o),
(1081,1228,c),
(1184,1280,l),
(1113,1424,o),
(970,1468,o),
(822,1468,cs),
(498,1468,o),
(263,1229,o),
(174,724,cs),
(85,221,o),
(212,-34,o),
(563,-34,cs)
);
}
);
width = 1200;
},
{
anchors = (
{
name = bottom;
pos = (519,-10);
},
{
name = top;
pos = (759,1450);
}
);
hints = (
{
horizontal = 1;
options = 4;
origin = (0,25);
target = (0,6);
type = TTStem;
},
{
horizontal = 1;
options = 4;
origin = (0,19);
target = (0,12);
type = TTStem;
},
{
horizontal = 1;
origin = (0,25);
target = (0,6);
type = TTStem;
},
{
horizontal = 1;
origin = (0,14);
target = (0,11);
type = TTStem;
},
{
horizontal = 1;
origin = (0,12);
target = (0,13);
type = TTStem;
},
{
horizontal = 1;
origin = (0,18);
target = (0,19);
type = TTStem;
}
);
layerId = "92EF81BF-A460-40B9-8F71-75F6CAA5A9CA";
shapes = (
{
closed = 1;
nodes = (
(758,-36,o),
(913,29,o),
(1039,169,c),
(924,329,l),
(835,231,o),
(712,194,o),
(604,194,cs),
(368,194,o),
(333,409,o),
(384,697,cs),
(437,995,o),
(575,1238,o),
(823,1238,cs),
(921,1238,o),
(1001,1216,o),
(1075,1118,c),
(1234,1255,l),
(1147,1401,o),
(997,1470,o),
(811,1470,cs),
(419,1470,o),
(197,1167,o),
(120,731,cs),
(41,285,o),
(168,-36,o),
(548,-36,cs)
);
}
);
width = 1200;
}
);
note = C;
unicode = 67;
}
{
glyphname = D;
layers = (
{
anchors = (
{
name = bottom;
pos = (503,0);
},
{
name = center;
pos = (626,700);
},
{
name = top;
pos = (759,1450);
}
);
hints = (
{
horizontal = 1;
options = 4;
origin = (0,8);
target = (1,8);
type = TTStem;
},
{
horizontal = 1;
options = 4;
origin = (0,7);
target = (1,0);
type = TTStem;
}
);
layerId = "63BE41E3-0F49-4E61-A903-F52A2E952C90";
shapes = (
{
closed = 1;
nodes = (
(332,0,ls),
(818,0,o),
(1029,214,o),
(1118,722,cs),
(1214,1262,o),
(1032,1450,o),
(594,1450,cs),
(331,1450,l),
(75,0,l)
);
},
{
closed = 1;
nodes = (
(481,1302,l),
(596,1302,ls),
(908,1302,o),
(1011,1148,o),
(941,746,cs),
(859,284,o),
(684,146,o),
(362,146,cs),
(277,146,l)
);
}
);
width = 1200;
},
{
anchors = (
{
name = bottom;
pos = (550,0);
},
{
name = center;
pos = (550,700);
},
{
name = top;
pos = (550,1400);
}
);
associatedMasterId = "63BE41E3-0F49-4E61-A903-F52A2E952C90";
background = {
shapes = (
{
closed = 1;
nodes = (
(32,0,l),
(476,0,ls),
(552,0,o),
(688,4,o),
(784,56,cs),
(992,166,o),
(1068,408,o),
(1068,726,cs),
(1068,948,o),
(1022,1184,o),
(872,1324,cs),
(764,1426,o),
(600,1444,o),
(474,1444,cs),
(32,1444,l),
(32,0,l)
);
},
{
closed = 1;
nodes = (
(452,278,l),
(328,278,l),
(328,1170,l),
(442,1168,ls),
(488,1168,o),
(568,1168,o),
(640,1114,cs),
(710,1058,o),
(768,948,o),
(768,730,cs),
(768,412,o),
(654,278,o),
(452,278,c)
);
}
);
};
layerId = "21E2753D-042D-4D19-89C8-430560CC5AF5";
name = "new Layer";
shapes = (
{
closed = 1;
nodes = (
(384,0,ls),
(872,0,o),
(1060,206,o),
(1060,734,cs),
(1060,1268,o),
(838,1450,o),
(400,1450,cs),
(42,1450,l),
(42,0,l)
);
},
{
closed = 1;
nodes = (
(342,1182,l),
(434,1182,ls),
(658,1182,o),
(756,998,o),
(756,732,cs),
(756,466,o),
(650,266,o),
(418,266,cs),
(342,266,l)
);
}
);
width = 1200;
},
{
anchors = (
{
name = bottom;
pos = (503,0);
},
{
name = center;
pos = (626,700);
},
{
name = top;
pos = (759,1450);
}
);
hints = (
{
horizontal = 1;
options = 4;
origin = (0,8);
target = (1,8);
type = TTStem;
},
{
horizontal = 1;
options = 4;
origin = (0,7);
target = (1,0);
type = TTStem;
}
);
layerId = "F48F13AC-C425-4574-8B52-7DBCB7751002";
shapes = (
{
closed = 1;
nodes = (
(347,0,ls),
(835,0,o),
(1047,195,o),
(1139,712,cs),
(1235,1257,o),
(1037,1450,o),
(599,1450,cs),
(251,1450,l),
(-5,0,l)
);
},
{
closed = 1;
nodes = (
(540,1160,l),
(610,1160,ls),
(812,1160,o),
(820,957,o),
(784,754,cs),
(744,529,o),
(630,288,o),
(422,288,cs),
(386,288,l)
);
}
);
width = 1200;
},
{
anchors = (
{
name = bottom;
pos = (494,0);
},
{
name = center;
pos = (605,700);
},
{
name = top;
pos = (721,1434);
}
);
hints = (
{
horizontal = 1;
options = 4;
origin = (0,8);
target = (1,8);
type = TTStem;
},
{
horizontal = 1;
options = 4;
origin = (0,7);
target = (1,0);
type = TTStem;
}
);
layerId = "4FB9B80E-81B5-47C9-A539-BB7C5ADDFB58";
shapes = (
{
closed = 1;
nodes = (
(302,0,ls),
(788,0,o),
(997,217,o),
(1076,725,cs),
(1162,1263,o),
(978,1450,o),
(540,1450,cs),
(292,1450,l),
(62,0,l)
);
},
{
closed = 1;
nodes = (
(419,1326,l),
(542,1326,ls),
(872,1326,o),
(999,1173,o),
(933,743,cs),
(853,249,o),
(664,124,o),
(324,124,cs),
(229,124,l)
);
}
);
width = 1200;
},
{
anchors = (
{
name = bottom;
pos = (503,0);
},
{
name = center;
pos = (626,700);
},
{
name = top;
pos = (759,1450);
}
);
hints = (
{
horizontal = 1;
options = 4;
origin = (0,8);
target = (1,8);
type = TTStem;
},
{
horizontal = 1;
options = 4;
origin = (0,7);
target = (1,0);
type = TTStem;
}
);
layerId = "92EF81BF-A460-40B9-8F71-75F6CAA5A9CA";
shapes = (
{
closed = 1;
nodes = (
(341,0,ls),
(827,0,o),
(1039,205,o),
(1129,717,cs),
(1225,1259,o),
(1035,1450,o),
(597,1450,cs),
(291,1450,l),
(35,0,l)
);
},
{
closed = 1;
nodes = (
(510,1232,l),
(604,1232,ls),
(860,1232,o),
(907,1053,o),
(854,751,cs),
(793,407,o),
(658,218,o),
(392,218,cs),
(331,218,l)
);
}
);
width = 1200;
}
);
note = D;
unicode = 68;
}
{
glyphname = E;
layers = (
{
anchors = (
{
name = bottom;
pos = (503,0);
},
{
name = ogonek;
pos = (823,0);
},
{
name = top;
pos = (759,1450);
},
{
name = topleft;
pos = (353,1450);
}
);
hints = (
{
horizontal = 1;
options = 4;
origin = (0,11);
target = (0,2);
type = TTStem;
},
{
horizontal = 1;
options = 4;
origin = (0,3);
target = (0,6);
type = TTStem;
},
{
horizontal = 1;
options = 4;
origin = (0,10);
target = (0,7);
type = TTStem;
},
{
horizontal = 1;
origin = (0,4);
target = (0,5);
type = TTStem;
},
{
horizontal = 1;
origin = (0,0);
target = (0,1);
type = TTStem;
},
{
horizontal = 1;
origin = (0,9);
target = (0,8);
type = TTStem;
}
);
layerId = "63BE41E3-0F49-4E61-A903-F52A2E952C90";
shapes = (
{
closed = 1;
nodes = (
(943,0,l),
(969,146,l),
(281,146,l),
(375,682,l),
(1009,682,l),
(1035,828,l),
(401,828,l),
(484,1300,l),
(1146,1300,l),
(1173,1450,l),
(335,1450,l),
(79,0,l)
);
}
);
width = 1200;
},
{
anchors = (
{
name = bottom;
pos = (550,0);
},
{
name = ogonek;
pos = (990,20);
},
{
name = top;
pos = (550,1400);
},
{
name = topleft;
pos = (40,1400);
}
);
associatedMasterId = "63BE41E3-0F49-4E61-A903-F52A2E952C90";
background = {
shapes = (
{
closed = 1;
nodes = (
(0,0,l),
(1100,0,l),
(1100,280,l),
(396,280,l),
(396,588,l),
(1044,588,l),
(1044,864,l),
(396,864,l),
(396,1164,l),
(1084,1164,l),
(1084,1440,l),
(0,1440,l),
(0,0,l)
);
}
);
};
layerId = "21E2753D-042D-4D19-89C8-430560CC5AF5";
name = "new Layer";
shapes = (
{
closed = 1;
nodes = (
(1056,0,l),
(1056,282,l),
(374,282,l),
(374,586,l),
(992,586,l),
(992,876,l),
(374,876,l),
(374,1166,l),
(1026,1166,l),
(1026,1450,l),
(44,1450,l),
(44,0,l)
);
}
);
width = 1200;
},
{
anchors = (
{
name = bottom;
pos = (503,0);
},
{
name = ogonek;
pos = (847,0);
},
{
name = top;
pos = (759,1450);
},
{
name = topleft;
pos = (249,1450);
}
);
background = {
shapes = (
{
closed = 1;
nodes = (
(0,0,l),
(1100,0,l),
(1100,280,l),
(396,280,l),
(396,588,l),
(1044,588,l),
(1044,864,l),
(396,864,l),
(396,1164,l),
(1084,1164,l),
(1084,1440,l),
(0,1440,l),
(0,0,l)
);
}
);
};
hints = (
{
horizontal = 1;
options = 4;
origin = (0,11);
target = (0,2);
type = TTStem;
},
{
horizontal = 1;
options = 4;
origin = (0,3);
target = (0,6);
type = TTStem;
},
{
horizontal = 1;
options = 4;
origin = (0,10);
target = (0,7);
type = TTStem;
}
);
layerId = "F48F13AC-C425-4574-8B52-7DBCB7751002";
shapes = (
{
closed = 1;
nodes = (
(1001,0,l),
(1052,288,l),
(400,288,l),
(454,594,l),
(1042,594,l),
(1093,886,l),
(505,886,l),
(554,1160,l),
(1176,1160,l),
(1227,1450,l),
(261,1450,l),
(5,0,l)
);
}
);
width = 1200;
},
{
anchors = (
{
name = bottom;
pos = (513,0);
},
{
name = ogonek;
pos = (829,0);
},
{
name = top;
pos = (742,1446);
},
{
name = topleft;
pos = (323,1450);
}
);
hints = (
{
horizontal = 1;
options = 4;
origin = (0,11);
target = (0,2);
type = TTStem;
},
{
horizontal = 1;
options = 4;
origin = (0,3);
target = (0,6);
type = TTStem;
},
{
horizontal = 1;
options = 4;
origin = (0,10);
target = (0,7);
type = TTStem;
}
);
layerId = "4FB9B80E-81B5-47C9-A539-BB7C5ADDFB58";
shapes = (
{
closed = 1;
nodes = (
(932,0,l),
(952,124,l),
(260,124,l),
(350,694,l),
(990,694,l),
(1010,816,l),
(370,816,l),
(450,1326,l),
(1116,1326,l),
(1136,1450,l),
(323,1450,l),
(93,0,l)
);
}
);
width = 1200;
},
{
anchors = (
{
name = bottom;
pos = (503,0);
},
{
name = ogonek;
pos = (835,0);
},
{
name = top;
pos = (759,1450);
},
{
name = topleft;
pos = (301,1450);
}
);
hints = (
{
horizontal = 1;
options = 4;
origin = (0,11);
target = (0,2);
type = TTStem;
},
{
horizontal = 1;
options = 4;
origin = (0,3);
target = (0,6);
type = TTStem;
},
{
horizontal = 1;
options = 4;
origin = (0,10);
target = (0,7);
type = TTStem;
},
{
horizontal = 1;
origin = (0,4);
target = (0,5);
type = TTStem;
},
{
horizontal = 1;
origin = (0,0);
target = (0,1);
type = TTStem;
},
{
horizontal = 1;
origin = (0,9);
target = (0,8);
type = TTStem;
}
);
layerId = "92EF81BF-A460-40B9-8F71-75F6CAA5A9CA";
shapes = (
{
closed = 1;
nodes = (
(977,0,l),
(1015,218,l),
(337,218,l),
(412,640,l),
(1030,640,l),
(1069,860,l),
(451,860,l),
(516,1230,l),
(1166,1230,l),
(1205,1450,l),
(295,1450,l),
(39,0,l)
);
}
);
width = 1200;
}
);
note = E;
unicode = 69;
}
{
glyphname = F;
layers = (
{
anchors = (
{
name = bottom;
pos = (503,0);
},
{
name = top;
pos = (759,1450);
}
);
hints = (
{
horizontal = 1;
options = 4;
origin = (0,9);
stem = -1;
type = TTSnap;
},
{
horizontal = 1;
options = 4;
origin = (0,1);
target = (0,4);
type = TTStem;
},
{
horizontal = 1;
options = 4;
origin = (0,8);
target = (0,5);
type = TTStem;
}
);
layerId = "63BE41E3-0F49-4E61-A903-F52A2E952C90";
shapes = (
{
closed = 1;
nodes = (
(277,0,l),
(391,644,l),
(1051,644,l),
(1076,790,l),
(416,790,l),
(506,1300,l),
(1198,1300,l),
(1225,1450,l),
(357,1450,l),
(101,0,l)
);
}
);
width = 1200;
},
{
anchors = (
{
name = bottom;
pos = (550,0);
},
{
name = top;
pos = (550,1400);
}
);
associatedMasterId = "63BE41E3-0F49-4E61-A903-F52A2E952C90";
background = {
shapes = (
{
closed = 1;
nodes = (
(40,0,l),
(438,0,l),
(438,548,l),
(1018,548,l),
(1018,826,l),
(438,826,l),
(438,1162,l),
(1062,1162,l),
(1062,1440,l),
(40,1440,l),
(40,0,l)
);
}
);
};
layerId = "21E2753D-042D-4D19-89C8-430560CC5AF5";
name = "new Layer";
shapes = (
{
closed = 1;
nodes = (
(436,0,l),
(436,546,l),
(1014,546,l),
(1014,830,l),
(436,830,l),
(436,1160,l),
(1044,1160,l),
(1044,1450,l),
(56,1450,l),
(56,0,l)
);
}
);
width = 1200;
},
{
anchors = (
{
name = bottom;
pos = (503,0);
},
{
name = top;
pos = (759,1450);
}
);
hints = (
{
horizontal = 1;
options = 4;
origin = (0,9);
stem = -1;
type = TTSnap;
},
{
horizontal = 1;
options = 4;
origin = (0,1);
target = (0,4);
type = TTStem;
},
{
horizontal = 1;
options = 4;
origin = (0,8);
target = (0,5);
type = TTStem;
}
);
layerId = "F48F13AC-C425-4574-8B52-7DBCB7751002";
shapes = (
{
closed = 1;
nodes = (
(375,0,l),
(473,558,l),
(1031,558,l),
(1081,842,l),
(523,842,l),
(580,1160,l),
(1190,1160,l),
(1241,1450,l),
(283,1450,l),
(27,0,l)
);
}
);
width = 1200;
},
{
anchors = (
{
name = bottom;
pos = (502,0);
},
{
name = top;
pos = (732,1450);
}
);
hints = (
{
horizontal = 1;
options = 4;
origin = (0,9);
stem = -1;
type = TTSnap;
},
{
horizontal = 1;
options = 4;
origin = (0,1);
target = (0,4);
type = TTStem;
},
{
horizontal = 1;
options = 4;
origin = (0,8);
target = (0,5);
type = TTStem;
}
);
layerId = "4FB9B80E-81B5-47C9-A539-BB7C5ADDFB58";
shapes = (
{
closed = 1;
nodes = (
(235,0,l),
(340,664,l),
(1014,664,l),
(1034,788,l),
(360,788,l),
(445,1326,l),
(1147,1326,l),
(1167,1450,l),
(318,1450,l),
(88,0,l)
);
}
);
width = 1200;
},
{
anchors = (
{
name = bottom;
pos = (499,0);
},
{
name = top;
pos = (755,1450);
}
);
hints = (
{
horizontal = 1;
options = 4;
origin = (0,9);
stem = -1;
type = TTSnap;
},
{
horizontal = 1;
options = 4;
origin = (0,1);
target = (0,4);
type = TTStem;
},
{
horizontal = 1;
options = 4;
origin = (0,8);
target = (0,5);
type = TTStem;
}
);
layerId = "92EF81BF-A460-40B9-8F71-75F6CAA5A9CA";
shapes = (
{
closed = 1;
nodes = (
(299,0,l),
(404,598,l),
(1026,598,l),
(1065,814,l),
(443,814,l),
(516,1230,l),
(1180,1230,l),
(1219,1450,l),
(297,1450,l),
(41,0,l)
);
}
);
width = 1200;
}
);
note = F;
unicode = 70;
}
{
glyphname = G;
layers = (
{
anchors = (
{
name = bottom;
pos = (503,0);
},
{
name = top;
pos = (742,1466);
}
);
hints = (
{
horizontal = 1;
options = 4;
origin = (0,31);
target = (0,12);
type = TTStem;
},
{
horizontal = 1;
options = 4;
origin = (0,8);
target = (0,7);
type = TTStem;
},
{
horizontal = 1;
options = 4;
origin = (0,25);
target = (0,18);
type = TTStem;
},
{
horizontal = 1;
origin = (0,31);
target = (0,12);
type = TTStem;
},
{
horizontal = 1;
origin = (0,18);
target = (0,19);
type = TTStem;
},
{
horizontal = 1;
origin = (0,24);
target = (0,25);
type = TTStem;
}
);
layerId = "63BE41E3-0F49-4E61-A903-F52A2E952C90";
shapes = (
{
closed = 1;
nodes = (
(715,-20,o),
(797,60,o),
(853,149,c),
(860,154,l),
(831,0,l),
(981,0,l),
(1114,756,l),
(612,756,l),
(588,616,l),
(937,622,l),
(887,339,o),
(774,128,o),
(538,128,cs),
(238,128,o),
(281,477,o),
(323,715,cs),
(381,1041,o),
(476,1322,o),
(788,1322,cs),
(877,1322,o),
(979,1301,o),
(1033,1153,c),
(1180,1223,l),
(1131,1399,o),
(964,1470,o),
(778,1470,cs),
(396,1470,o),
(228,1176,o),
(151,740,cs),
(81,343,o),
(118,-20,o),
(524,-20,cs)
);
}
);
width = 1200;
},
{
anchors = (
{
name = bottom;
pos = (550,0);
},
{
name = top;
pos = (550,1400);
}
);
associatedMasterId = "63BE41E3-0F49-4E61-A903-F52A2E952C90";
background = {
shapes = (
{
closed = 1;
nodes = (
(610,-32,l),
(764,-32,o),
(914,-2,o),
(1064,48,c),
(1064,820,l),
(578,820,l),
(578,546,l),
(796,546,l),
(796,266,l),
(744,252,o),
(692,242,o),
(638,242,cs),
(454,242,o),
(334,402,o),
(334,722,cs),
(334,978,o),
(412,1204,o),
(600,1204,cs),
(684,1204,o),
(764,1154,o),
(778,1012,c),
(1068,1012,l),
(1068,1100,o),
(1056,1210,o),
(990,1312,cs),
(906,1432,o),
(776,1480,o),
(614,1480,cs),
(480,1480,o),
(306,1444,o),
(188,1288,cs),
(76,1140,o),
(32,898,o),
(32,714,cs),
(32,482,o),
(92,256,o),
(226,118,cs),
(336,-2,o),
(496,-32,o),
(610,-32,c)
);
}
);
};
layerId = "21E2753D-042D-4D19-89C8-430560CC5AF5";
name = "new Layer";
shapes = (
{
closed = 1;
nodes = (
(868,-36,o),
(926,-4,o),
(1064,48,c),
(1064,824,l),
(584,824,l),
(584,544,l),
(796,544,l),
(796,266,l),
(716,236,o),
(724,242,o),
(638,242,cs),
(400,242,o),
(334,484,o),
(334,722,cs),
(334,978,o),
(412,1204,o),
(600,1204,cs),
(690,1204,o),
(758,1140,o),
(774,1054,c),
(1060,1120,l),
(1014,1436,o),
(752,1476,o),
(584,1476,cs),
(226,1476,o),
(36,1162,o),
(36,728,cs),
(36,294,o),
(246,-36,o),
(594,-36,cs)
);
}
);
width = 1200;
},
{
anchors = (
{
name = bottom;
pos = (503,0);
},
{
name = top;
pos = (764,1480);
}
);
hints = (
{
horizontal = 1;
options = 4;
place = (-119, 139);
type = TTStem;
},
{
horizontal = 1;
options = 4;
place = (459, 140);
type = TTStem;
},
{
horizontal = 1;
options = 4;
place = (1373, 133);
type = TTStem;
}
);
layerId = "F48F13AC-C425-4574-8B52-7DBCB7751002";
shapes = (
{
closed = 1;
nodes = (
(607,-23,o),
(733,2,o),
(778,89,c),
(792,100,l),
(771,0,l),
(1015,0,l),
(1154,790,l),
(664,790,l),
(619,534,l),
(853,545,l),
(820,359,o),
(692,244,o),
(563,244,cs),
(406,244,o),
(390,439,o),
(437,703,cs),
(479,939,o),
(568,1164,o),
(772,1164,cs),
(832,1164,o),
(911,1144,o),
(959,1037,c),
(1186,1196,l),
(1138,1325,o),
(1014,1470,o),
(768,1470,cs),
(429,1470,o),
(190,1185,o),
(112,741,cs),
(26,253,o),
(205,-23,o),
(509,-23,cs)
);
}
);
width = 1200;
},
{
anchors = (
{
name = bottom;
pos = (509,0);
},
{
name = top;
pos = (721,1464);
}
);
hints = (
{
horizontal = 1;
options = 4;
origin = (0,31);
target = (0,12);
type = TTStem;
},
{
horizontal = 1;
options = 4;
origin = (0,8);
target = (0,7);
type = TTStem;
},
{
horizontal = 1;
options = 4;
origin = (0,25);
target = (0,18);
type = TTStem;
}
);
layerId = "4FB9B80E-81B5-47C9-A539-BB7C5ADDFB58";
shapes = (
{
closed = 1;
nodes = (
(744,-16,o),
(820,72,o),
(873,163,c),
(882,168,l),
(853,0,l),
(988,0,l),
(1107,750,l),
(582,750,l),
(563,630,l),
(953,635,l),
(905,334,o),
(799,112,o),
(547,112,cs),
(225,112,o),
(262,483,o),
(296,711,cs),
(353,1060,o),
(457,1348,o),
(766,1348,cs),
(881,1348,o),
(992,1308,o),
(1054,1185,c),
(1169,1240,l),
(1081,1426,o),
(934,1468,o),
(781,1468,cs),
(366,1468,o),
(224,1174,o),
(158,747,cs),
(92,340,o),
(126,-16,o),
(538,-16,cs)
);
}
);
width = 1200;
},
{
anchors = (
{
name = bottom;
pos = (503,0);
},
{
name = top;
pos = (753,1474);
}
);
hints = (
{
horizontal = 1;
options = 4;
origin = (0,31);
target = (0,12);
type = TTStem;
},
{
horizontal = 1;
options = 4;
origin = (0,8);
target = (0,7);
type = TTStem;
},
{
horizontal = 1;
options = 4;
origin = (0,25);
target = (0,18);
type = TTStem;
},
{
horizontal = 1;
origin = (0,31);
target = (0,12);
type = TTStem;
},
{
horizontal = 1;
origin = (0,18);
target = (0,19);
type = TTStem;
},
{
horizontal = 1;
origin = (0,24);
target = (0,25);
type = TTStem;
}
);
layerId = "92EF81BF-A460-40B9-8F71-75F6CAA5A9CA";
shapes = (
{
closed = 1;
nodes = (
(670,-22,o),
(772,26,o),
(828,112,c),
(839,120,l),
(815,0,l),
(1017,0,l),
(1153,774,l),
(651,774,l),
(617,576,l),
(908,585,l),
(869,362,o),
(753,188,o),
(563,188,cs),
(340,188,o),
(342,447,o),
(389,716,cs),
(438,992,o),
(538,1246,o),
(796,1246,cs),
(864,1246,o),
(956,1232,o),
(1011,1100,c),
(1198,1214,l),
(1144,1375,o),
(994,1474,o),
(785,1474,cs),
(423,1474,o),
(217,1181,o),
(140,745,cs),
(62,300,o),
(170,-22,o),
(528,-22,cs)
);
}
);
width = 1200;
}
);
note = G;
unicode = 71;
}
{
glyphname = H;
layers = (
{
anchors = (
{
name = bottom;
pos = (179,0);
},
{
name = bottomright;
pos = (913,0);
},
{
name = center;
pos = (631,726);
},
{
name = top;
pos = (759,1450);
},
{
name = topleft;
pos = (249,1450);
}
);
hints = (
{
horizontal = 1;
options = 4;
origin = (0,1);
target = (0,8);
type = TTStem;
}
);
layerId = "63BE41E3-0F49-4E61-A903-F52A2E952C90";
shapes = (
{
closed = 1;
nodes = (
(267,0,l),
(386,676,l),
(858,676,l),
(739,0,l),
(913,0,l),
(1169,1450,l),
(995,1450,l),
(886,834,l),
(414,834,l),
(523,1450,l),
(349,1450,l),
(93,0,l)
);
}
);
width = 1200;
},
{
anchors = (
{
name = bottom;
pos = (550,0);
},
{
name = center;
pos = (550,700);
},
{
name = top;
pos = (550,1400);
},
{
name = topleft;
pos = (40,1400);
}
);
associatedMasterId = "63BE41E3-0F49-4E61-A903-F52A2E952C90";
background = {
shapes = (
{
closed = 1;
nodes = (
(70,0,l),
(368,0,l),
(368,584,l),
(728,584,l),
(728,0,l),
(1030,0,l),
(1030,1444,l),
(728,1444,l),
(728,880,l),
(370,880,l),
(370,1444,l),
(70,1444,l),
(70,0,l)
);
}
);
};
layerId = "21E2753D-042D-4D19-89C8-430560CC5AF5";
name = "new Layer";
shapes = (
{
closed = 1;
nodes = (
(374,0,l),
(374,586,l),
(726,586,l),
(726,0,l),
(1048,0,l),
(1048,1444,l),
(726,1444,l),
(726,880,l),
(374,880,l),
(374,1444,l),
(54,1444,l),
(54,0,l)
);
}
);
width = 1200;
},
{
anchors = (
{
name = bottom;
pos = (503,0);
},
{
name = bottomright;
pos = (997,0);
},
{
name = center;
pos = (631,726);
},
{
name = top;
pos = (759,1450);
},
{
name = topleft;
pos = (249,1450);
}
);
hints = (
{
horizontal = 1;
options = 4;
origin = (0,11);
stem = -1;
type = TTSnap;
},
{
horizontal = 1;
options = 4;
origin = (0,1);
target = (0,8);
type = TTStem;
}
);
layerId = "F48F13AC-C425-4574-8B52-7DBCB7751002";
shapes = (
{
closed = 1;
nodes = (
(345,0,l),
(453,612,l),
(769,612,l),
(661,0,l),
(997,0,l),
(1253,1450,l),
(917,1450,l),
(821,906,l),
(505,906,l),
(601,1450,l),
(267,1450,l),
(11,0,l)
);
}
);
width = 1200;
},
{
anchors = (
{
name = bottom;
pos = (135,0);
},
{
name = bottomright;
pos = (913,0);
},
{
name = center;
pos = (628,726);
},
{
name = top;
pos = (743,1450);
},
{
name = topleft;
pos = (233,1450);
}
);
hints = (
{
horizontal = 1;
options = 4;
origin = (0,1);
target = (0,8);
type = TTStem;
}
);
layerId = "4FB9B80E-81B5-47C9-A539-BB7C5ADDFB58";
shapes = (
{
closed = 1;
nodes = (
(260,0,l),
(368,678,l),
(873,678,l),
(765,0,l),
(912,0,l),
(1142,1450,l),
(995,1450,l),
(895,820,l),
(390,820,l),
(490,1450,l),
(343,1450,l),
(113,0,l)
);
}
);
width = 1200;
},
{
anchors = (
{
name = bottom;
pos = (341,0);
},
{
name = bottomright;
pos = (957,0);
},
{
name = center;
pos = (631,726);
},
{
name = top;
pos = (759,1450);
},
{
name = topleft;
pos = (249,1450);
}
);
hints = (
{
horizontal = 1;
options = 4;
origin = (0,1);
target = (0,8);
type = TTStem;
}
);
layerId = "92EF81BF-A460-40B9-8F71-75F6CAA5A9CA";
shapes = (
{
closed = 1;
nodes = (
(307,0,l),
(421,644,l),
(815,644,l),
(701,0,l),
(957,0,l),
(1213,1450,l),
(957,1450,l),
(854,870,l),
(460,870,l),
(563,1450,l),
(307,1450,l),
(51,0,l)
);
}
);
width = 1200;
}
);
note = H;
unicode = 72;
}
{
glyphname = I;
layers = (
{
anchors = (
{
name = bottom;
pos = (503,0);
},
{
name = ogonek;
pos = (503,0);
},
{
name = top;
pos = (759,1450);
},
{
name = topleft;
pos = (383,1450);
}
);
hints = (
{
horizontal = 1;
options = 4;
origin = (0,11);
target = (0,10);
type = TTStem;
},
{
horizontal = 1;
options = 4;
origin = (0,6);
target = (0,7);
type = TTStem;
},
{
horizontal = 1;
origin = (0,0);
target = (0,1);
type = TTStem;
},
{
horizontal = 1;
origin = (0,5);
target = (0,4);
type = TTStem;
},
{
options = 4;
origin = (0,8);
target = (0,3);
type = TTStem;
},
{
horizontal = 1;
options = 4;
origin = (0,1);
target = (0,0);
type = TTStem;
}
);
layerId = "63BE41E3-0F49-4E61-A903-F52A2E952C90";
shapes = (
{
closed = 1;
nodes = (
(877,0,l),
(902,140,l),
(618,140,l),
(824,1310,l),
(1070,1310,l),
(1095,1450,l),
(421,1450,l),
(396,1310,l),
(648,1310,l),
(442,140,l),
(152,140,l),
(127,0,l)
);
}
);
width = 1200;
},
{
anchors = (
{
name = bottom;
pos = (550,0);
},
{
name = ogonek;
pos = (990,20);
},
{
name = top;
pos = (550,1400);
},
{
name = topleft;
pos = (40,1400);
}
);
associatedMasterId = "63BE41E3-0F49-4E61-A903-F52A2E952C90";
background = {
shapes = (
{
closed = 1;
nodes = (
(344,0,l),
(756,0,l),
(756,1444,l),
(344,1444,l),
(344,0,l)
);
}
);
};
layerId = "21E2753D-042D-4D19-89C8-430560CC5AF5";
name = "new Layer";
shapes = (
{
closed = 1;
nodes = (
(924,0,l),
(924,236,l),
(738,236,l),
(738,1214,l),
(924,1214,l),
(924,1450,l),
(174,1450,l),
(174,1214,l),
(364,1214,l),
(364,236,l),
(174,236,l),
(174,0,l)
);
}
);
width = 1200;
},
{
anchors = (
{
name = bottom;
pos = (503,0);
},
{
name = ogonek;
pos = (503,0);
},
{
name = top;
pos = (759,1454);
},
{
name = topleft;
pos = (383,1450);
}
);
background = {
shapes = (
{
closed = 1;
nodes = (
(344,0,l),
(756,0,l),
(756,1444,l),
(344,1444,l),
(344,0,l)
);
}
);
};
hints = (
{
horizontal = 1;
options = 4;
origin = (0,11);
target = (0,10);
type = TTStem;
},
{
horizontal = 1;
options = 4;
origin = (0,6);
target = (0,7);
type = TTStem;
}
);
layerId = "F48F13AC-C425-4574-8B52-7DBCB7751002";
shapes = (
{
closed = 1;
nodes = (
(855,0,l),
(903,272,l),
(719,272,l),
(878,1176,l),
(1062,1176,l),
(1111,1450,l),
(405,1450,l),
(356,1176,l),
(544,1176,l),
(385,272,l),
(195,272,l),
(147,0,l)
);
}
);
width = 1200;
},
{
anchors = (
{
name = bottom;
pos = (511,0);
},
{
name = ogonek;
pos = (511,0);
},
{
name = top;
pos = (741,1450);
},
{
name = topleft;
pos = (365,1450);
}
);
hints = (
{
horizontal = 1;
options = 4;
origin = (0,11);
target = (0,10);
type = TTStem;
},
{
horizontal = 1;
options = 4;
origin = (0,6);
target = (0,7);
type = TTStem;
}
);
layerId = "4FB9B80E-81B5-47C9-A539-BB7C5ADDFB58";
shapes = (
{
closed = 1;
nodes = (
(894,0,l),
(913,118,l),
(605,118,l),
(797,1332,l),
(1061,1332,l),
(1080,1450,l),
(405,1450,l),
(387,1332,l),
(650,1332,l),
(458,118,l),
(150,118,l),
(132,0,l)
);
}
);
width = 1200;
},
{
anchors = (
{
name = bottom;
pos = (503,0);
},
{
name = ogonek;
pos = (503,0);
},
{
name = top;
pos = (759,1452);
},
{
name = topleft;
pos = (383,1450);
}
);
hints = (
{
horizontal = 1;
options = 4;
origin = (0,11);
target = (0,10);
type = TTStem;
},
{
horizontal = 1;
options = 4;
origin = (0,6);
target = (0,7);
type = TTStem;
},
{
horizontal = 1;
origin = (0,0);
target = (0,1);
type = TTStem;
},
{
horizontal = 1;
origin = (0,5);
target = (0,4);
type = TTStem;
},
{
options = 4;
origin = (0,8);
target = (0,3);
type = TTStem;
},
{
horizontal = 1;
options = 4;
origin = (0,1);
target = (0,0);
type = TTStem;
}
);
layerId = "92EF81BF-A460-40B9-8F71-75F6CAA5A9CA";
shapes = (
{
closed = 1;
nodes = (
(867,0,l),
(903,206,l),
(669,206,l),
(852,1244,l),
(1066,1244,l),
(1103,1450,l),
(413,1450,l),
(376,1244,l),
(596,1244,l),
(413,206,l),
(173,206,l),
(137,0,l)
);
}
);
width = 1200;
}
);
note = I;
unicode = 73;
}
{
glyphname = J;
layers = (
{
anchors = (
{
name = bottom;
pos = (482,-20);
},
{
name = top;
pos = (757,1450);
}
);
hints = (
{
horizontal = 1;
options = 4;
origin = (0,17);
target = (0,10);
type = TTStem;
},
{
horizontal = 1;
options = 4;
origin = (0,4);
target = (0,5);
type = TTStem;
},
{
horizontal = 1;
origin = (0,17);
target = (0,10);
type = TTStem;
},
{
horizontal = 1;
origin = (0,10);
target = (0,17);
type = TTStem;
},
{
horizontal = 1;
origin = (0,14);
type = TTSnap;
},
{
horizontal = 1;
origin = (0,4);
target = (0,5);
type = TTStem;
}
);
layerId = "63BE41E3-0F49-4E61-A903-F52A2E952C90";
shapes = (
{
closed = 1;
nodes = (
(755,-20,o),
(915,122,o),
(969,428,cs),
(1149,1450,l),
(411,1450,l),
(382,1288,l),
(946,1288,l),
(797,444,ls),
(761,236,o),
(644,128,o),
(489,128,cs),
(352,128,o),
(273,224,o),
(301,386,c),
(117,398,l),
(71,134,o),
(233,-20,o),
(480,-20,cs)
);
}
);
width = 1200;
},
{
anchors = (
{
name = bottom;
pos = (548,0);
},
{
name = top;
pos = (548,1400);
}
);
associatedMasterId = "63BE41E3-0F49-4E61-A903-F52A2E952C90";
background = {
shapes = (
{
closed = 1;
nodes = (
(540,-32,l),
(689,-32,o),
(873,4,o),
(994,140,cs),
(1080,241,o),
(1092,408,o),
(1092,488,cs),
(1092,1444,l),
(686,1444,l),
(686,474,ls),
(686,374,o),
(675,258,o),
(540,258,cs),
(415,258,o),
(406,375,o),
(406,462,c),
(8,462,l),
(8,375,o),
(12,258,o),
(74,164,cs),
(178,14,o),
(365,-32,o),
(540,-32,c)
);
}
);
};
layerId = "21E2753D-042D-4D19-89C8-430560CC5AF5";
name = "new Layer";
shapes = (
{
closed = 1;
nodes = (
(924,-36,o),
(1026,180,o),
(1026,434,cs),
(1026,1450,l),
(168,1450,l),
(168,1208,l),
(708,1208,l),
(708,474,ls),
(708,374,o),
(696,232,o),
(506,232,cs),
(386,232,o),
(298,334,o),
(298,462,c),
(10,462,l),
(10,150,o),
(238,-36,o),
(506,-36,cs)
);
}
);
width = 1200;
},
{
anchors = (
{
name = bottom;
pos = (484,-18);
},
{
name = top;
pos = (769,1450);
}
);
hints = (
{
horizontal = 1;
options = 4;
origin = (0,17);
target = (0,10);
type = TTStem;
},
{
horizontal = 1;
options = 4;
origin = (0,4);
target = (0,5);
type = TTStem;
}
);
layerId = "F48F13AC-C425-4574-8B52-7DBCB7751002";
shapes = (
{
closed = 1;
nodes = (
(800,-18,o),
(1022,163,o),
(1079,487,cs),
(1249,1450,l),
(377,1450,l),
(330,1188,l),
(886,1188,l),
(767,509,ls),
(749,409,o),
(679,260,o),
(507,260,cs),
(399,260,o),
(331,351,o),
(353,479,c),
(63,501,l),
(8,189,o),
(188,-18,o),
(504,-18,cs)
);
}
);
width = 1200;
},
{
anchors = (
{
name = bottom;
pos = (514,-20);
},
{
name = top;
pos = (755,1450);
}
);
hints = (
{
horizontal = 1;
options = 4;
origin = (0,17);
target = (0,10);
type = TTStem;
},
{
horizontal = 1;
options = 4;
origin = (0,4);
target = (0,5);
type = TTStem;
}
);
layerId = "4FB9B80E-81B5-47C9-A539-BB7C5ADDFB58";
shapes = (
{
closed = 1;
nodes = (
(792,-20,o),
(936,115,o),
(984,419,cs),
(1148,1450,l),
(437,1450,l),
(415,1308,l),
(979,1308,l),
(842,433,ls),
(805,207,o),
(678,106,o),
(530,106,cs),
(390,106,o),
(300,203,o),
(326,371,c),
(169,381,l),
(128,125,o),
(288,-20,o),
(522,-20,cs)
);
}
);
width = 1200;
},
{
anchors = (
{
name = bottom;
pos = (500,-19);
},
{
name = top;
pos = (783,1450);
}
);
hints = (
{
horizontal = 1;
options = 4;
origin = (0,17);
target = (0,10);
type = TTStem;
},
{
horizontal = 1;
options = 4;
origin = (0,4);
target = (0,5);
type = TTStem;
},
{
horizontal = 1;
origin = (0,17);
target = (0,10);
type = TTStem;
},
{
horizontal = 1;
origin = (0,10);
target = (0,17);
type = TTStem;
},
{
horizontal = 1;
origin = (0,14);
type = TTSnap;
},
{
horizontal = 1;
origin = (0,4);
target = (0,5);
type = TTStem;
}
);
layerId = "92EF81BF-A460-40B9-8F71-75F6CAA5A9CA";
shapes = (
{
closed = 1;
nodes = (
(795,-20,o),
(988,143,o),
(1044,457,cs),
(1219,1450,l),
(403,1450,l),
(365,1238,l),
(933,1238,l),
(799,477,ls),
(772,323,o),
(678,194,o),
(512,194,cs),
(388,194,o),
(312,287,o),
(337,433,c),
(96,451,l),
(46,163,o),
(219,-20,o),
(505,-20,cs)
);
}
);
width = 1200;
}
);
note = J;
unicode = 74;
}
{
glyphname = K;
layers = (
{
anchors = (
{
name = bottom;
pos = (503,0);
},
{
name = top;
pos = (759,1450);
}
);
hints = (
{
options = 4;
origin = (1,2);
target = (1,1);
type = TTStem;
}
);
layerId = "63BE41E3-0F49-4E61-A903-F52A2E952C90";
shapes = (
{
closed = 1;
nodes = (
(1047,0,l),
(594,798,l),
(1245,1452,l),
(1027,1452,l),
(400,786,l),
(831,0,l)
);
},
{
closed = 1;
nodes = (
(269,0,l),
(525,1452,l),
(351,1452,l),
(95,0,l)
);
}
);
width = 1200;
},
{
anchors = (
{
name = bottom;
pos = (550,0);
},
{
name = top;
pos = (550,1400);
}
);
associatedMasterId = "63BE41E3-0F49-4E61-A903-F52A2E952C90";
background = {
shapes = (
{
closed = 1;
nodes = (
(56,0,l),
(346,0,l),
(346,768,l),
(690,0,l),
(1044,0,l),
(660,808,l),
(1016,1444,l),
(678,1444,l),
(346,810,l),
(346,1444,l),
(56,1444,l),
(56,0,l)
);
}
);
};
layerId = "21E2753D-042D-4D19-89C8-430560CC5AF5";
name = "new Layer";
shapes = (
{
closed = 1;
nodes = (
(1040,0,l),
(660,808,l),
(1004,1450,l),
(686,1450,l),
(340,786,l),
(690,0,l)
);
},
{
closed = 1;
nodes = (
(348,0,l),
(348,1450,l),
(52,1450,l),
(52,0,l)
);
}
);
width = 1200;
},
{
anchors = (
{
name = bottom;
pos = (503,0);
},
{
name = top;
pos = (759,1450);
}
);
hints = (
{
horizontal = 1;
options = 4;
origin = (1,3);
stem = -1;
type = TTSnap;
},
{
horizontal = 1;
options = 4;
origin = (1,2);
stem = -1;
type = TTSnap;
}
);
layerId = "F48F13AC-C425-4574-8B52-7DBCB7751002";
shapes = (
{
closed = 1;
nodes = (
(1073,0,l),
(828,798,l),
(1300,1450,l),
(945,1450,l),
(462,798,l),
(701,0,l)
);
},
{
closed = 1;
nodes = (
(383,0,l),
(639,1450,l),
(309,1450,l),
(53,0,l)
);
}
);
width = 1200;
},
{
anchors = (
{
name = bottom;
pos = (473,0);
},
{
name = top;
pos = (703,1450);
}
);
hints = (
{
horizontal = 1;
options = 4;
origin = (1,3);
stem = -1;
type = TTSnap;
},
{
horizontal = 1;
options = 4;
origin = (1,2);
stem = -1;
type = TTSnap;
}
);
layerId = "4FB9B80E-81B5-47C9-A539-BB7C5ADDFB58";
shapes = (
{
closed = 1;
nodes = (
(981,0,l),
(479,798,l),
(1148,1450,l),
(953,1450,l),
(313,784,l),
(791,0,l)
);
},
{
closed = 1;
nodes = (
(188,0,l),
(418,1450,l),
(273,1450,l),
(43,0,l)
);
}
);
width = 1200;
},
{
anchors = (
{
name = bottom;
pos = (503,0);
},
{
name = top;
pos = (759,1450);
}
);
hints = (
{
options = 4;
origin = (1,2);
target = (1,1);
type = TTStem;
}
);
layerId = "92EF81BF-A460-40B9-8F71-75F6CAA5A9CA";
shapes = (
{
closed = 1;
nodes = (
(1072,0,l),
(722,798,l),
(1284,1452,l),
(998,1452,l),
(443,792,l),
(778,0,l)
);
},
{
closed = 1;
nodes = (
(337,0,l),
(593,1452,l),
(341,1452,l),
(85,0,l)
);
}
);
width = 1200;
}
);
note = K;
unicode = 75;
}
{
glyphname = L;
layers = (
{
anchors = (
{
name = bottom;
pos = (514,-38);
},
{
name = center;
pos = (631,726);
},
{
name = top;
pos = (759,1454);
},
{
name = topright;
pos = (1203,1454);
}
);
hints = (
{
horizontal = 1;
options = 4;
origin = (0,5);
target = (0,2);
type = TTStem;
},
{
horizontal = 1;
options = 4;
origin = (0,4);
type = TTSnap;
},
{
options = 4;
origin = (0,5);
target = (0,2);
type = TTStem;
},
{
horizontal = 1;
options = 4;
origin = (0,0);
target = (0,1);
type = TTStem;
},
{
options = 4;
origin = (0,4);
target = (0,3);
type = TTStem;
}
);
layerId = "63BE41E3-0F49-4E61-A903-F52A2E952C90";
shapes = (
{
closed = 1;
nodes = (
(979,0,l),
(1005,146,l),
(295,146,l),
(525,1454,l),
(349,1454,l),
(93,0,l)
);
}
);
width = 1200;
},
{
anchors = (
{
name = bottom;
pos = (550,0);
},
{
name = center;
pos = (550,700);
},
{
name = top;
pos = (550,1400);
},
{
name = topright;
pos = (1060,1400);
}
);
associatedMasterId = "63BE41E3-0F49-4E61-A903-F52A2E952C90";
background = {
shapes = (
{
closed = 1;
nodes = (
(70,0,l),
(1032,0,l),
(1032,284,l),
(440,284,l),
(440,1444,l),
(70,1444,l),
(70,0,l)
);
}
);
};
layerId = "21E2753D-042D-4D19-89C8-430560CC5AF5";
name = "new Layer";
shapes = (
{
closed = 1;
nodes = (
(1026,0,l),
(1032,284,l),
(442,284,l),
(436,1450,l),
(76,1450,l),
(76,0,l)
);
}
);
width = 1200;
},
{
anchors = (
{
name = bottom;
pos = (503,0);
},
{
name = center;
pos = (631,726);
},
{
name = top;
pos = (759,1450);
},
{
name = topright;
pos = (1269,1450);
}
);
background = {
shapes = (
{
closed = 1;
nodes = (
(70,0,l),
(1032,0,l),
(1032,284,l),
(440,284,l),
(440,1444,l),
(70,1444,l),
(70,0,l)
);
}
);
};
hints = (
{
horizontal = 1;
options = 4;
origin = (0,5);
target = (0,2);
type = TTStem;
},
{
horizontal = 1;
options = 4;
origin = (0,0);
target = (0,1);
type = TTStem;
}
);
layerId = "F48F13AC-C425-4574-8B52-7DBCB7751002";
shapes = (
{
closed = 1;
nodes = (
(995,0,l),
(1047,296,l),
(411,296,l),
(615,1450,l),
(273,1450,l),
(17,0,l)
);
}
);
width = 1200;
},
{
anchors = (
{
name = bottom;
pos = (491,-44);
},
{
name = center;
pos = (591,726);
},
{
name = top;
pos = (706,1454);
},
{
name = topright;
pos = (1140,1454);
}
);
hints = (
{
horizontal = 1;
options = 4;
origin = (0,5);
target = (0,2);
type = TTStem;
}
);
layerId = "4FB9B80E-81B5-47C9-A539-BB7C5ADDFB58";
shapes = (
{
closed = 1;
nodes = (
(947,0,l),
(967,124,l),
(245,124,l),
(455,1450,l),
(308,1450,l),
(78,0,l)
);
}
);
width = 1200;
},
{
anchors = (
{
name = bottom;
pos = (509,-20);
},
{
name = center;
pos = (631,726);
},
{
name = top;
pos = (759,1452);
},
{
name = topright;
pos = (1237,1452);
}
);
hints = (
{
horizontal = 1;
options = 4;
origin = (0,5);
target = (0,2);
type = TTStem;
},
{
horizontal = 1;
options = 4;
origin = (0,4);
type = TTSnap;
},
{
options = 4;
origin = (0,5);
target = (0,2);
type = TTStem;
},
{
horizontal = 1;
options = 4;
origin = (0,0);
target = (0,1);
type = TTStem;
},
{
options = 4;
origin = (0,4);
target = (0,3);
type = TTStem;
}
);
layerId = "92EF81BF-A460-40B9-8F71-75F6CAA5A9CA";
shapes = (
{
closed = 1;
nodes = (
(989,0,l),
(1028,222,l),
(356,222,l),
(573,1452,l),
(313,1452,l),
(57,0,l)
);
}
);
width = 1200;
}
);
note = L;
unicode = 76;
}
{
glyphname = M;
layers = (
{
anchors = (
{
name = bottom;
pos = (503,0);
},
{
name = bottomright;
pos = (981,0);
},
{
name = top;
pos = (759,1450);
}
);
hints = (
{
horizontal = 1;
options = 4;
origin = (0,16);
target = (0,1);
type = TTStem;
},
{
options = 4;
origin = (0,17);
target = (0,0);
type = TTStem;
},
{
options = 4;
origin = (0,9);
target = (0,10);
type = TTStem;
},
{
options = 1;
origin = (0,4);
type = TTSnap;
},
{
options = 1;
origin = (0,3);
type = TTSnap;
},
{
options = 1;
origin = (0,16);
type = TTSnap;
}
);
layerId = "63BE41E3-0F49-4E61-A903-F52A2E952C90";
shapes = (
{
closed = 1;
nodes = (
(197,0,l),
(419,1264,l),
(364,1301,l),
(418,1195,l),
(501,400,l),
(647,400,l),
(1004,1195,l),
(1104,1301,l),
(1031,1264,l),
(809,0,l),
(981,0,l),
(1237,1450,l),
(944,1450,l),
(586,568,l),
(616,568,l),
(570,1450,l),
(281,1450,l),
(25,0,l)
);
}
);
width = 1200;
},
{
anchors = (
{
name = bottom;
pos = (550,0);
},
{
name = top;
pos = (550,1400);
}
);
associatedMasterId = "63BE41E3-0F49-4E61-A903-F52A2E952C90";
background = {
shapes = (
{
closed = 1;
nodes = (
(28,0,l),
(238,0,l),
(232,1222,l),
(430,0,l),
(648,0,l),
(854,1212,l),
(844,0,l),
(1072,0,l),
(1070,1446,l),
(692,1444,l),
(554,466,l),
(408,1444,l),
(28,1444,l),
(28,0,l)
);
}
);
};
layerId = "21E2753D-042D-4D19-89C8-430560CC5AF5";
name = "new Layer";
shapes = (
{
closed = 1;
nodes = (
(290,0,l),
(290,838,l),
(280,800,l),
(294,764,l),
(424,96,l),
(674,96,l),
(810,764,l),
(824,800,l),
(806,838,l),
(806,0,l),
(1072,0,l),
(1072,1450,l),
(692,1450,l),
(530,348,l),
(568,348,l),
(406,1450,l),
(28,1450,l),
(28,0,l)
);
}
);
width = 1200;
},
{
anchors = (
{
name = bottom;
pos = (513,0);
},
{
name = bottomright;
pos = (995,0);
},
{
name = top;
pos = (759,1450);
}
);
hints = (
{
horizontal = 1;
options = 4;
origin = (0,17);
stem = -1;
type = TTSnap;
},
{
horizontal = 1;
options = 4;
origin = (0,16);
stem = -1;
type = TTSnap;
}
);
layerId = "F48F13AC-C425-4574-8B52-7DBCB7751002";
shapes = (
{
closed = 1;
nodes = (
(327,0,l),
(464,783,l),
(461,806,l),
(476,790,l),
(513,392,l),
(630,392,l),
(799,790,l),
(820,806,l),
(812,783,l),
(675,0,l),
(1003,0,l),
(1259,1450,l),
(922,1450,l),
(644,892,l),
(671,892,l),
(588,1450,l),
(257,1450,l),
(1,0,l)
);
}
);
width = 1200;
},
{
anchors = (
{
name = bottom;
pos = (513,0);
},
{
name = bottomright;
pos = (982,0);
},
{
name = top;
pos = (742,1450);
}
);
layerId = "4FB9B80E-81B5-47C9-A539-BB7C5ADDFB58";
shapes = (
{
closed = 1;
nodes = (
(172,0,l),
(406,1338,l),
(379,1310,l),
(413,1293,l),
(485,410,l),
(667,410,l),
(1050,1293,l),
(1087,1310,l),
(1068,1338,l),
(834,0,l),
(982,0,l),
(1238,1450,l),
(975,1450,l),
(573,486,l),
(601,486,l),
(537,1450,l),
(280,1450,l),
(24,0,l)
);
}
);
width = 1200;
},
{
anchors = (
{
name = bottom;
pos = (503,0);
},
{
name = bottomright;
pos = (985,0);
},
{
name = top;
pos = (759,1450);
}
);
hints = (
{
horizontal = 1;
options = 4;
origin = (0,16);
target = (0,1);
type = TTStem;
},
{
options = 4;
origin = (0,17);
target = (0,0);
type = TTStem;
},
{
options = 4;
origin = (0,9);
target = (0,10);
type = TTStem;
},
{
options = 1;
origin = (0,4);
type = TTSnap;
},
{
options = 1;
origin = (0,3);
type = TTSnap;
},
{
options = 1;
origin = (0,16);
type = TTSnap;
}
);
layerId = "92EF81BF-A460-40B9-8F71-75F6CAA5A9CA";
shapes = (
{
closed = 1;
nodes = (
(263,0,l),
(443,1003,l),
(451,984,l),
(452,973,l),
(514,389,l),
(634,389,l),
(904,973,l),
(908,984,l),
(920,1003,l),
(741,0,l),
(985,0,l),
(1241,1450,l),
(915,1450,l),
(627,804,l),
(657,804,l),
(599,1450,l),
(277,1450,l),
(21,0,l)
);
}
);
width = 1200;
}
);
note = M;
unicode = 77;
}
{
glyphname = N;
layers = (
{
anchors = (
{
name = bottom;
pos = (503,0);
},
{
name = top;
pos = (758,1446);
}
);
hints = (
{
horizontal = 1;
options = 4;
origin = (0,9);
stem = -1;
type = TTSnap;
},
{
horizontal = 1;
options = 4;
origin = (0,9);
target = (0,1);
type = TTStem;
},
{
horizontal = 1;
options = 4;
origin = (0,10);
target = (0,6);
type = TTStem;
}
);
layerId = "63BE41E3-0F49-4E61-A903-F52A2E952C90";
shapes = (
{
closed = 1;
nodes = (
(253,0,l),
(465,1192,l),
(675,0,l),
(913,0,l),
(1169,1450,l),
(993,1450,l),
(777,234,l),
(736,486,l),
(585,1450,l),
(337,1450,l),
(81,0,l)
);
}
);
width = 1200;
},
{
anchors = (
{
name = bottom;
pos = (550,0);
},
{
name = top;
pos = (550,1400);
}
);
associatedMasterId = "63BE41E3-0F49-4E61-A903-F52A2E952C90";
background = {
shapes = (
{
closed = 1;
nodes = (
(68,0,l),
(314,0,l),
(310,1122,l),
(658,0,l),
(1032,0,l),
(1032,1444,l),
(790,1444,l),
(792,368,l),
(452,1444,l),
(68,1444,l),
(68,0,l)
);
}
);
};
layerId = "21E2753D-042D-4D19-89C8-430560CC5AF5";
name = "new Layer";
shapes = (
{
closed = 1;
nodes = (
(314,0,l),
(314,1044,l),
(670,0,l),
(1046,0,l),
(1046,1450,l),
(784,1450,l),
(784,422,l),
(444,1450,l),
(52,1450,l),
(52,0,l)
);
}
);
width = 1200;
},
{
anchors = (
{
name = bottom;
pos = (503,0);
},
{
name = top;
pos = (759,1452);
}
);
hints = (
{
horizontal = 1;
options = 4;
origin = (0,10);
stem = -1;
type = TTSnap;
},
{
horizontal = 1;
options = 4;
origin = (0,9);
stem = -1;
type = TTSnap;
}
);
layerId = "F48F13AC-C425-4574-8B52-7DBCB7751002";
shapes = (
{
closed = 1;
nodes = (
(329,0,l),
(471,788,l),
(638,0,l),
(1003,0,l),
(1259,1450,l),
(935,1450,l),
(791,650,l),
(775,748,l),
(656,1450,l),
(261,1450,l),
(5,0,l)
);
}
);
width = 1200;
},
{
anchors = (
{
name = bottom;
pos = (522,0);
},
{
name = top;
pos = (752,1452);
}
);
hints = (
{
horizontal = 1;
options = 4;
origin = (0,10);
stem = -1;
type = TTSnap;
},
{
horizontal = 1;
options = 4;
origin = (0,9);
stem = -1;
type = TTSnap;
},
{
horizontal = 1;
options = 4;
origin = (0,9);
target = (0,1);
type = TTStem;
},
{
horizontal = 1;
options = 4;
origin = (0,10);
target = (0,6);
type = TTStem;
}
);
layerId = "4FB9B80E-81B5-47C9-A539-BB7C5ADDFB58";
shapes = (
{
closed = 1;
nodes = (
(259,0,l),
(461,1264,l),
(704,0,l),
(913,0,l),
(1143,1450,l),
(996,1450,l),
(791,164,l),
(738,442,l),
(566,1450,l),
(342,1450,l),
(112,0,l)
);
}
);
width = 1200;
},
{
anchors = (
{
name = bottom;
pos = (503,0);
},
{
name = top;
pos = (759,1450);
}
);
hints = (
{
horizontal = 1;
options = 4;
origin = (0,9);
stem = -1;
type = TTSnap;
},
{
horizontal = 1;
options = 4;
origin = (0,9);
target = (0,1);
type = TTStem;
},
{
horizontal = 1;
options = 4;
origin = (0,10);
target = (0,6);
type = TTStem;
}
);
layerId = "92EF81BF-A460-40B9-8F71-75F6CAA5A9CA";
shapes = (
{
closed = 1;
nodes = (
(291,0,l),
(468,990,l),
(657,0,l),
(959,0,l),
(1215,1450,l),
(965,1450,l),
(785,442,l),
(756,618,l),
(621,1450,l),
(299,1450,l),
(43,0,l)
);
}
);
width = 1200;
}
);
note = N;
unicode = 78;
}
{
glyphname = O;
layers = (
{
anchors = (
{
name = bottom;
pos = (500,-16);
},
{
name = center;
pos = (631,726);
},
{
name = ogonek;
pos = (502,-8);
},
{
name = top;
pos = (759,1450);
},
{
name = topleft;
pos = (249,1450);
},
{
name = topright;
pos = (1000,1388);
}
);
hints = (
{
horizontal = 1;
options = 4;
origin = (0,11);
target = (1,11);
type = TTStem;
},
{
horizontal = 1;
options = 4;
origin = (0,5);
target = (1,5);
type = TTStem;
},
{
options = 4;
origin = (0,8);
target = (1,2);
type = TTStem;
},
{
options = 4;
origin = (1,8);
target = (0,2);
type = TTStem;
}
);
layerId = "63BE41E3-0F49-4E61-A903-F52A2E952C90";
shapes = (
{
closed = 1;
nodes = (
(874,-24,o),
(1090,314,o),
(1165,738,cs),
(1242,1174,o),
(1093,1470,o),
(752,1470,cs),
(421,1470,o),
(176,1186,o),
(101,762,cs),
(24,326,o),
(134,-24,o),
(509,-24,cs)
);
},
{
closed = 1;
nodes = (
(299,144,o),
(231,394,o),
(289,728,cs),
(348,1058,o),
(546,1314,o),
(741,1314,cs),
(926,1314,o),
(1030,1070,o),
(974,752,cs),
(913,406,o),
(735,144,o),
(512,144,cs)
);
}
);
width = 1200;
},
{
anchors = (
{
name = bottom;
pos = (550,0);
},
{
name = center;
pos = (550,700);
},
{
name = ogonek;
pos = (990,20);
},
{
name = top;
pos = (550,1400);
},
{
name = topleft;
pos = (40,1400);
},
{
name = topright;
pos = (1060,1400);
}
);
associatedMasterId = "63BE41E3-0F49-4E61-A903-F52A2E952C90";
background = {
shapes = (
{
closed = 1;
nodes = (
(548,-34,l),
(664,-34,o),
(794,10,o),
(892,126,cs),
(992,242,o),
(1062,430,o),
(1062,718,cs),
(1062,894,o),
(1036,1086,o),
(960,1234,cs),
(882,1382,o),
(758,1484,o),
(560,1484,cs),
(464,1484,o),
(290,1454,o),
(176,1284,cs),
(58,1114,o),
(38,854,o),
(38,716,cs),
(38,446,o),
(100,260,o),
(194,140,cs),
(290,20,o),
(416,-34,o),
(548,-34,c)
);
},
{
closed = 1;
nodes = (
(550,260,l),
(374,260,o),
(322,472,o),
(322,718,cs),
(322,972,o),
(374,1194,o),
(552,1194,cs),
(612,1194,o),
(676,1170,o),
(716,1090,cs),
(754,1006,o),
(778,904,o),
(778,724,cs),
(778,494,o),
(734,260,o),
(550,260,c)
);
}
);
};
layerId = "21E2753D-042D-4D19-89C8-430560CC5AF5";
name = "new Layer";
shapes = (
{
closed = 1;
nodes = (
(964,-24,o),
(1044,278,o),
(1044,728,cs),
(1044,1206,o),
(950,1462,o),
(558,1462,c),
(190,1462,o),
(50,1206,o),
(50,728,cs),
(50,278,o),
(164,-24,o),
(542,-24,cs)
);
},
{
closed = 1;
nodes = (
(354,260,o),
(318,456,o),
(318,726,cs),
(318,980,o),
(358,1176,o),
(546,1176,cs),
(754,1176,o),
(778,966,o),
(778,726,cs),
(778,456,o),
(766,260,o),
(546,260,cs)
);
}
);
width = 1200;
},
{
anchors = (
{
name = bottom;
pos = (498,-16);
},
{
name = center;
pos = (631,726);
},
{
name = ogonek;
pos = (491,-12);
},
{
name = top;
pos = (759,1450);
},
{
name = topleft;
pos = (249,1450);
},
{
name = topright;
pos = (1058,1368);
}
);
hints = (
{
horizontal = 1;
options = 4;
origin = (0,11);
target = (1,11);
type = TTStem;
},
{
horizontal = 1;
options = 4;
origin = (0,5);
target = (1,5);
type = TTStem;
}
);
layerId = "F48F13AC-C425-4574-8B52-7DBCB7751002";
shapes = (
{
closed = 1;
nodes = (
(897,-34,o),
(1092,279,o),
(1173,736,cs),
(1257,1215,o),
(1078,1470,o),
(742,1470,cs),
(426,1470,o),
(180,1217,o),
(101,770,cs),
(18,301,o),
(117,-34,o),
(517,-34,cs)
);
},
{
closed = 1;
nodes = (
(349,250,o),
(377,487,o),
(415,704,cs),
(468,1003,o),
(554,1184,o),
(740,1184,cs),
(904,1184,o),
(893,987,o),
(853,758,cs),
(806,491,o),
(729,250,o),
(529,250,cs)
);
}
);
width = 1200;
},
{
anchors = (
{
name = bottom;
pos = (512,-16);
},
{
name = center;
pos = (630,726);
},
{
name = ogonek;
pos = (516,-8);
},
{
name = top;
pos = (747,1466);
},
{
name = topleft;
pos = (235,1450);
},
{
name = topright;
pos = (977,1392);
}
);
hints = (
{
horizontal = 1;
options = 4;
origin = (0,11);
target = (1,11);
type = TTStem;
},
{
horizontal = 1;
options = 4;
origin = (0,5);
target = (1,5);
type = TTStem;
}
);
layerId = "4FB9B80E-81B5-47C9-A539-BB7C5ADDFB58";
shapes = (
{
closed = 1;
nodes = (
(879,-22,o),
(1095,323,o),
(1159,739,cs),
(1228,1165,o),
(1078,1470,o),
(740,1470,cs),
(404,1470,o),
(169,1179,o),
(104,759,cs),
(35,333,o),
(147,-22,o),
(519,-22,cs)
);
},
{
closed = 1;
nodes = (
(307,112,o),
(212,381,o),
(266,733,cs),
(320,1065,o),
(537,1336,o),
(735,1336,cs),
(919,1336,o),
(1046,1081,o),
(995,749,cs),
(937,395,o),
(749,112,o),
(517,112,cs)
);
}
);
width = 1200;
},
{
anchors = (
{
name = bottom;
pos = (500,-16);
},
{
name = center;
pos = (631,726);
},
{
name = ogonek;
pos = (497,-10);
},
{
name = top;
pos = (759,1450);
},
{
name = topleft;
pos = (249,1450);
},
{
name = topright;
pos = (1030,1378);
}
);
hints = (
{
horizontal = 1;
options = 4;
origin = (0,11);
target = (1,11);
type = TTStem;
},
{
horizontal = 1;
options = 4;
origin = (0,5);
target = (1,5);
type = TTStem;
},
{
options = 4;
origin = (0,8);
target = (1,2);
type = TTStem;
},
{
options = 4;
origin = (1,8);
target = (0,2);
type = TTStem;
}
);
layerId = "92EF81BF-A460-40B9-8F71-75F6CAA5A9CA";
shapes = (
{
closed = 1;
nodes = (
(889,-30,o),
(1095,297,o),
(1173,737,cs),
(1254,1195,o),
(1089,1470,o),
(747,1470,cs),
(423,1470,o),
(175,1203,o),
(98,767,cs),
(19,315,o),
(123,-30,o),
(513,-30,cs)
);
},
{
closed = 1;
nodes = (
(324,198,o),
(303,441,o),
(351,717,cs),
(407,1029,o),
(549,1248,o),
(740,1248,cs),
(917,1248,o),
(962,1029,o),
(914,755,cs),
(860,451,o),
(734,198,o),
(521,198,cs)
);
}
);
width = 1200;
}
);
note = O;
unicode = 79;
}
{
glyphname = P;
layers = (
{
anchors = (
{
name = bottom;
pos = (503,0);
},
{
name = top;
pos = (757,1450);
},
{
name = topleft;
pos = (334,1448);
}
);
hints = (
{
horizontal = 1;
options = 4;
origin = (0,1);
target = (1,8);
type = TTStem;
},
{
horizontal = 1;
options = 4;
origin = (0,9);
target = (1,0);
type = TTStem;
}
);
layerId = "63BE41E3-0F49-4E61-A903-F52A2E952C90";
shapes = (
{
closed = 1;
nodes = (
(249,0,l),
(357,610,l),
(616,610,ls),
(866,610,o),
(1116,698,o),
(1173,1018,cs),
(1232,1354,o),
(1014,1450,o),
(746,1450,cs),
(329,1450,l),
(73,0,l)
);
},
{
closed = 1;
nodes = (
(479,1302,l),
(714,1302,ls),
(892,1302,o),
(1030,1266,o),
(991,1044,cs),
(945,784,o),
(771,756,o),
(557,756,cs),
(382,756,l)
);
}
);
width = 1200;
},
{
anchors = (
{
name = bottom;
pos = (550,0);
},
{
name = top;
pos = (550,1400);
}
);
associatedMasterId = "63BE41E3-0F49-4E61-A903-F52A2E952C90";
background = {
shapes = (
{
closed = 1;
nodes = (
(66,0,l),
(378,0,l),
(378,520,l),
(582,522,ls),
(646,522,o),
(786,526,o),
(864,584,cs),
(938,640,o),
(1034,752,o),
(1034,978,cs),
(1034,1168,o),
(972,1296,o),
(876,1370,cs),
(788,1442,o),
(672,1444,o),
(582,1444,cs),
(66,1444,l),
(66,0,l)
);
},
{
closed = 1;
nodes = (
(518,796,l),
(378,796,l),
(378,1176,l),
(516,1176,ls),
(620,1176,o),
(716,1156,o),
(716,990,cs),
(716,812,o),
(618,796,o),
(518,796,c)
);
}
);
};
layerId = "21E2753D-042D-4D19-89C8-430560CC5AF5";
name = "new Layer";
shapes = (
{
closed = 1;
nodes = (
(370,0,l),
(370,610,l),
(556,610,ls),
(806,610,o),
(1038,704,o),
(1038,1030,cs),
(1038,1360,o),
(816,1450,o),
(548,1450,cs),
(64,1450,l),
(64,0,l)
);
},
{
closed = 1;
nodes = (
(370,1216,l),
(532,1216,ls),
(620,1216,o),
(716,1190,o),
(716,1030,cs),
(716,852,o),
(606,836,o),
(482,836,cs),
(370,836,l)
);
}
);
width = 1200;
},
{
anchors = (
{
name = bottom;
pos = (503,0);
},
{
name = top;
pos = (759,1450);
},
{
name = topleft;
pos = (255,1450);
}
);
hints = (
{
horizontal = 1;
options = 4;
origin = (0,10);
stem = -1;
type = TTSnap;
},
{
horizontal = 1;
options = 4;
origin = (0,1);
target = (1,8);
type = TTStem;
},
{
horizontal = 1;
options = 4;
origin = (0,9);
target = (1,0);
type = TTStem;
}
);
layerId = "F48F13AC-C425-4574-8B52-7DBCB7751002";
shapes = (
{
closed = 1;
nodes = (
(347,0,l),
(449,576,l),
(645,576,ls),
(895,576,o),
(1139,693,o),
(1195,1008,cs),
(1255,1349,o),
(1039,1450,o),
(771,1450,cs),
(259,1450,l),
(3,0,l)
);
},
{
closed = 1;
nodes = (
(556,1188,l),
(715,1188,ls),
(795,1188,o),
(870,1175,o),
(849,1052,cs),
(815,863,o),
(704,856,o),
(592,856,cs),
(498,856,l)
);
}
);
width = 1200;
},
{
anchors = (
{
name = bottom;
pos = (482,0);
},
{
name = top;
pos = (710,1450);
},
{
name = topleft;
pos = (301,1448);
}
);
hints = (
{
horizontal = 1;
options = 4;
origin = (0,10);
stem = -1;
type = TTSnap;
},
{
horizontal = 1;
options = 4;
origin = (0,1);
target = (1,8);
type = TTStem;
},
{
horizontal = 1;
options = 4;
origin = (0,9);
target = (1,0);
type = TTStem;
}
);
layerId = "4FB9B80E-81B5-47C9-A539-BB7C5ADDFB58";
shapes = (
{
closed = 1;
nodes = (
(207,0,l),
(305,616,l),
(577,616,ls),
(827,616,o),
(1075,699,o),
(1124,1021,cs),
(1179,1355,o),
(962,1450,o),
(694,1450,cs),
(290,1450,l),
(60,0,l)
);
},
{
closed = 1;
nodes = (
(417,1322,l),
(667,1322,ls),
(861,1322,o),
(1012,1281,o),
(976,1041,cs),
(932,771,o),
(747,740,o),
(515,740,cs),
(325,740,l)
);
}
);
width = 1200;
},
{
anchors = (
{
name = bottom;
pos = (503,0);
},
{
name = top;
pos = (759,1450);
},
{
name = topleft;
pos = (295,1450);
}
);
hints = (
{
horizontal = 1;
options = 4;
origin = (0,1);
target = (1,8);
type = TTStem;
},
{
horizontal = 1;
options = 4;
origin = (0,9);
target = (1,0);
type = TTStem;
}
);
layerId = "92EF81BF-A460-40B9-8F71-75F6CAA5A9CA";
shapes = (
{
closed = 1;
nodes = (
(291,0,l),
(396,594,l),
(623,594,ls),
(873,594,o),
(1122,695,o),
(1178,1013,cs),
(1237,1351,o),
(1019,1450,o),
(751,1450,cs),
(287,1450,l),
(31,0,l)
);
},
{
closed = 1;
nodes = (
(511,1246,l),
(708,1246,ls),
(836,1246,o),
(944,1221,o),
(914,1049,cs),
(874,825,o),
(732,806,o),
(568,806,cs),
(433,806,l)
);
}
);
width = 1200;
}
);
note = P;
unicode = 80;
}
{
glyphname = Q;
layers = (
{
anchors = (
{
name = bottom;
pos = (452,-288);
},
{
name = center;
pos = (631,726);
},
{
name = ogonek;
pos = (502,-8);
},
{
name = top;
pos = (762,1456);
},
{
name = topleft;
pos = (249,1450);
},
{
name = topright;
pos = (1003,1404);
}
);
hints = (
{
horizontal = 1;
options = 4;
origin = (1,0);
target = (1,1);
type = TTStem;
},
{
horizontal = 1;
options = 4;
origin = (0,5);
target = (2,5);
type = TTStem;
}
);
layerId = "63BE41E3-0F49-4E61-A903-F52A2E952C90";
shapes = (
{
closed = 1;
nodes = (
(901,-18,o),
(1091,316,o),
(1165,738,cs),
(1242,1172,o),
(1083,1470,o),
(752,1470,cs),
(431,1470,o),
(176,1184,o),
(101,762,cs),
(25,328,o),
(105,-18,o),
(508,-18,cs)
);
},
{
closed = 1;
nodes = (
(1013,-296,l),
(1044,-122,l),
(669,-122,ls),
(567,-122,o),
(579,-64,o),
(594,14,cs),
(611,102,l),
(433,102,l),
(417,10,ls),
(384,-181,o),
(400,-296,o),
(605,-296,cs)
);
},
{
closed = 1;
nodes = (
(260,136,o),
(231,398,o),
(291,738,cs),
(349,1064,o),
(525,1312,o),
(739,1312,cs),
(941,1312,o),
(1028,1058,o),
(975,762,cs),
(913,410,o),
(772,136,o),
(511,136,cs)
);
}
);
width = 1200;
},
{
anchors = (
{
name = bottom;
pos = (455,-366);
},
{
name = center;
pos = (631,726);
},
{
name = ogonek;
pos = (516,-30);
},
{
name = top;
pos = (762,1456);
},
{
name = topleft;
pos = (249,1450);
},
{
name = topright;
pos = (1000,1388);
}
);
hints = (
{
horizontal = 1;
options = 4;
place = (-121, 135);
type = TTStem;
},
{
horizontal = 1;
options = 4;
place = (1371, 134);
type = TTStem;
}
);
layerId = "F48F13AC-C425-4574-8B52-7DBCB7751002";
shapes = (
{
closed = 1;
nodes = (
(898,-30,o),
(1048,181,o),
(1142,700,cs),
(1236,1219,o),
(1106,1470,o),
(746,1470,cs),
(430,1470,o),
(216,1260,o),
(124,744,cs),
(32,228,o),
(154,-30,o),
(516,-30,cs)
);
},
{
closed = 1;
nodes = (
(1000,-376,l),
(1052,-124,l),
(802,-124,ls),
(628,-124,o),
(608,-106,o),
(633,15,cs),
(666,174,l),
(392,174,l),
(352,0,ls),
(289,-276,o),
(377,-376,o),
(628,-376,cs)
);
},
{
closed = 1;
nodes = (
(377,240,o),
(396,425,o),
(444,698,cs),
(491,967,o),
(565,1190,o),
(735,1190,cs),
(895,1190,o),
(865,989,o),
(822,742,cs),
(770,447,o),
(707,240,o),
(527,240,cs)
);
}
);
width = 1200;
},
{
anchors = (
{
name = bottom;
pos = (472,-277);
},
{
name = center;
pos = (631,726);
},
{
name = ogonek;
pos = (515,-8);
},
{
name = top;
pos = (746,1468);
},
{
name = topleft;
pos = (244,1466);
},
{
name = topright;
pos = (1070,1466);
}
);
hints = (
{
horizontal = 1;
options = 4;
place = (-101, 59.167);
type = TTStem;
},
{
horizontal = 1;
options = 4;
place = (1382, 57);
type = TTStem;
}
);
layerId = "4FB9B80E-81B5-47C9-A539-BB7C5ADDFB58";
shapes = (
{
closed = 1;
nodes = (
(916,-12,o),
(1101,310,o),
(1167,759,cs),
(1230,1190,o),
(1065,1470,o),
(739,1470,cs),
(417,1470,o),
(167,1199,o),
(102,777,cs),
(32,345,o),
(110,-12,o),
(520,-12,cs)
);
},
{
closed = 1;
nodes = (
(1025,-278,l),
(1049,-130,l),
(711,-130,ls),
(601,-130,o),
(569,-98,o),
(600,8,cs),
(626,96,l),
(445,96,l),
(427,6,ls),
(397,-146,o),
(410,-278,o),
(619,-278,cs)
);
},
{
closed = 1;
nodes = (
(258,124,o),
(198,403,o),
(253,761,cs),
(308,1097,o),
(507,1330,o),
(731,1330,cs),
(943,1330,o),
(1065,1089,o),
(1018,779,cs),
(959,388,o),
(794,124,o),
(521,124,cs)
);
}
);
width = 1200;
},
{
anchors = (
{
name = bottom;
pos = (447,-318);
},
{
name = center;
pos = (631,726);
},
{
name = ogonek;
pos = (502,-8);
},
{
name = top;
pos = (762,1456);
},
{
name = topleft;
pos = (249,1450);
},
{
name = topright;
pos = (1001,1396);
}
);
hints = (
{
horizontal = 1;
options = 4;
origin = (1,0);
target = (1,1);
type = TTStem;
},
{
horizontal = 1;
options = 4;
origin = (0,5);
target = (2,5);
type = TTStem;
}
);
layerId = "92EF81BF-A460-40B9-8F71-75F6CAA5A9CA";
shapes = (
{
closed = 1;
nodes = (
(900,-24,o),
(1077,281,o),
(1154,719,cs),
(1235,1181,o),
(1095,1470,o),
(749,1470,cs),
(431,1470,o),
(192,1199,o),
(114,753,cs),
(34,299,o),
(130,-24,o),
(512,-24,cs)
);
},
{
closed = 1;
nodes = (
(995,-352,l),
(1044,-130,l),
(751,-130,ls),
(582,-130,o),
(603,-82,o),
(621,9,cs),
(647,138,l),
(402,138,l),
(375,19,ls),
(326,-199,o),
(319,-352,o),
(673,-352,cs)
);
},
{
closed = 1;
nodes = (
(319,188,o),
(314,411,o),
(368,719,cs),
(420,1015,o),
(545,1252,o),
(737,1252,cs),
(919,1252,o),
(948,1025,o),
(900,753,cs),
(843,429,o),
(741,188,o),
(519,188,cs)
);
}
);
width = 1200;
}
);
note = Q;
unicode = 81;
}
{
glyphname = R;
layers = (
{
anchors = (
{
name = bottom;
pos = (503,0);
},
{
name = top;
pos = (759,1450);
}
);
layerId = "63BE41E3-0F49-4E61-A903-F52A2E952C90";
shapes = (
{
closed = 1;
nodes = (
(253,0,l),
(366,642,l),
(611,642,ls),
(855,642,o),
(1105,762,o),
(1154,1036,cs),
(1204,1322,o),
(982,1450,o),
(764,1450,cs),
(333,1450,l),
(77,0,l)
);
},
{
closed = 1;
nodes = (
(1006,-8,l),
(781,724,l),
(594,724,l),
(819,-8,l)
);
},
{
closed = 1;
nodes = (
(483,1302,l),
(720,1302,ls),
(874,1302,o),
(1011,1258,o),
(976,1062,cs),
(935,830,o),
(764,796,o),
(578,796,cs),
(393,796,l)
);
}
);
width = 1200;
},
{
anchors = (
{
name = bottom;
pos = (550,0);
},
{
name = top;
pos = (550,1400);
}
);
associatedMasterId = "63BE41E3-0F49-4E61-A903-F52A2E952C90";
background = {
shapes = (
{
closed = 1;
nodes = (
(48,0,l),
(370,0,l),
(370,564,l),
(504,564,ls),
(644,564,o),
(654,504,o),
(666,326,cs),
(678,198,o),
(686,88,o),
(704,0,c),
(1052,0,l),
(1022,118,o),
(1014,222,o),
(998,356,cs),
(970,596,o),
(950,700,o),
(736,710,c),
(736,718,l),
(768,724,o),
(836,734,o),
(910,792,cs),
(976,842,o),
(1016,914,o),
(1016,1060,cs),
(1016,1198,o),
(982,1284,o),
(936,1340,cs),
(860,1436,o),
(762,1444,o),
(582,1444,cs),
(48,1444,l),
(48,0,l)
);
},
{
closed = 1;
nodes = (
(490,824,l),
(370,824,l),
(370,1178,l),
(490,1178,ls),
(602,1178,o),
(706,1166,o),
(706,1000,cs),
(706,946,o),
(686,862,o),
(622,836,cs),
(594,822,o),
(560,824,o),
(490,824,c)
);
}
);
};
layerId = "21E2753D-042D-4D19-89C8-430560CC5AF5";
name = "new Layer";
shapes = (
{
closed = 1;
nodes = (
(356,0,l),
(356,564,l),
(422,564,ls),
(652,564,o),
(648,528,o),
(666,322,cs),
(676,202,o),
(664,112,o),
(718,0,c),
(1072,0,l),
(992,98,o),
(984,332,o),
(978,448,cs),
(970,596,o),
(950,700,o),
(736,712,c),
(736,714,o),
(736,716,o),
(736,718,c),
(896,766,o),
(1016,886,o),
(1016,1086,cs),
(1016,1370,o),
(788,1450,o),
(570,1450,cs),
(62,1450,l),
(62,0,l)
);
},
{
closed = 1;
nodes = (
(358,1182,l),
(480,1182,ls),
(592,1182,o),
(716,1160,o),
(716,1010,cs),
(716,846,o),
(584,822,o),
(448,822,cs),
(358,822,l)
);
}
);
width = 1200;
},
{
anchors = (
{
name = bottom;
pos = (503,0);
},
{
name = top;
pos = (759,1450);
}
);
hints = (
{
horizontal = 1;
options = 4;
place = (-97, 0);
stem = -1;
type = TTSnap;
},
{
horizontal = 1;
options = 4;
place = (467, 135);
type = TTStem;
},
{
horizontal = 1;
options = 4;
place = (1353, 134);
type = TTStem;
}
);
layerId = "F48F13AC-C425-4574-8B52-7DBCB7751002";
shapes = (
{
closed = 1;
nodes = (
(345,0,l),
(440,540,l),
(608,540,ls),
(934,540,o),
(1160,709,o),
(1207,974,cs),
(1256,1253,o),
(1071,1450,o),
(761,1450,cs),
(261,1450,l),
(5,0,l)
);
},
{
closed = 1;
nodes = (
(1087,0,l),
(835,758,l),
(506,758,l),
(743,0,l)
);
},
{
closed = 1;
nodes = (
(551,1168,l),
(703,1168,ls),
(843,1168,o),
(910,1095,o),
(897,1020,cs),
(880,923,o),
(763,828,o),
(581,828,cs),
(491,828,l)
);
}
);
width = 1200;
},
{
anchors = (
{
name = bottom;
pos = (473,0);
},
{
name = top;
pos = (703,1450);
}
);
hints = (
{
horizontal = 1;
options = 4;
place = (-127, 2000);
stem = -1;
type = TTSnap;
},
{
horizontal = 1;
options = 4;
place = (547, 67.333);
type = TTStem;
},
{
horizontal = 1;
options = 4;
place = (1323, 64);
type = TTStem;
}
);
layerId = "4FB9B80E-81B5-47C9-A539-BB7C5ADDFB58";
shapes = (
{
closed = 1;
nodes = (
(208,0,l),
(313,660,l),
(565,660,ls),
(795,660,o),
(1050,771,o),
(1092,1047,cs),
(1139,1333,o),
(911,1450,o),
(709,1450,cs),
(291,1450,l),
(61,0,l)
);
},
{
closed = 1;
nodes = (
(961,-10,l),
(729,718,l),
(567,718,l),
(803,-10,l)
);
},
{
closed = 1;
nodes = (
(418,1324,l),
(669,1324,ls),
(821,1324,o),
(979,1279,o),
(947,1067,cs),
(906,821,o),
(716,790,o),
(534,790,cs),
(333,790,l)
);
}
);
width = 1200;
},
{
anchors = (
{
name = bottom;
pos = (503,0);
},
{
name = top;
pos = (759,1450);
}
);
layerId = "92EF81BF-A460-40B9-8F71-75F6CAA5A9CA";
shapes = (
{
closed = 1;
nodes = (
(299,0,l),
(403,592,l),
(619,592,ls),
(905,592,o),
(1133,735,o),
(1180,1005,cs),
(1230,1287,o),
(1025,1450,o),
(761,1450,cs),
(297,1450,l),
(41,0,l)
);
},
{
closed = 1;
nodes = (
(1046,-4,l),
(807,742,l),
(551,742,l),
(781,-4,l)
);
},
{
closed = 1;
nodes = (
(517,1236,l),
(711,1236,ls),
(859,1236,o),
(961,1177,o),
(937,1041,cs),
(908,877,o),
(763,812,o),
(579,812,cs),
(442,812,l)
);
}
);
width = 1200;
}
);
note = R;
unicode = 82;
}
{
glyphname = S;
layers = (
{
anchors = (
{
name = bottom;
pos = (504,4);
},
{
name = top;
pos = (759,1454);
}
);
hints = (
{
horizontal = 1;
options = 4;
origin = (0,3);
target = (0,31);
type = TTStem;
},
{
horizontal = 1;
options = 4;
origin = (0,19);
target = (0,12);
type = TTStem;
},
{
horizontal = 1;
origin = (0,19);
target = (0,12);
type = TTStem;
},
{
horizontal = 1;
origin = (0,3);
target = (0,31);
type = TTStem;
},
{
origin = (0,0);
type = TTSnap;
},
{
origin = (0,34);
type = TTSnap;
},
{
origin = (0,15);
type = TTSnap;
},
{
origin = (0,16);
type = TTSnap;
},
{
origin = (0,9,0);
type = TTSnap;
},
{
origin = (0,28,0);
type = TTSnap;
},
{
origin = (0,22);
type = TTSnap;
},
{
origin = (0,9);
type = TTSnap;
},
{
horizontal = 1;
options = 4;
origin = (0,31);
target = (0,3);
type = TTStem;
}
);
layerId = "63BE41E3-0F49-4E61-A903-F52A2E952C90";
shapes = (
{
closed = 1;
nodes = (
(55,230,l),
(148,90,o),
(284,-22,o),
(501,-22,cs),
(786,-22,o),
(1003,146,o),
(1045,386,cs),
(1129,862,o),
(324,706,o),
(387,1068,cs),
(417,1238,o),
(605,1322,o),
(750,1322,cs),
(875,1322,o),
(975,1262,o),
(1044,1164,c),
(1169,1258,l),
(1073,1382,o),
(971,1470,o),
(758,1470,cs),
(523,1470,o),
(270,1354,o),
(221,1080,cs),
(182,856,o),
(340,752,o),
(516,690,cs),
(706,614,o),
(921,590,o),
(886,392,cs),
(853,206,o),
(678,126,o),
(497,126,cs),
(386,126,o),
(271,202,o),
(174,330,c)
);
}
);
width = 1200;
},
{
anchors = (
{
name = bottom;
pos = (550,0);
},
{
name = top;
pos = (550,1400);
}
);
associatedMasterId = "63BE41E3-0F49-4E61-A903-F52A2E952C90";
background = {
shapes = (
{
closed = 1;
nodes = (
(548,-32,l),
(694,-32,o),
(822,6,o),
(914,82,cs),
(1006,158,o),
(1062,274,o),
(1062,434,cs),
(1062,720,o),
(904,794,o),
(724,850,cs),
(506,920,ls),
(450,938,o),
(390,970,o),
(390,1068,cs),
(390,1154,o),
(448,1220,o),
(542,1220,cs),
(674,1220,o),
(694,1108,o),
(694,1020,c),
(1020,1020,l),
(1020,1110,o),
(1010,1214,o),
(952,1308,cs),
(912,1372,o),
(844,1426,o),
(740,1458,cs),
(688,1472,o),
(622,1480,o),
(546,1480,cs),
(374,1480,o),
(252,1426,o),
(172,1342,cs),
(94,1258,o),
(58,1146,o),
(58,1028,cs),
(58,754,o),
(224,672,o),
(346,632,cs),
(630,540,ls),
(708,514,o),
(730,470,o),
(730,400,cs),
(730,256,o),
(616,236,o),
(558,236,cs),
(394,236,o),
(362,356,o),
(362,460,c),
(38,460,l),
(38,378,o),
(52,244,o),
(128,140,cs),
(230,-2,o),
(418,-32,o),
(548,-32,c)
);
}
);
};
layerId = "21E2753D-042D-4D19-89C8-430560CC5AF5";
name = "new Layer";
shapes = (
{
closed = 1;
nodes = (
(52,306,l),
(100,94,o),
(286,-32,o),
(548,-32,cs),
(888,-32,o),
(1058,114,o),
(1058,406,cs),
(1058,1006,o),
(352,756,o),
(352,1060,cs),
(352,1172,o),
(454,1220,o),
(542,1220,cs),
(654,1220,o),
(696,1144,o),
(724,1072,c),
(1010,1172,l),
(976,1278,o),
(894,1480,o),
(546,1480,cs),
(208,1480,o),
(58,1268,o),
(58,1028,cs),
(58,512,o),
(750,712,o),
(750,404,cs),
(750,278,o),
(646,236,o),
(558,236,cs),
(494,236,o),
(374,258,o),
(334,400,c)
);
}
);
width = 1200;
},
{
anchors = (
{
name = bottom;
pos = (501,-20);
},
{
name = top;
pos = (768,1470);
}
);
hints = (
{
horizontal = 1;
options = 4;
place = (-73, 133);
type = TTStem;
},
{
horizontal = 1;
options = 4;
place = (1433, 130);
type = TTStem;
}
);
layerId = "F48F13AC-C425-4574-8B52-7DBCB7751002";
shapes = (
{
closed = 1;
nodes = (
(19,287,l),
(113,143,o),
(256,-20,o),
(522,-20,cs),
(828,-20,o),
(1061,139,o),
(1112,426,cs),
(1196,901,o),
(490,811,o),
(530,1040,cs),
(546,1131,o),
(635,1192,o),
(761,1192,cs),
(879,1192,o),
(941,1147,o),
(1020,1065,c),
(1248,1240,l),
(1133,1388,o),
(997,1464,o),
(785,1464,cs),
(459,1464,o),
(259,1295,o),
(222,1082,cs),
(180,847,o),
(328,726,o),
(524,647,cs),
(691,561,o),
(791,567,o),
(771,452,cs),
(752,343,o),
(668,278,o),
(536,278,cs),
(430,278,o),
(348,344,o),
(264,460,c)
);
}
);
width = 1200;
},
{
anchors = (
{
name = bottom;
pos = (510,0);
},
{
name = top;
pos = (771,1448);
}
);
hints = (
{
horizontal = 1;
options = 4;
origin = (0,3);
target = (0,31);
type = TTStem;
},
{
horizontal = 1;
options = 4;
origin = (0,19);
target = (0,12);
type = TTStem;
}
);
layerId = "4FB9B80E-81B5-47C9-A539-BB7C5ADDFB58";
shapes = (
{
closed = 1;
nodes = (
(69,226,l),
(160,84,o),
(295,-20,o),
(513,-20,cs),
(793,-20,o),
(1006,161,o),
(1046,388,cs),
(1132,871,o),
(320,705,o),
(388,1086,cs),
(421,1275,o),
(614,1338,o),
(757,1338,cs),
(902,1338,o),
(993,1280,o),
(1062,1184,c),
(1167,1260,l),
(1067,1384,o),
(974,1466,o),
(758,1466,cs),
(482,1466,o),
(294,1337,o),
(255,1118,cs),
(214,887,o),
(375,778,o),
(535,716,cs),
(724,632,o),
(952,601,o),
(916,398,cs),
(883,207,o),
(671,110,o),
(506,110,cs),
(365,110,o),
(265,184,o),
(166,312,c)
);
}
);
width = 1200;
},
{
anchors = (
{
name = bottom;
pos = (503,2);
},
{
name = top;
pos = (760,1458);
}
);
hints = (
{
horizontal = 1;
options = 4;
origin = (0,3);
target = (0,31);
type = TTStem;
},
{
horizontal = 1;
options = 4;
origin = (0,19);
target = (0,12);
type = TTStem;
},
{
horizontal = 1;
origin = (0,19);
target = (0,12);
type = TTStem;
},
{
horizontal = 1;
origin = (0,3);
target = (0,31);
type = TTStem;
},
{
origin = (0,0);
type = TTSnap;
},
{
origin = (0,34);
type = TTSnap;
},
{
origin = (0,15);
type = TTSnap;
},
{
origin = (0,16);
type = TTSnap;
},
{
origin = (0,9,0);
type = TTSnap;
},
{
origin = (0,28,0);
type = TTSnap;
},
{
origin = (0,22);
type = TTSnap;
},
{
origin = (0,9);
type = TTSnap;
},
{
horizontal = 1;
options = 4;
origin = (0,31);
target = (0,3);
type = TTStem;
}
);
layerId = "92EF81BF-A460-40B9-8F71-75F6CAA5A9CA";
shapes = (
{
closed = 1;
nodes = (
(27,259,l),
(123,117,o),
(263,-18,o),
(509,-18,cs),
(807,-18,o),
(1034,143,o),
(1081,407,cs),
(1164,881,o),
(401,759,o),
(453,1055,cs),
(477,1191,o),
(616,1258,o),
(752,1258,cs),
(876,1258,o),
(957,1206,o),
(1033,1116,c),
(1211,1250,l),
(1104,1386,o),
(987,1470,o),
(771,1470,cs),
(487,1470,o),
(255,1325,o),
(212,1081,cs),
(171,853,o),
(327,741,o),
(515,669,cs),
(696,587,o),
(855,579,o),
(828,423,cs),
(801,275,o),
(671,202,o),
(513,202,cs),
(403,202,o),
(304,272,o),
(211,394,c)
);
}
);
width = 1200;
}
);
note = S;
unicode = 83;
}
{
glyphname = T;
layers = (
{
anchors = (
{
name = bottom;
pos = (503,0);
},
{
name = center;
pos = (626,700);
},
{
name = top;
pos = (759,1450);
},
{
name = topleft;
pos = (249,1450);
}
);
hints = (
{
horizontal = 1;
origin = (0,4);
target = (0,5);
type = TTStem;
},
{
options = 4;
origin = (0,7);
target = (0,0);
type = TTStem;
},
{
horizontal = 1;
options = 4;
origin = (0,4);
target = (0,5);
type = TTStem;
}
);
layerId = "63BE41E3-0F49-4E61-A903-F52A2E952C90";
shapes = (
{
closed = 1;
nodes = (
(585,0,l),
(814,1298,l),
(1240,1298,l),
(1267,1450,l),
(249,1450,l),
(222,1298,l),
(648,1298,l),
(419,0,l)
);
}
);
width = 1200;
},
{
anchors = (
{
name = bottom;
pos = (550,0);
},
{
name = center;
pos = (550,700);
},
{
name = top;
pos = (550,1400);
}
);
associatedMasterId = "63BE41E3-0F49-4E61-A903-F52A2E952C90";
background = {
shapes = (
{
closed = 1;
nodes = (
(382,0,l),
(708,0,l),
(708,1158,l),
(1070,1158,l),
(1070,1444,l),
(28,1444,l),
(28,1158,l),
(382,1158,l),
(382,0,l)
);
}
);
};
layerId = "21E2753D-042D-4D19-89C8-430560CC5AF5";
name = "new Layer";
shapes = (
{
closed = 1;
nodes = (
(710,0,l),
(710,1158,l),
(1066,1158,l),
(1066,1450,l),
(30,1450,l),
(30,1158,l),
(388,1158,l),
(388,0,l)
);
}
);
width = 1200;
},
{
anchors = (
{
name = bottom;
pos = (503,0);
},
{
name = center;
pos = (626,700);
},
{
name = top;
pos = (759,1450);
},
{
name = topleft;
pos = (235,1450);
}
);
background = {
shapes = (
{
closed = 1;
nodes = (
(382,0,l),
(708,0,l),
(708,1158,l),
(1070,1158,l),
(1070,1444,l),
(28,1444,l),
(28,1158,l),
(382,1158,l),
(382,0,l)
);
}
);
};
hints = (
{
horizontal = 1;
options = 4;
origin = (0,7);
stem = -1;
type = TTSnap;
},
{
horizontal = 1;
options = 4;
origin = (0,4);
target = (0,5);
type = TTStem;
}
);
layerId = "F48F13AC-C425-4574-8B52-7DBCB7751002";
shapes = (
{
closed = 1;
nodes = (
(679,0,l),
(881,1146,l),
(1229,1146,l),
(1283,1450,l),
(235,1450,l),
(181,1146,l),
(533,1146,l),
(331,0,l)
);
}
);
width = 1200;
},
{
anchors = (
{
name = bottom;
pos = (514,0);
},
{
name = center;
pos = (625,700);
},
{
name = top;
pos = (744,1450);
},
{
name = topleft;
pos = (236,1450);
}
);
hints = (
{
horizontal = 1;
options = 4;
origin = (0,7);
stem = -1;
type = TTSnap;
},
{
horizontal = 1;
options = 4;
origin = (0,4);
target = (0,5);
type = TTStem;
}
);
layerId = "4FB9B80E-81B5-47C9-A539-BB7C5ADDFB58";
shapes = (
{
closed = 1;
nodes = (
(587,0,l),
(796,1320,l),
(1228,1320,l),
(1249,1450,l),
(236,1450,l),
(216,1320,l),
(650,1320,l),
(440,0,l)
);
}
);
width = 1200;
},
{
anchors = (
{
name = bottom;
pos = (503,0);
},
{
name = center;
pos = (626,700);
},
{
name = top;
pos = (759,1450);
},
{
name = topleft;
pos = (243,1450);
}
);
hints = (
{
horizontal = 1;
origin = (0,4);
target = (0,5);
type = TTStem;
},
{
options = 4;
origin = (0,7);
target = (0,0);
type = TTStem;
},
{
horizontal = 1;
options = 4;
origin = (0,4);
target = (0,5);
type = TTStem;
}
);
layerId = "92EF81BF-A460-40B9-8F71-75F6CAA5A9CA";
shapes = (
{
closed = 1;
nodes = (
(633,0,l),
(848,1222,l),
(1234,1222,l),
(1275,1450,l),
(243,1450,l),
(202,1222,l),
(590,1222,l),
(375,0,l)
);
}
);
width = 1200;
}
);
note = T;
unicode = 84;
}
{
glyphname = U;
layers = (
{
anchors = (
{
name = bottom;
pos = (503,0);
},
{
name = ogonek;
pos = (647,48);
},
{
name = top;
pos = (759,1454);
},
{
name = topright;
pos = (1241,1454);
}
);
hints = (
{
horizontal = 1;
options = 4;
origin = (0,17);
target = (0,8);
type = TTStem;
}
);
layerId = "63BE41E3-0F49-4E61-A903-F52A2E952C90";
shapes = (
{
closed = 1;
nodes = (
(894,-16,o),
(1012,152,o),
(1088,586,cs),
(1241,1454,l),
(1067,1454,l),
(917,603,ls),
(854,246,o),
(744,133,o),
(516,133,cs),
(288,133,o),
(232,234,o),
(295,591,cs),
(447,1454,l),
(275,1454,l),
(124,598,ls),
(48,164,o),
(158,-16,o),
(510,-16,cs)
);
}
);
width = 1200;
},
{
anchors = (
{
name = bottom;
pos = (550,0);
},
{
name = ogonek;
pos = (990,20);
},
{
name = top;
pos = (550,1400);
},
{
name = topright;
pos = (1060,1400);
}
);
associatedMasterId = "63BE41E3-0F49-4E61-A903-F52A2E952C90";
background = {
shapes = (
{
closed = 1;
nodes = (
(546,-38,l),
(692,-38,o),
(878,0,o),
(978,168,cs),
(1046,274,o),
(1062,452,o),
(1062,608,cs),
(1062,1444,l),
(772,1444,l),
(772,600,ls),
(772,422,o),
(732,250,o),
(558,250,cs),
(484,250,o),
(414,288,o),
(374,368,cs),
(344,430,o),
(340,508,o),
(340,586,cs),
(340,1444,l),
(40,1444,l),
(38,622,ls),
(38,542,o),
(38,444,o),
(56,346,cs),
(66,296,o),
(80,250,o),
(102,204,cs),
(144,112,o),
(218,36,o),
(334,-6,cs),
(392,-28,o),
(462,-38,o),
(546,-38,c)
);
}
);
};
layerId = "21E2753D-042D-4D19-89C8-430560CC5AF5";
name = "new Layer";
shapes = (
{
closed = 1;
nodes = (
(954,-28,o),
(1066,216,o),
(1066,586,cs),
(1066,1450,l),
(770,1450,l),
(770,622,ls),
(770,386,o),
(734,250,o),
(560,250,cs),
(386,250,o),
(340,368,o),
(340,622,cs),
(340,1450,l),
(36,1450,l),
(36,586,ls),
(36,216,o),
(146,-28,o),
(550,-28,cs)
);
}
);
width = 1200;
},
{
anchors = (
{
name = bottom;
pos = (503,0);
},
{
name = ogonek;
pos = (502,-8);
},
{
name = top;
pos = (759,1454);
},
{
name = topright;
pos = (1253,1450);
}
);
hints = (
{
horizontal = 1;
options = 4;
origin = (0,17);
target = (0,8);
type = TTStem;
},
{
horizontal = 1;
options = 4;
origin = (0,13);
stem = -1;
type = TTSnap;
}
);
layerId = "F48F13AC-C425-4574-8B52-7DBCB7751002";
shapes = (
{
closed = 1;
nodes = (
(899,-26,o),
(1035,195,o),
(1104,585,cs),
(1257,1450,l),
(917,1450,l),
(771,623,ls),
(728,379,o),
(673,262,o),
(533,262,cs),
(411,262,o),
(410,357,o),
(453,601,cs),
(603,1450,l),
(263,1450,l),
(114,607,ls),
(45,217,o),
(119,-26,o),
(519,-26,cs)
);
}
);
width = 1200;
},
{
anchors = (
{
name = bottom;
pos = (514,0);
},
{
name = ogonek;
pos = (681,58);
},
{
name = top;
pos = (744,1456);
},
{
name = topright;
pos = (1224,1454);
}
);
hints = (
{
horizontal = 1;
options = 4;
origin = (0,17);
target = (0,8);
type = TTStem;
},
{
horizontal = 1;
options = 4;
origin = (0,13);
stem = -1;
type = TTSnap;
}
);
layerId = "4FB9B80E-81B5-47C9-A539-BB7C5ADDFB58";
shapes = (
{
closed = 1;
nodes = (
(816,-16,o),
(1013,131,o),
(1083,570,cs),
(1223,1450,l),
(1072,1450,l),
(944,629,ls),
(882,243,o),
(780,121,o),
(524,121,cs),
(292,121,o),
(219,233,o),
(280,619,cs),
(413,1450,l),
(262,1450,l),
(126,580,ls),
(56,141,o),
(202,-16,o),
(518,-16,cs)
);
}
);
width = 1200;
},
{
anchors = (
{
name = bottom;
pos = (503,0);
},
{
name = ogonek;
pos = (575,20);
},
{
name = top;
pos = (759,1454);
},
{
name = topright;
pos = (1247,1452);
}
);
hints = (
{
horizontal = 1;
options = 4;
origin = (0,17);
target = (0,8);
type = TTStem;
}
);
layerId = "92EF81BF-A460-40B9-8F71-75F6CAA5A9CA";
shapes = (
{
closed = 1;
nodes = (
(897,-22,o),
(1020,165,o),
(1094,581,cs),
(1247,1452,l),
(991,1452,l),
(842,609,ls),
(791,318,o),
(710,198,o),
(531,198,cs),
(354,198,o),
(322,300,o),
(373,591,cs),
(525,1452,l),
(271,1452,l),
(121,599,ls),
(47,183,o),
(143,-22,o),
(514,-22,cs)
);
}
);
width = 1200;
}
);
note = U;
unicode = 85;
}
{
glyphname = V;
layers = (
{
anchors = (
{
name = bottom;
pos = (503,0);
},
{
name = top;
pos = (759,1450);
}
);
hints = (
{
horizontal = 1;
options = 4;
origin = (0,6);
target = (0,3);
type = TTStem;
}
);
layerId = "63BE41E3-0F49-4E61-A903-F52A2E952C90";
shapes = (
{
closed = 1;
nodes = (
(594,0,l),
(1266,1450,l),
(1095,1450,l),
(536,190,l),
(413,1450,l),
(252,1450,l),
(406,0,l)
);
}
);
width = 1200;
},
{
anchors = (
{
name = bottom;
pos = (550,0);
},
{
name = top;
pos = (550,1400);
}
);
associatedMasterId = "63BE41E3-0F49-4E61-A903-F52A2E952C90";
background = {
shapes = (
{
closed = 1;
nodes = (
(382,0,l),
(708,0,l),
(1068,1444,l),
(796,1444,l),
(560,398,l),
(336,1444,l),
(32,1444,l),
(382,0,l)
);
}
);
};
layerId = "21E2753D-042D-4D19-89C8-430560CC5AF5";
name = "new Layer";
shapes = (
{
closed = 1;
nodes = (
(716,0,l),
(1068,1450,l),
(766,1450,l),
(560,422,l),
(338,1450,l),
(30,1450,l),
(382,0,l)
);
}
);
width = 1200;
},
{
anchors = (
{
name = bottom;
pos = (503,0);
},
{
name = top;
pos = (759,1450);
}
);
background = {
shapes = (
{
closed = 1;
nodes = (
(382,0,l),
(708,0,l),
(1068,1444,l),
(796,1444,l),
(560,398,l),
(336,1444,l),
(32,1444,l),
(382,0,l)
);
}
);
};
hints = (
{
horizontal = 1;
options = 4;
origin = (0,6);
stem = -1;
type = TTSnap;
},
{
horizontal = 1;
options = 4;
origin = (0,5);
stem = -1;
type = TTSnap;
}
);
layerId = "F48F13AC-C425-4574-8B52-7DBCB7751002";
shapes = (
{
closed = 1;
nodes = (
(671,0,l),
(1279,1450,l),
(921,1450,l),
(592,526,l),
(597,1450,l),
(241,1450,l),
(337,0,l)
);
}
);
width = 1200;
},
{
anchors = (
{
name = bottom;
pos = (514,0);
},
{
name = top;
pos = (744,1450);
}
);
hints = (
{
horizontal = 1;
options = 4;
origin = (0,6);
stem = -1;
type = TTSnap;
},
{
horizontal = 1;
options = 4;
origin = (0,5);
stem = -1;
type = TTSnap;
},
{
horizontal = 1;
options = 4;
origin = (0,6);
target = (0,3);
type = TTStem;
}
);
layerId = "4FB9B80E-81B5-47C9-A539-BB7C5ADDFB58";
shapes = (
{
closed = 1;
nodes = (
(593,0,l),
(1248,1450,l),
(1101,1450,l),
(541,176,l),
(388,1450,l),
(239,1450,l),
(432,0,l)
);
}
);
width = 1200;
},
{
anchors = (
{
name = bottom;
pos = (503,0);
},
{
name = top;
pos = (759,1450);
}
);
hints = (
{
horizontal = 1;
options = 4;
origin = (0,6);
target = (0,3);
type = TTStem;
}
);
layerId = "92EF81BF-A460-40B9-8F71-75F6CAA5A9CA";
shapes = (
{
closed = 1;
nodes = (
(633,0,l),
(1273,1450,l),
(1009,1450,l),
(565,358,l),
(505,1450,l),
(247,1450,l),
(373,0,l)
);
}
);
width = 1200;
}
);
note = V;
unicode = 86;
}
{
glyphname = W;
layers = (
{
anchors = (
{
name = bottom;
pos = (503,0);
},
{
name = top;
pos = (759,1450);
}
);
layerId = "63BE41E3-0F49-4E61-A903-F52A2E952C90";
shapes = (
{
closed = 1;
nodes = (
(370,0,l),
(617,694,l),
(629,746,l),
(643,746,l),
(636,694,l),
(624,0,l),
(873,0,l),
(1253,1450,l),
(1080,1450,l),
(799,226,l),
(770,224,l),
(772,1110,l),
(626,1110,l),
(314,224,l),
(287,226,l),
(432,1450,l),
(263,1450,l),
(127,0,l)
);
}
);
width = 1200;
},
{
anchors = (
{
name = bottom;
pos = (550,0);
},
{
name = top;
pos = (550,1400);
}
);
associatedMasterId = "63BE41E3-0F49-4E61-A903-F52A2E952C90";
background = {
shapes = (
{
closed = 1;
nodes = (
(150,0,l),
(410,0,l),
(554,1070,l),
(688,0,l),
(948,0,l),
(1082,1444,l),
(886,1444,l),
(814,400,l),
(698,1444,l),
(434,1444,l),
(306,392,l),
(234,1444,l),
(18,1444,l),
(150,0,l)
);
}
);
};
layerId = "21E2753D-042D-4D19-89C8-430560CC5AF5";
name = "new Layer";
shapes = (
{
closed = 1;
nodes = (
(430,0,l),
(536,508,l),
(538,560,l),
(564,560,l),
(566,508,l),
(656,0,l),
(982,0,l),
(1082,1450,l),
(822,1450,l),
(788,598,l),
(756,596,l),
(684,1272,l),
(418,1272,l),
(344,596,l),
(312,598,l),
(274,1450,l),
(8,1450,l),
(104,0,l)
);
}
);
width = 1200;
},
{
anchors = (
{
name = bottom;
pos = (503,0);
},
{
name = top;
pos = (759,1450);
}
);
background = {
shapes = (
{
closed = 1;
nodes = (
(150,0,l),
(410,0,l),
(554,1070,l),
(688,0,l),
(948,0,l),
(1082,1444,l),
(886,1444,l),
(814,400,l),
(698,1444,l),
(434,1444,l),
(306,392,l),
(234,1444,l),
(18,1444,l),
(150,0,l)
);
}
);
};
hints = (
{
horizontal = 1;
options = 4;
origin = (0,17);
stem = -1;
type = TTSnap;
},
{
horizontal = 1;
options = 4;
origin = (0,16);
stem = -1;
type = TTSnap;
}
);
layerId = "F48F13AC-C425-4574-8B52-7DBCB7751002";
shapes = (
{
closed = 1;
nodes = (
(389,0,l),
(550,442,l),
(565,454,l),
(601,454,l),
(612,442,l),
(607,0,l),
(920,0,l),
(1308,1450,l),
(1026,1450,l),
(830,670,l),
(784,680,l),
(766,1086,l),
(620,1086,l),
(458,680,l),
(408,670,l),
(484,1450,l),
(202,1450,l),
(74,0,l)
);
}
);
width = 1200;
},
{
anchors = (
{
name = bottom;
pos = (513,0);
},
{
name = top;
pos = (743,1450);
}
);
hints = (
{
horizontal = 1;
options = 4;
origin = (0,16);
stem = -1;
type = TTSnap;
}
);
layerId = "4FB9B80E-81B5-47C9-A539-BB7C5ADDFB58";
shapes = (
{
closed = 1;
nodes = (
(397,0,l),
(619,700,l),
(620,714,l),
(634,714,l),
(634,700,l),
(618,0,l),
(875,0,l),
(1228,1450,l),
(1073,1450,l),
(778,138,l),
(751,128,l),
(747,1046,l),
(610,1046,l),
(312,128,l),
(293,138,l),
(408,1450,l),
(258,1450,l),
(148,0,l)
);
}
);
width = 1200;
},
{
anchors = (
{
name = bottom;
pos = (503,0);
},
{
name = top;
pos = (759,1450);
}
);
layerId = "92EF81BF-A460-40B9-8F71-75F6CAA5A9CA";
shapes = (
{
closed = 1;
nodes = (
(388,0,l),
(583,552,l),
(595,584,l),
(618,584,l),
(621,552,l),
(608,0,l),
(898,0,l),
(1281,1450,l),
(1052,1450,l),
(813,448,l),
(777,452,l),
(769,1098,l),
(623,1098,l),
(387,452,l),
(349,448,l),
(460,1450,l),
(233,1450,l),
(102,0,l)
);
}
);
width = 1200;
}
);
note = W;
unicode = 87;
}
